<?xml version="1.0" encoding="UTF-8" standalone="no"?>
<!-- Created with Inkscape (http://www.inkscape.org/) -->

<svg
   width="512"
   height="512"
   viewBox="0 0 512 512"
   version="1.1"
   id="svg1"
   xml:space="preserve"
   inkscape:version="1.4.4 (dcaf3e7d9e, 2026-05-05)"
   sodipodi:docname="iconos-nosotros.svg"
   xmlns:inkscape="http://www.inkscape.org/namespaces/inkscape"
   xmlns:sodipodi="http://sodipodi.sourceforge.net/DTD/sodipodi-0.dtd"
   xmlns="http://www.w3.org/2000/svg"
   xmlns:svg="http://www.w3.org/2000/svg"><sodipodi:namedview
     id="namedview1"
     pagecolor="#ffffff"
     bordercolor="#999999"
     borderopacity="1"
     inkscape:showpageshadow="2"
     inkscape:pageopacity="0"
     inkscape:pagecheckerboard="0"
     inkscape:deskcolor="#d1d1d1"
     inkscape:document-units="px"
     inkscape:zoom="0.4716347"
     inkscape:cx="811.00903"
     inkscape:cy="963.66955"
     inkscape:window-width="1920"
     inkscape:window-height="915"
     inkscape:window-x="0"
     inkscape:window-y="40"
     inkscape:window-maximized="1"
     inkscape:current-layer="layer1"><inkscape:page
       x="0"
       y="0"
       width="512"
       height="512"
       id="page3"
       margin="0"
       bleed="0" /></sodipodi:namedview><defs
     id="defs1" /><g
     inkscape:label="Capa 1"
     inkscape:groupmode="layer"
     id="layer1"
     transform="translate(-2.9985354,-551.73061)"><path
       style="fill:#000000"
       d="m 181.83373,1046.5503 c -2.03351,-0.7539 -4.77682,-2.1678 -6.09623,-3.1421 -1.31942,-0.9742 -6.68476,-8.6984 -11.92299,-17.1649 -11.56777,-18.6968 -12.22513,-19.614 -14.0569,-19.614 -0.79922,0 -9.53699,3.6769 -19.41727,8.1708 -15.05146,6.8461 -18.73907,8.1712 -22.74366,8.173 -10.72105,0 -19.195491,-8.1317 -19.784831,-18.9956 -0.2553,-4.70642 2.18562,-13.38172 21.156621,-75.19247 12.83113,-41.80607 21.12339,-70.28219 20.64403,-70.89285 -0.44065,-0.56135 -3.23294,-1.56173 -6.20509,-2.22307 -8.89286,-1.97878 -16.95714,-6.45663 -23.716831,-13.16924 -6.96771,-6.91919 -11.46359,-14.73492 -13.53776,-23.53435 -1.95801,-8.3066 -1.79338,-15.74889 0.5607,-25.34774 l 2.00484,-8.17479 -6.05531,-6.05531 c -6.69053,-6.69053 -12.06295,-16.3597 -13.81304,-24.86044 -1.3054,-6.34073 -1.3054,-14.66929 0,-21.01002 1.75009,-8.50074 7.12251,-18.16991 13.81304,-24.86044 l 6.05531,-6.05531 -2.00484,-8.17479 c -2.35408,-9.59885 -2.51871,-17.04114 -0.5607,-25.34774 2.07124,-8.78701 6.57102,-16.61489 13.528491,-23.53435 6.77101,-6.73401 14.92073,-11.26783 23.70211,-13.18586 2.95895,-0.6463 5.95023,-1.8478 6.6473,-2.67002 0.69706,-0.82222 1.78548,-3.90932 2.41871,-6.86023 1.81563,-8.46095 6.32567,-16.41272 13.16788,-23.21661 3.38481,-3.36585 8.33755,-7.28959 11.00607,-8.71941 5.87939,-3.15023 17.7832,-6.31618 23.66485,-6.29393 2.3677,0.009 7.25924,0.69129 10.87009,1.51629 12.21744,2.79143 12.12438,2.79789 15.05538,-1.04485 3.84433,-5.04018 13.60479,-11.62316 21.09623,-14.22842 3.59952,-1.25179 9.21663,-2.5255 12.48247,-2.83047 13.68452,-1.27788 28.0728,3.99385 38.97784,14.28112 3.52242,3.32287 7.24962,6.04158 8.28267,6.04158 1.03305,0 3.64735,-0.62417 5.80956,-1.38704 2.16221,-0.76287 6.57245,-1.65764 9.80053,-1.98836 12.6409,-1.2951 27.99369,3.8117 37.11824,12.34665 l 4.65379,4.35307 9.64681,-4.72684 c 12.92021,-6.33078 20.95864,-8.00711 35.74763,-7.45477 9.19357,0.34336 12.87434,0.9229 18.91753,2.97856 11.20221,3.81057 19.56878,9.1569 28.63052,18.29521 5.90245,5.95234 9.01004,10.02994 11.86437,15.56775 5.5378,10.74412 7.8786,19.04077 8.46759,30.01223 1.07783,20.07753 -5.23319,37.7592 -18.76982,52.58759 -4.51847,4.94966 -11.66779,10.44158 -20.66956,15.87781 -1.43154,0.86452 -1.43759,1.3047 -0.0773,5.6273 0.89876,2.85606 1.48515,8.17278 1.49989,13.59929 0.0402,14.80742 -4.07014,24.53331 -15.36636,36.3596 -3.6139,3.78347 -5.42008,6.38624 -5.06815,7.30337 4.18981,10.91847 4.80966,24.09683 1.61092,34.24891 -2.452,7.78206 -7.71849,15.90871 -14.32954,22.11173 -6.14904,5.76952 -12.69477,9.24884 -21.70477,11.53695 -3.66066,0.92964 -6.80245,2.13036 -6.98175,2.66828 -0.17931,0.53792 3.72279,14.20135 8.67132,30.36318 5.23961,17.11248 8.78639,30.23908 8.49225,31.42979 -0.77897,3.15338 -3.15422,4.99089 -6.43103,4.9751 -3.45719,-0.0167 -4.66889,-0.67375 -6.02668,-3.26822 -0.53991,-1.03168 -3.60571,-10.52773 -6.81288,-21.10236 -3.20717,-10.57462 -5.94389,-19.35236 -6.0816,-19.5061 -0.1377,-0.15374 -3.48262,3.01162 -7.43315,7.03412 -5.67502,5.77841 -7.07584,7.74422 -6.67337,9.3649 0.28017,1.1282 7.4896,24.97386 16.02096,52.9903 8.53135,28.0165 15.72022,51.63682 15.97526,52.48952 0.25505,0.8527 3.19661,2.7118 6.5368,4.1314 5.09329,2.1647 6.45177,2.4086 8.42041,1.5116 1.29104,-0.5882 2.81354,-2.0927 3.38334,-3.3433 0.87485,-1.9201 -0.22598,-6.42812 -7.07692,-28.98042 -7.03581,-23.1609 -7.96841,-27.0238 -7.02439,-29.0957 1.28253,-2.8148 5.51577,-4.8217 8.30412,-3.9367 1.08344,0.3439 2.55524,1.5428 3.27066,2.6643 0.71543,1.1215 4.78786,13.4344 9.04985,27.362 8.48464,27.72652 9.1404,32.06812 5.80809,38.45312 -3.77494,7.2332 -10.10481,11.1043 -18.08445,11.0599 -4.45572,-0.025 -7.58518,-1.1372 -22.97491,-8.1671 -10.90591,-4.9817 -18.54538,-7.9549 -19.69553,-7.6653 -1.20436,0.3032 -5.4146,6.2403 -11.72673,16.5365 -5.41627,8.8349 -11.40057,17.4766 -13.29844,19.2037 -3.46353,3.1519 -8.4905,5.1258 -13.07881,5.1356 -3.87891,0.01 -10.39259,-2.6441 -13.32087,-5.4241 -1.4731,-1.3985 -3.42275,-4.0199 -4.33256,-5.8253 -0.9098,-1.8054 -9.40212,-28.7285 -18.87182,-59.82902 -15.3725,-50.48659 -17.41127,-56.5171 -19.02448,-56.27293 -1.529,0.23143 -4.37798,8.71012 -18.52782,55.13963 -9.19655,30.17632 -17.39305,56.63542 -18.21444,58.79792 -0.8214,2.1625 -2.35184,5.0231 -3.40099,6.3569 -4.35394,5.5351 -14.89065,8.2929 -21.84046,5.7163 z m 9.72656,-13.6245 c 0.92701,-0.4961 2.15183,-2.0788 2.72182,-3.517 1.71275,-4.3218 34.06647,-111.11199 33.74815,-111.39283 -0.16199,-0.14293 -2.61579,-1.41989 -5.45288,-2.83768 -2.8371,-1.4178 -6.34329,-3.41383 -7.79153,-4.43562 -1.44825,-1.02179 -2.7602,-1.70624 -2.91545,-1.52101 -0.15526,0.18523 -7.96018,25.57092 -17.34429,56.41262 l -17.062,56.07582 2.92313,5.1091 c 1.60773,2.81 3.63381,5.5237 4.5024,6.0304 2.03253,1.1856 4.54406,1.2143 6.67065,0.076 z m 112.26613,-1.2082 c 1.02082,-1.1606 2.93476,-3.806 4.2532,-5.8785 l 2.39717,-3.7683 -14.88292,-48.75312 c -8.18561,-26.8142 -15.95829,-52.26805 -17.27261,-56.56408 l -2.38969,-7.81097 -2.52663,1.71473 c -1.38965,0.9431 -5.10915,2.99452 -8.26557,4.55869 l -5.73894,2.84396 17.11083,56.03927 c 9.58249,31.38342 17.84531,56.85092 18.78018,57.88392 2.23715,2.4721 6.2366,2.3476 8.53498,-0.2656 z m -189.59711,-24.9209 5.60463,-2.6403 16.55434,-54.21432 16.55434,-54.2144 -7.4086,-7.40859 c -4.42069,-4.42069 -7.57585,-6.92721 -7.82332,-6.21497 -0.22811,0.65649 -8.44845,27.59604 -18.26744,59.86566 -9.81898,32.2696 -17.8527,59.80822 -17.8527,61.19682 0,2.8627 2.9357,6.2778 5.39283,6.2734 0.90271,0 4.16338,-1.1911 7.24592,-2.6433 z m 69.78288,-54.04262 c 8.80323,-28.85755 15.89194,-52.58221 15.7527,-52.72145 -0.13923,-0.13924 -2.13267,0.31159 -4.42986,1.00184 -7.10918,2.13613 -15.39449,2.68253 -22.50085,1.48388 -3.65872,-0.61712 -6.82211,-0.95216 -7.02974,-0.74453 -0.4705,0.4705 -28.57435,92.54636 -28.57435,93.61736 0,0.4287 2.42677,-0.075 5.39282,-1.1192 4.74009,-1.6688 5.99012,-1.7653 10.32758,-0.7972 5.47876,1.2228 9.40667,4.0647 12.47103,9.02292 1.11912,1.8108 2.15853,3.1646 2.30979,3.0085 0.15126,-0.156 7.47766,-23.89452 16.28088,-52.75212 z m 145.6768,42.6094 c 2.93575,-1.6612 5.42566,-2.2733 9.18578,-2.2582 3.09672,0.012 6.41143,0.6852 8.29363,1.6832 1.7244,0.9143 3.28199,1.5157 3.46132,1.3363 0.17932,-0.1793 -6.11365,-21.4183 -13.98438,-47.1977 l -14.31041,-46.87169 -2.75019,0.26268 c -1.51261,0.14448 -6.97067,0.31056 -12.12902,0.36908 -6.32162,0.0717 -10.89316,-0.38485 -14.02447,-1.40064 -2.55511,-0.82887 -4.84293,-1.30976 -5.08405,-1.06864 -0.38445,0.38445 30.43615,102.89283 31.51263,104.81003 0.22956,0.4089 1.62886,-1.0856 3.10955,-3.321 1.48069,-2.23552 4.50452,-5.09002 6.71961,-6.34342 z M 258.5298,903.18535 c 3.0637,-1.40261 8.26902,-5.26054 12.74269,-9.44427 9.80123,-9.16601 12.01491,-9.65092 26.33547,-5.76893 7.88575,2.13766 16.88954,1.4767 23.9564,-1.75862 2.8176,-1.28994 7.43999,-4.53675 10.27199,-7.21513 5.57495,-5.27256 9.02478,-11.54695 10.68263,-19.42905 0.57503,-2.73391 1.67807,-6.19398 2.45119,-7.68905 2.21608,-4.28542 6.89462,-7.20718 15.00709,-9.37197 8.90471,-2.37619 13.58517,-4.94796 19.03463,-10.45891 5.05958,-5.11668 8.47311,-12.02005 9.81382,-19.84706 0.91246,-5.32693 0.78824,-7.10507 -1.00806,-14.42953 -2.27265,-9.26679 -2.54407,-13.87257 -1.04921,-17.80434 0.54975,-1.44596 3.63106,-5.37737 6.84736,-8.73647 3.21629,-3.35909 6.76648,-7.61912 7.88931,-9.46673 3.12064,-5.13499 5.20865,-14.51055 4.57492,-20.5423 -0.29891,-2.84502 -1.01691,-6.52683 -1.59555,-8.1818 -0.96813,-2.76893 -1.28909,-2.95603 -4.02208,-2.34471 -1.63349,0.36539 -8.66762,0.62664 -15.6314,0.58056 -10.16158,-0.0672 -13.84172,-0.47162 -18.63959,-2.04812 l -5.97818,-1.96434 0.64952,9.16142 c 1.23188,17.37571 -2.49599,38.20534 -9.83072,54.92971 -15.06932,34.36043 -46.71613,59.84569 -83.83546,67.5129 -7.66809,1.58389 -10.95703,1.01456 -12.67417,-2.19396 -0.5472,-1.02245 -0.99491,-2.80915 -0.99491,-3.97044 0,-2.53238 3.44515,-6.45282 5.67052,-6.45282 0.87561,0 5.63693,-1.02607 10.58072,-2.28017 15.71969,-3.98762 31.62749,-12.72263 44.46564,-24.41617 3.21793,-2.93103 8.57116,-8.95384 11.89607,-13.38403 14.75109,-19.6547 22.25088,-43.84059 20.87124,-67.30714 -0.30327,-5.15835 -1.05442,-11.82629 -1.66922,-14.81763 -0.99847,-4.85811 -1.6556,-5.89825 -6.15463,-9.74189 -10.47078,-8.94548 -19.57388,-24.34525 -22.5342,-38.12131 l -1.60954,-7.49008 -7.54572,-6.01299 c -9.6458,-7.68649 -25.30603,-15.44771 -37.55794,-18.61374 -11.62922,-3.00512 -29.31368,-4.00897 -40.86627,-2.31975 -34.10426,4.9867 -64.62109,27.89193 -79.19974,59.44551 -1.8113,3.92034 -4.44766,11.25698 -5.85857,16.30365 -2.37528,8.49612 -2.56433,10.46091 -2.55235,26.52658 0.0112,15.03324 0.29341,18.37523 2.11278,25.02014 5.19434,18.97135 15.11972,35.79681 28.95388,49.0825 4.5713,4.39007 10.74987,9.59044 13.73015,11.55637 11.61113,7.65923 28.19618,14.44568 39.39907,16.12173 5.88485,0.88043 8.48521,3.0305 8.48521,7.01588 0,2.22928 -0.73086,3.73689 -2.58452,5.33134 -2.9016,2.49585 -3.93795,2.44845 -16.95469,-0.77557 -14.22211,-3.52256 -28.69984,-10.42881 -40.84877,-19.48593 -12.96943,-9.6688 -27.27855,-26.73261 -34.61502,-41.27885 -3.47885,-6.89764 -7.82969,-19.36567 -10.00521,-28.67161 -1.37671,-5.88894 -1.74939,-11.13483 -1.73239,-24.38494 0.0184,-14.31555 0.34173,-18.16505 2.12719,-25.32282 4.25699,-17.06594 11.86917,-33.12662 21.80461,-46.00479 2.08951,-2.70839 7.5604,-8.55025 12.15754,-12.9819 13.06435,-12.59408 27.13974,-21.01564 44.54687,-26.65322 13.29248,-4.30498 20.23718,-5.32788 36.10847,-5.31848 15.71026,0.009 24.57175,1.37932 37.51529,5.80003 9.06345,3.09551 20.50327,8.81269 27.82657,13.90663 l 5.78633,4.02487 1.52457,-6.85261 c 2.30756,-10.37206 7.65053,-20.66616 16.66411,-32.10611 1.32011,-1.67547 -4.17256,-6.46453 -11.33107,-9.87955 -7.72451,-3.68504 -16.03723,-4.39228 -24.54193,-2.08801 -14.30521,3.87586 -16.52134,3.3897 -26.32005,-5.77395 -4.41616,-4.12994 -9.6854,-8.04459 -12.66344,-9.40799 -6.97855,-3.19488 -16.90838,-3.91149 -24.3249,-1.75545 -6.75115,1.96262 -14.08024,6.68332 -18.0549,11.62925 -3.56257,4.43315 -9.79174,7.6372 -14.81587,7.62072 -2.02943,-0.007 -6.36528,-0.85075 -9.63521,-1.87576 -3.26993,-1.02502 -8.18452,-1.86367 -10.92132,-1.86367 -6.70183,0 -15.92628,3.04376 -21.34677,7.04372 -7.91951,5.84406 -12.31178,13.63416 -15.188,26.93731 -0.66386,3.07048 -5.48019,8.77148 -8.87251,10.50223 -1.34197,0.68467 -4.64672,1.71185 -7.34389,2.28262 -11.47358,2.42802 -20.78845,9.48528 -25.70717,19.47661 -2.36028,4.79439 -3.090303,7.63952 -3.419542,13.32693 -0.318176,5.4963 0.0574,8.92755 1.565432,14.30187 1.09123,3.88889 1.98169,7.88787 1.97882,8.88664 -0.0147,5.10149 -2.24055,9.18616 -8.435733,15.48045 -3.721158,3.78069 -7.573668,8.83366 -9.090718,11.92343 -2.37752,4.84226 -2.63279,6.31702 -2.63279,15.20994 0,8.89292 0.25527,10.36768 2.63279,15.20994 1.51705,3.08977 5.36956,8.14274 9.090718,11.92343 6.195183,6.29429 8.421033,10.37896 8.435733,15.48045 0.003,0.99877 -0.88759,4.99775 -1.97882,8.88664 -5.063192,18.04414 1.53403,34.91195 16.84662,43.07347 3.01822,1.60869 7.76713,3.40748 10.55314,3.9973 6.55254,1.38723 9.31712,2.84658 12.70738,6.70787 1.89996,2.16394 3.43003,5.6745 4.90236,11.24784 3.63487,13.75947 12.12768,23.16482 24.36639,26.98452 7.5635,2.36056 14.31994,2.35952 21.85788,-0.003 3.26993,-1.02501 7.60578,-1.86911 9.63521,-1.87576 5.02413,-0.0165 11.2533,3.18757 14.81587,7.62072 3.70936,4.6158 11.07957,9.55561 17.15728,11.49948 6.88909,2.20339 18.45583,1.47221 25.14327,-1.5894 z m -53.30325,-96.94554 c -4.35267,-2.29467 -7.12186,-5.12968 -9.013,-9.22723 -0.9523,-2.06334 -1.74072,-5.26271 -1.75204,-7.1097 -0.0113,-1.84699 0.81708,-7.96667 1.84092,-13.59929 1.02384,-5.63262 1.86793,-11.30416 1.87576,-12.60343 0.0106,-1.76045 -2.40096,-4.74729 -9.46557,-11.72353 -5.21391,-5.14867 -10.2692,-11.04941 -11.23399,-13.11275 -4.63474,-9.91202 0.56605,-22.49361 10.60775,-25.66194 1.68957,-0.53309 7.92548,-1.64798 13.85759,-2.47753 5.9321,-0.82956 11.52416,-1.72423 12.42678,-1.98815 0.96272,-0.28149 4.39146,-5.90017 8.29428,-13.59186 5.57496,-10.98712 7.26458,-13.51664 10.42619,-15.60889 2.7944,-1.84924 5.28516,-2.59317 9.60277,-2.86809 4.52032,-0.28784 6.65498,0.0519 9.50396,1.51253 2.02084,1.03606 4.57992,2.87442 5.68686,4.08525 1.10693,1.21083 4.55003,7.28771 7.65133,13.50419 3.10129,6.21647 6.20506,11.74363 6.89727,12.28256 0.6922,0.53894 6.53414,1.69583 12.98208,2.57087 13.52351,1.83526 19.92892,4.40965 23.25761,9.34744 2.89882,4.30011 4.23281,9.52199 3.48215,13.63082 -1.03314,5.65505 -4.72841,10.79648 -13.56311,18.87106 -4.63471,4.23595 -8.64093,8.39359 -8.90271,9.2392 -0.26179,0.84561 0.52002,7.2969 1.73735,14.33619 2.37258,13.7197 2.2095,17.87289 -0.90912,23.15229 -0.97913,1.65754 -3.41644,4.1476 -5.41623,5.53346 -2.74218,1.90033 -5.06919,2.611 -9.46614,2.89098 -5.65512,0.36009 -6.18749,0.18526 -17.73294,-5.82364 -6.54653,-3.40717 -12.7749,-6.19487 -13.84083,-6.19487 -1.06592,0 -7.2951,2.74331 -13.84262,6.09624 -10.45953,5.35623 -12.52815,6.09167 -17.04164,6.05868 -2.82538,-0.0207 -6.4032,-0.70504 -7.95071,-1.52086 z m 21.16724,-18.13711 c 17.41576,-8.81889 18.11064,-8.81889 35.04074,1.2e-4 10.65601,5.55079 12.963,6.42866 14.92944,5.68102 1.27921,-0.48635 2.5676,-1.64704 2.86309,-2.5793 0.29548,-0.93226 -0.29867,-6.54856 -1.32036,-12.48067 -2.22047,-12.89254 -2.3418,-18.62667 -0.48803,-23.06339 0.77241,-1.84864 5.52015,-7.27047 10.76352,-12.29174 5.15982,-4.94127 9.63092,-9.76999 9.93578,-10.73049 0.92937,-2.9282 -0.44498,-5.33433 -3.60294,-6.30782 -1.65182,-0.50919 -6.80173,-1.4099 -11.44425,-2.00156 -12.42319,-1.58326 -17.39151,-3.19976 -20.78874,-6.76382 -1.6179,-1.69736 -5.50996,-8.23827 -8.64902,-14.53536 -8.71272,-17.47811 -10.66716,-17.5712 -19.00719,-0.90526 -3.14223,6.27915 -6.54106,12.58681 -7.55296,14.01704 -1.0119,1.43022 -3.40928,3.40109 -5.32751,4.3797 -1.94676,0.99316 -9.22516,2.64173 -16.47355,3.7313 -7.14221,1.07361 -13.5561,2.42528 -14.25308,3.00373 -0.69698,0.57844 -1.26723,2.13843 -1.26723,3.46664 0,1.81279 2.54851,4.99964 10.22095,12.78104 13.15181,13.3386 13.32946,13.86956 10.52892,31.46846 -1.10815,6.96378 -2.00974,13.58709 -2.00353,14.71847 0.006,1.13138 0.9493,2.71405 2.09575,3.51706 1.14645,0.803 2.25335,1.46 2.45979,1.46 0.20643,0 6.20962,-2.95433 13.34041,-6.56517 z m 172.97439,-71.43803 c 2.57917,-0.53397 8.24425,-2.66322 12.58905,-4.73168 6.20903,-2.95597 9.43712,-5.29831 15.08375,-10.94493 5.25589,-5.2559 8.10346,-9.06649 10.60943,-14.19744 1.88393,-3.85733 4.06475,-9.52877 4.84625,-12.60319 1.66304,-6.54235 1.85305,-18.94675 0.39855,-26.0175 -0.56231,-2.73352 -2.68205,-8.44665 -4.71054,-12.69584 -4.23506,-8.87142 -12.07324,-17.88271 -20.31051,-23.3503 -2.91103,-1.93223 -8.89882,-4.77339 -13.3062,-6.31368 -6.89263,-2.40885 -9.39079,-2.80471 -17.86119,-2.83032 -6.84028,-0.0207 -11.56633,0.48509 -15.47506,1.65611 -9.66409,2.89527 -18.24248,8.00961 -25.42266,15.15672 -4.99073,4.96773 -7.64572,8.62325 -10.56896,14.55185 -5.03575,10.21294 -7.04029,19.58322 -6.31476,29.51848 0.92449,12.65987 4.62431,22.3407 12.40971,32.47092 4.12433,5.3665 13.03444,12.72358 19.08684,15.76001 5.4557,2.73707 12.79472,4.84406 19.49426,5.59668 6.84828,0.76933 12.12499,0.49104 19.45204,-1.02589 z m -30.43817,-42.508 c -6.64982,-6.5797 -12.35346,-13.0105 -12.67476,-14.29066 -0.69882,-2.78432 1.51254,-6.57869 4.47996,-7.68697 1.13056,-0.42224 3.11068,-0.37767 4.40027,0.0991 1.28958,0.47672 5.9391,4.43094 10.33225,8.78717 l 7.98755,7.9204 13.10224,-13.12736 c 12.1371,-12.16037 13.35832,-13.12736 16.57868,-13.12736 2.52925,0 3.87423,0.56792 4.93644,2.08445 0.803,1.14644 1.46001,3.33809 1.46001,4.87033 0,2.35459 -2.50464,5.2975 -16.17847,19.00942 -12.49528,12.5301 -16.87911,16.36027 -19.25603,16.82409 -2.94519,0.57471 -3.59757,0.086 -15.16814,-11.36257 z"
       id="path8" /></g></svg>
