<?xml version="1.0" encoding="UTF-8" standalone="no"?>
<!-- Created with Inkscape (http://www.inkscape.org/) -->

<svg
   width="468.30258"
   height="311.05789"
   viewBox="0 0 468.30258 311.05789"
   version="1.1"
   id="svg1"
   xml:space="preserve"
   inkscape:export-filename="camioncito.svg"
   inkscape:export-xdpi="200"
   inkscape:export-ydpi="200"
   xmlns:inkscape="http://www.inkscape.org/namespaces/inkscape"
   xmlns:sodipodi="http://sodipodi.sourceforge.net/DTD/sodipodi-0.dtd"
   xmlns="http://www.w3.org/2000/svg"
   xmlns:svg="http://www.w3.org/2000/svg"><sodipodi:namedview
     id="namedview1"
     pagecolor="#ffffff"
     bordercolor="#999999"
     borderopacity="1"
     inkscape:showpageshadow="2"
     inkscape:pageopacity="0"
     inkscape:pagecheckerboard="0"
     inkscape:deskcolor="#d1d1d1"
     inkscape:document-units="px"><inkscape:page
       x="0"
       y="0"
       width="468.30258"
       height="311.05789"
       id="page2"
       margin="0"
       bleed="0" /></sodipodi:namedview><defs
     id="defs1" /><g
     inkscape:label="Capa 1"
     inkscape:groupmode="layer"
     id="layer1"
     transform="translate(-19.260614,-131.74086)"><path
       style="fill:#000000;stroke-width:1.0889"
       d="m 148.83916,442.11724 c -16.70592,-3.06898 -33.20858,-16.01748 -38.27669,-30.03309 l -1.36104,-3.76387 H 66.033134 c -40.43786,0 -43.282284,-0.12595 -44.970409,-1.99131 -1.656428,-1.83032 -1.802111,-12.87289 -1.802111,-136.59462 V 135.13104 l 2.420081,-1.6951 c 2.162034,-1.51435 18.479479,-1.69508 153.039285,-1.69508 h 150.61921 l 2.67274,2.67275 2.67275,2.67274 v 26.65893 26.65892 l 42.73914,0.40913 c 37.15222,0.35565 43.66437,0.66777 49.81696,2.38766 29.6834,8.29765 51.01532,28.84422 61.11274,58.86281 l 2.56392,7.62226 0.3282,72.27707 c 0.39444,86.86784 3.57615,76.35715 -23.1142,76.35715 h -19.74996 l -1.38015,5.17225 c -10.22875,38.33331 -66.66976,38.30491 -77.9908,-0.0392 l -1.35476,-4.5886 -79.36926,-0.27425 -79.36924,-0.27424 -1.9325,4.62982 c -8.26454,19.79997 -32.90233,33.07368 -54.14561,29.17118 z m 19.60011,-13.32999 c 25.57993,-7.48988 34.3163,-41.92515 15.6889,-61.83934 -22.789,-24.36329 -64.00735,-7.55651 -64.07814,26.12783 -0.0543,25.86573 23.25766,43.07012 48.38924,35.71151 z m 243.16437,-1.2955 c 21.25026,-6.39539 25.94425,-35.09999 7.80025,-47.69997 -14.53744,-10.09545 -31.88928,-6.69484 -40.14959,7.86847 -12.34772,21.76966 8.21922,47.09359 32.34934,39.8315 z M 107.04975,386.70284 c 7.89385,-58.95918 92.01839,-58.95918 99.91224,0 l 1.14482,8.55069 h 54.75556 54.75556 V 270.03057 144.8076 H 174.97264 32.327358 v 125.22297 125.22296 h 36.788787 36.788785 z m 257.96194,3.41768 c 11.16565,-37.85036 67.89261,-37.87891 77.98964,-0.0392 l 1.38015,5.17226 h 15.05804 15.05805 l -0.31158,-67.23933 -0.31157,-67.23929 -3.44104,-8.92363 C 455.6559,213.52895 434.9904,203.60795 369.94218,203.60795 h -39.2575 v 95.85116 95.85114 l 16.4867,-0.30057 16.48672,-0.30059 z m -5.39351,-79.33416 c -2.56495,-2.56494 -2.57975,-77.14242 -0.016,-80.80263 1.64047,-2.3421 2.30143,-2.42008 20.51483,-2.42008 32.3305,0 48.27002,6.6002 64.00099,26.50136 l 4.16738,5.27217 v 24.86903 c 0,21.15636 -0.25546,25.12449 -1.71113,26.58015 -2.58748,2.58749 -84.36858,2.58749 -86.95607,0 z m 76.44377,-28.43739 0.29887,-17.62623 -6.52598,-6.97629 c -11.83807,-12.65494 -23.54156,-17.11606 -44.90303,-17.11606 h -13.958 v 29.96083 29.96082 l 32.39463,-0.28842 32.39464,-0.28843 z"
       id="path1" /></g></svg>
