<?xml version="1.0" encoding="UTF-8" standalone="no"?>
<!-- Created with Inkscape (http://www.inkscape.org/) -->

<svg
   width="617.00293"
   height="555.51471"
   viewBox="0 0 617.00293 555.51471"
   version="1.1"
   id="svg1"
   xml:space="preserve"
   xmlns:inkscape="http://www.inkscape.org/namespaces/inkscape"
   xmlns:sodipodi="http://sodipodi.sourceforge.net/DTD/sodipodi-0.dtd"
   xmlns="http://www.w3.org/2000/svg"
   xmlns:svg="http://www.w3.org/2000/svg"><sodipodi:namedview
     id="namedview1"
     pagecolor="#ffffff"
     bordercolor="#999999"
     borderopacity="1"
     inkscape:showpageshadow="2"
     inkscape:pageopacity="0"
     inkscape:pagecheckerboard="0"
     inkscape:deskcolor="#d1d1d1"
     inkscape:document-units="px"><inkscape:page
       x="0"
       y="0"
       width="617.00293"
       height="555.51471"
       id="page2"
       margin="0"
       bleed="0" /><inkscape:page
       x="640.9491"
       y="-0.25723398"
       width="617.00293"
       height="555.51471"
       id="page3"
       margin="0"
       bleed="0" /><inkscape:page
       x="1281.4454"
       y="1.4992676"
       width="617.00293"
       height="555.51471"
       id="page4"
       margin="0"
       bleed="0" /></sodipodi:namedview><defs
     id="defs1" /><g
     inkscape:label="Capa 1"
     inkscape:groupmode="layer"
     id="layer1"
     transform="translate(223.57062,-40.178866)"><g
       id="g8"><path
         style="fill:#000000;stroke-width:1.18519"
         d="m -153.32079,571.63305 c -9.83885,-8.27884 -4.58827,-26.01812 7.701,-26.01812 5.19359,0 9.05088,1.61709 10.8929,4.56663 2.84242,4.55145 -1.2878,5.7627 -6.50282,1.90706 -5.99513,-4.43239 -12.04434,1.35024 -10.65491,10.18537 1.12035,7.12413 6.77436,9.70003 11.08408,5.04977 2.39458,-2.58381 7.36442,-2.96756 7.36442,-0.56865 0,7.19938 -13.26002,10.45222 -19.88467,4.87794 z m 24.32708,-11.58026 v -14.43786 h 3.33182 3.33181 v 12.21665 12.21664 h 7.21892 c 6.47853,0 7.21892,0.22782 7.21892,2.22121 0,2.06533 -0.74039,2.2212 -10.55073,2.2212 h -10.55074 z m 24.43329,0 v -14.43786 h 3.33181 3.331806 v 14.43786 14.43784 h -3.331806 -3.33181 z m 11.106036,0 v -14.43786 h 11.10603 c 10.36564,0 11.10604,0.14809 11.10604,2.22122 0,2.00966 -0.7404,2.2212 -7.77423,2.2212 h -7.77422 v 3.33181 3.33181 h 7.21893 c 6.47852,0 7.21892,0.22782 7.21892,2.22122 0,1.99338 -0.7404,2.2212 -7.21892,2.2212 h -7.21893 v 4.44241 4.44242 h 8.32953 c 7.58913,0 8.32952,0.19744 8.32952,2.22121 0,2.08018 -0.74039,2.2212 -11.66133,2.2212 h -11.66134 z m 26.65449,0 v -14.43786 h 3.30195 c 2.96669,0 3.84066,0.93035 8.607194,9.16249 l 5.305213,9.16248 0.32256,-9.16248 c 0.313518,-8.9053 0.399242,-9.16249 3.054166,-9.16249 h 2.731593 v 14.43786 14.43784 h -3.083629 c -2.660648,0 -3.765135,-1.15103 -8.051882,-8.39122 l -4.968245,-8.39122 -0.32437,8.39122 -0.32436,8.39122 h -3.2851 -3.28509 z m 35.53931,2.2212 v -12.21664 h -4.44241 c -3.702007,0 -4.442416,-0.3702 -4.442416,-2.2212 0,-2.08659 0.740409,-2.22122 12.216633,-2.22122 11.476241,0 12.216651,0.13463 12.216651,2.22122 0,1.851 -0.74041,2.2212 -4.442422,2.2212 h -4.44241 v 12.21664 12.21664 h -3.331819 -3.331807 z m 17.769662,-2.2212 v -14.43786 h 11.106037 c 10.365638,0 11.106036,0.14809 11.106036,2.22122 0,2.00966 -0.740398,2.2212 -7.77422902,2.2212 H -6.827295 v 3.33181 3.33181 h 7.21892098 c 6.47852402,0 7.21892202,0.22782 7.21892202,2.22122 0,1.99338 -0.740398,2.2212 -7.21892202,2.2212 H -6.827295 v 4.44241 4.44242 h 8.329524 c 7.589126,0 8.329524,0.19744 8.329524,2.22121 0,2.08018 -0.740398,2.2212 -11.661331,2.2212 h -11.661344 z m 28.699497,11.10069 c -3.853893,-3.85388 -3.678261,-5.95509 0.539497,-6.45439 2.118817,-0.25084 2.968512,0.15335 2.968512,1.41206 0,2.78584 4.975732,4.55664 8.408612,2.99251 4.463209,-2.03357 3.012198,-4.84811 -3.419417,-6.63263 -6.82967,-1.89497 -10.542219,-5.13303 -10.542219,-9.19485 0,-9.43763 18.978766,-10.34544 21.416267,-1.02442 0.801707,3.06575 -3.921331,3.08388 -6.978412,0.0268 -2.412351,-2.41234 -4.139796,-2.73043 -6.54781,-1.20569 -2.644589,1.67455 -0.529565,4.16963 4.637409,5.47069 6.942216,1.74806 10.054823,4.55424 10.054823,9.06494 0,8.75119 -13.646542,12.43571 -20.537262,5.54498 z m 38.871132,0 c -3.853893,-3.85388 -3.678261,-5.95509 0.539497,-6.45439 2.118817,-0.25084 2.968512,0.15335 2.968512,1.41206 0,2.78584 4.975732,4.55664 8.408612,2.99251 4.46321,-2.03357 3.012198,-4.84811 -3.419417,-6.63263 -6.829671,-1.89497 -10.542219,-5.13303 -10.542219,-9.19485 0,-9.43763 18.978754,-10.34544 21.416267,-1.02442 0.801708,3.06575 -3.921331,3.08388 -6.978412,0.0268 -2.412351,-2.41234 -4.139796,-2.73043 -6.54781,-1.20569 -2.6446,1.67455 -0.529565,4.16963 4.637409,5.47069 6.942216,1.74806 10.054823,4.55424 10.054823,9.06494 0,8.75119 -13.646542,12.43571 -20.537262,5.54498 z m 27.40467,-10.7809 c 2.738467,-7.76494 4.979038,-14.26198 4.979038,-14.43786 0,-0.17588 1.999089,-0.31979 4.44241,-0.31979 2.443332,0 4.442421,0.21724 4.442421,0.48275 0,0.26551 2.227711,6.76253 4.950474,14.43785 l 4.95049,13.9551 h -3.34236 c -2.715211,0 -3.560273,-0.62516 -4.503823,-3.33181 -1.07974,-3.09736 -1.548636,-3.3318 -6.663614,-3.3318 -5.114991,0 -5.583875,0.23444 -6.663627,3.3318 -0.928617,2.66383 -1.803924,3.33181 -4.365965,3.33181 h -3.204495 z m 29.412323,1.90141 v -12.21664 h -4.44242 c -3.70201,0 -4.44242,-0.3702 -4.44242,-2.2212 0,-2.08659 0.74041,-2.22122 12.21665,-2.22122 11.47624,0 12.21664,0.13463 12.21664,2.22122 0,1.851 -0.7404,2.2212 -4.44241,2.2212 h -4.44242 v 12.21664 12.21664 h -3.33181 -3.33181 z m 17.76965,-2.2212 v -14.43786 h 3.33182 3.33181 v 14.43786 14.43784 h -3.33181 -3.33182 z m 13.15105,11.10069 c -3.85389,-3.85388 -3.67826,-5.95509 0.5395,-6.45439 2.11882,-0.25084 2.96852,0.15335 2.96852,1.41206 0,2.78584 4.97573,4.55664 8.40861,2.99251 4.46321,-2.03357 3.0122,-4.84811 -3.41942,-6.63263 -6.82967,-1.89497 -10.54222,-5.13303 -10.54222,-9.19485 0,-9.43763 18.97876,-10.34544 21.41627,-1.02442 0.80171,3.06575 -3.92133,3.08388 -6.97841,0.0268 -2.41235,-2.41234 -4.1398,-2.73043 -6.54781,-1.20569 -2.6446,1.67455 -0.52957,4.16963 4.63741,5.47069 6.94221,1.74806 10.05482,4.55424 10.05482,9.06494 0,8.75119 -13.64654,12.43571 -20.53727,5.54498 z m 24.60949,-11.10069 v -14.43786 h 10.55074 c 9.81033,0 10.55073,0.15588 10.55073,2.22122 0,1.99339 -0.7404,2.2212 -7.21892,2.2212 h -7.21893 v 3.33181 c 0,3.29816 0.0618,3.33181 6.10832,3.33181 5.36791,0 6.10832,0.26924 6.10832,2.22122 0,1.95196 -0.74041,2.2212 -6.10832,2.2212 h -6.10832 v 6.66363 6.66361 h -3.33182 -3.3318 z m 24.43327,0 v -14.43786 h 11.10606 c 10.36562,0 11.10603,0.14809 11.10603,2.22122 0,2.00966 -0.74041,2.2212 -7.77423,2.2212 h -7.77423 v 3.33181 3.33181 h 7.21893 c 6.47852,0 7.21893,0.22782 7.21893,2.22122 0,1.99338 -0.74041,2.2212 -7.21893,2.2212 h -7.21893 v 4.44241 4.44242 h 8.32953 c 7.58913,0 8.32954,0.19744 8.32954,2.22121 0,2.08018 -0.74041,2.2212 -11.66135,2.2212 h -11.66135 z m 31.2031,11.58026 c -9.83883,-8.27884 -4.58827,-26.01812 7.701,-26.01812 5.19361,0 9.0509,1.61709 10.89292,4.56663 2.84242,4.55145 -1.2878,5.7627 -6.50284,1.90706 -5.99513,-4.43239 -12.04433,1.35024 -10.6549,10.18537 1.12035,7.12413 6.77436,9.70003 11.08407,5.04977 2.3946,-2.58381 7.36444,-2.96756 7.36444,-0.56865 0,7.19938 -13.26003,10.45222 -19.88469,4.87794 z m 24.3271,-11.58026 v -14.43786 h 3.33181 c 3.25777,0 3.33182,0.1234 3.33182,5.55303 v 5.55301 h 5.55301 5.55302 v -5.55301 c 0,-5.18282 0.18511,-5.55303 2.7765,-5.55303 h 2.77652 v 14.43786 14.43784 h -2.77652 c -2.6531,0 -2.7765,-0.29615 -2.7765,-6.66361 v -6.66363 h -5.55302 -5.55301 v 6.66363 6.66361 h -3.33182 -3.33181 z m 32.89326,11.07158 c -10.08746,-8.8569 -3.94383,-25.50944 9.4112,-25.50944 10.68034,0 17.49347,11.33611 12.78129,21.2663 -3.87974,8.17594 -15.23955,10.3479 -22.19249,4.24314 z m 14.35789,-3.80218 c 7.75623,-7.75625 -1.26888,-21.92451 -9.64524,-15.14175 -2.14439,1.73641 -2.62189,3.17015 -2.62189,7.87235 0,9.11842 6.5416,12.99492 12.26713,7.2694 z m 15.87706,3.83129 c -3.8539,-3.85388 -3.67826,-5.95509 0.53951,-6.45439 2.11881,-0.25084 2.96851,0.15335 2.96851,1.41206 0,2.78584 4.97572,4.55664 8.4086,2.99251 4.46322,-2.03357 3.01221,-4.84811 -3.41941,-6.63263 -6.82967,-1.89497 -10.54222,-5.13303 -10.54222,-9.19485 0,-9.43763 18.97876,-10.34544 21.41626,-1.02442 0.80172,3.06575 -3.92133,3.08388 -6.97841,0.0268 -2.41234,-2.41234 -4.13979,-2.73043 -6.5478,-1.20569 -2.6446,1.67455 -0.52956,4.16963 4.63741,5.47069 6.94221,1.74806 10.05482,4.55424 10.05482,9.06494 0,8.75119 -13.64655,12.43571 -20.53727,5.54498 z M 5.944639,487.6175 c -12.906204,-4.57583 -14.437844,-9.20683 -14.437844,-43.65357 0,-27.59932 0.02003,-27.83466 2.825792,-33.28577 8.688541,-16.88008 39.779471,-15.59512 47.109018,1.94696 2.754278,6.59192 2.441708,57.43981 -0.390827,63.57709 -5.04548,10.93206 -21.436427,16.26184 -35.106139,11.41529 z m 13.660432,-12.19272 c 2.171747,-2.17176 1.872902,-61.2514 -0.31904,-63.07055 -4.677918,-3.88232 -5.011857,-1.78874 -5.011857,31.42051 0,17.32608 0.33318,31.83514 0.740398,32.24236 1.13753,1.13753 3.115914,0.88227 4.590499,-0.59232 z M 65.91724,487.6175 c -12.906203,-4.57583 -14.437843,-9.20683 -14.437843,-43.65357 0,-27.59932 0.02003,-27.83466 2.825792,-33.28577 8.688541,-16.88008 39.77947,-15.59512 47.109021,1.94696 2.75427,6.59192 2.4417,57.43981 -0.39083,63.57709 -5.04548,10.93206 -21.436439,16.26184 -35.10614,11.41529 z m 13.660433,-12.19272 c 2.171747,-2.17176 1.872902,-61.2514 -0.319041,-63.07055 -4.677918,-3.88232 -5.011856,-1.78874 -5.011856,31.42051 0,17.32608 0.33318,31.83514 0.740398,32.24236 1.13753,1.13753 3.115914,0.88227 4.590499,-0.59232 z m 45.201567,12.19272 c -12.9062,-4.57583 -14.43784,-9.20683 -14.43784,-43.65357 0,-27.59932 0.02,-27.83466 2.82579,-33.28577 8.68854,-16.88008 39.77947,-15.59512 47.10902,1.94696 2.75428,6.59192 2.44171,57.43981 -0.39083,63.57709 -5.04547,10.93206 -21.43643,16.26184 -35.10614,11.41529 z m 13.66043,-12.19272 c 2.17175,-2.17176 1.8729,-61.2514 -0.31904,-63.07055 -4.67792,-3.88232 -5.01186,-1.78874 -5.01186,31.42051 0,17.32608 0.33318,31.83514 0.7404,32.24236 1.13753,1.13753 3.11592,0.88227 4.5905,-0.59232 z M -39.034808,458.08951 c 0,-34.33807 0.273043,-33.31881 -9.18716,-34.29519 l -6.361286,-0.65655 v -4.66654 c 0,-4.52846 0.139675,-4.70827 4.720064,-6.07668 6.555715,-1.95854 12.318552,-5.03108 16.774788,-8.94371 3.244803,-2.84897 4.680218,-3.32499 10.026308,-3.32499 h 6.239365 v 43.86885 43.86885 h -11.106048 -11.106031 z m 227.673768,2.00894 v -9.99543 h -9.44013 -9.44014 v -6.66363 -6.66361 h 9.44014 9.44013 v -9.99544 -9.99543 h 7.21892 7.21894 v 9.99543 9.99544 h 9.44013 9.44013 v 6.66361 6.66363 h -9.44013 -9.44013 v 9.99543 9.99544 h -7.21894 -7.21892 z M -41.533666,310.07596 c -1.753495,-1.01948 -1.945163,-3.43243 -1.959966,-24.67514 -0.02264,-32.48367 -1.723119,-38.91288 -14.888332,-56.29035 -6.3237,-8.34699 -7.22043,-10.7663 -4.86401,-13.12272 2.68234,-2.68234 5.09884,-1.15521 11.291534,7.13578 15.460292,20.69879 16.520389,24.21512 17.034191,56.50181 0.467177,29.35693 -0.537565,33.98313 -6.613417,30.45062 z m 106.48063,-0.48264 c -2.345851,-2.34585 -3.023363,-9.99022 -2.75448,-31.07858 0.327053,-25.65087 -1.65894,-32.08086 -16.985116,-54.992 -3.888086,-5.81232 -8.283859,-13.62579 -9.768376,-17.36325 l -2.699131,-6.7954 -4.757515,9.58902 c -2.61663,5.27398 -8.836772,15.08652 -13.822518,21.80568 -4.985747,6.71915 -10.869023,15.96492 -13.073943,20.54616 l -4.00894,8.32952 -0.565251,23.87798 c -0.578382,24.43335 -0.936131,26.6545 -4.293017,26.6545 -4.252436,0 -4.598996,-1.92643 -4.598996,-25.56443 0,-30.90331 1.321269,-35.22635 17.130088,-56.04803 10.645212,-14.0207 17.750083,-28.07539 21.026329,-41.59374 4.028377,-16.62181 8.279249,-16.86454 12.565652,-0.71754 3.354456,12.63632 9.532879,25.71758 18.600656,39.38222 13.236882,19.94725 15.036066,26.81932 15.063871,57.53707 0.02276,25.09688 -1.751267,31.73886 -7.059313,26.43082 z m 114.204016,0.12067 c -1.71728,-1.2557 -1.96169,-4.15407 -2.22072,-26.33448 -0.37522,-32.12898 -1.69113,-36.97116 -14.70765,-54.11949 -4.94121,-6.50969 -5.96199,-8.53351 -5.04143,-9.99543 3.12596,-4.96428 8.14584,-1.50783 17.00992,11.71224 9.88447,14.74187 10.4164,17.05746 10.8852,47.38376 0.49549,32.05327 -0.16786,35.56336 -5.92532,31.3534 z m 30.0899,-0.59605 c -3.4202,-3.77929 -2.05526,-52.22931 1.77225,-62.90742 5.49365,-15.3264 18.97438,-33.79588 23.06821,-31.60493 3.4786,1.86169 2.98555,3.38216 -5.47731,16.89095 -11.04107,17.62425 -11.33544,18.8378 -12.10556,49.9059 -0.73351,29.59091 -1.81673,33.72758 -7.25759,27.7155 z m -108.70983,0.30861 c -1.190481,-1.1905 -0.850617,-50.57359 0.3932,-57.13224 1.76634,-9.31385 6.57804,-18.18225 17.71027,-32.64156 9.38822,-12.19408 17.56188,-25.60297 16.34723,-26.81762 -0.2715,-0.27152 -4.2641,4.68011 -8.87242,11.0036 -25.45599,34.93043 -53.748339,40.63171 -70.681734,14.24331 -7.09104,-11.05042 -2.852945,-14.27643 6.301303,-4.79651 20.666293,21.40146 37.294538,15.79941 61.626821,-20.76209 10.73896,-16.13628 18.09461,-21.77872 22.18406,-17.01719 6.38812,7.43799 -0.87042,25.32241 -20.87736,51.44002 -15.00798,19.59181 -17.18108,27.27703 -16.30885,57.67679 0.66338,23.12085 -1.77467,30.85133 -7.82252,24.80349 z M -31.815879,230.85057 c -7.043972,-3.14414 -11.661339,-10.43635 -11.661339,-18.41675 0,-18.5761 21.883475,-26.8905 34.113624,-12.96112 13.505979,15.38245 -3.873378,39.67071 -22.452285,31.37787 z m 13.277487,-8.0006 c 5.314611,-2.03941 6.609475,-12.8318 2.172233,-18.10517 -6.712231,-7.97702 -18.226232,-2.98533 -18.226232,7.90168 0,8.79602 7.424599,13.5149 16.053999,10.20349 z m 204.377582,6.87645 c -6.0108,-3.60358 -9.89077,-10.62747 -9.85909,-17.8479 0.10395,-23.70506 34.51585,-26.33525 38.89861,-2.97313 3.08284,16.43292 -14.87834,29.31091 -29.03952,20.82103 z m 17.6942,-9.60359 c 8.21588,-9.764 -2.50134,-23.72264 -13.63783,-17.76259 -3.05372,1.63432 -5.69901,6.83969 -5.69901,11.21446 0,9.15907 13.33902,13.67613 19.33684,6.54813 z M 77.552391,215.22181 c -16.688808,-5.30823 -21.674235,-25.32145 -9.697241,-38.92803 10.477165,-11.90269 29.082324,-9.32043 36.33584,5.04313 9.60113,19.01237 -7.001273,40.131 -26.638599,33.8849 z m 15.468458,-11.1986 c 10.193941,-8.57763 4.041828,-26.12424 -9.108547,-25.97876 -10.217147,0.11307 -16.433437,12.30655 -11.317474,22.19973 3.582569,6.92793 14.322383,8.91491 20.426021,3.77903 z m -126.159443,-38.5124 c -0.494176,-0.76354 -0.898502,-5.92369 -0.898502,-11.46698 V 143.9651 l -4.643021,-6.02776 c -9.502337,-12.3363 -8.007782,-17.64595 4.975833,-17.67743 5.199934,-0.0126 9.192494,-3.25321 12.076455,-9.80193 5.983732,-13.587543 13.689374,-13.66202 18.140389,-0.17532 2.155877,6.53237 6.670168,9.96706 13.126754,9.98743 11.149213,0.0352 13.822578,4.54349 7.297938,12.30716 -6.85789,8.16022 -8.619124,13.37397 -7.856872,23.25868 0.943575,12.23589 -1.298193,13.82408 -10.243919,7.25732 -8.670443,-6.36469 -16.83269,-5.99684 -23.459682,1.05726 -2.766557,2.94486 -7.047236,3.62869 -8.515373,1.3603 z m 21.383342,-17.492 c 3.494474,0 5.662144,0.76118 8.164914,2.86712 l 3.40737398,2.86711 -0.664605,-3.323 c -0.84859298,-4.243 1.027426,-9.9039 5.18349502,-15.64118 4.061823,-5.60718 4.132709,-5.22921 -1.138822,-6.07216 -4.754801,-0.76033 -11.04584,-5.53392 -14.0944,-10.69472 l -1.827296,-3.09336 -2.326722,4.59714 c -2.813952,5.55981 -8.546769,9.61278 -13.597001,9.61278 -4.459299,0 -4.567506,0.64484 -0.934579,5.56899 3.124957,4.23564 4.970482,9.87678 4.979738,15.22136 l 0.0059,3.57599 4.042101,-2.74303 c 2.742379,-1.86104 5.571845,-2.74304 8.799616,-2.74304 z m 174.003462,17.58914 c -0.89215,-0.89213 -1.09145,-4.40983 -0.64497,-11.38369 l 0.64615,-10.09257 -4.02529,-5.55302 c -9.33794,-12.882 -9.34137,-16.01583 -0.0192,-17.56259 9.60804,-1.59422 12.83255,-3.86276 16.72082,-11.7636 5.94196,-12.073978 10.43925,-12.119548 16.45857,-0.16677 4.70367,9.34024 7.08395,11.168 14.54404,11.168 10.22436,0 12.25198,5.98738 4.99968,14.76366 -5.85223,7.08202 -7.19307,11.56456 -6.30796,21.08803 1.02036,10.97869 -1.65297,13.50518 -8.6573,8.18177 -9.74849,-7.40901 -12.47204,-7.64411 -21.20631,-1.83052 -6.84354,4.5551 -10.24696,5.41255 -12.50821,3.1513 z m 19.72711,-17.28575 c 3.12159,-0.4187 5.59893,0.0751 8.83281,1.76074 l 4.49446,2.34263 v -3.14826 c 0,-4.45642 2.05503,-9.93602 5.78252,-15.41871 l 3.20901,-4.72006 h -2.86553 c -6.42328,0 -12.78771,-4.49945 -16.4086,-11.60034 l -1.66785,-3.2708 -2.24622,4.3814 c -3.21326,6.26767 -7.09782,9.46742 -12.34866,10.17171 -5.23639,0.70235 -5.22251,0.67687 -2.50025,4.589 2.95741,4.25005 4.61229,9.77769 4.61229,15.40595 v 4.90761 l 3.38382,-2.40948 c 1.8611,-1.32523 5.33609,-2.67135 7.7222,-2.99139 z m -123.837097,1.91251 c -1.829584,-2.02166 -1.891486,-2.91736 -0.672877,-9.73633 2.17759,-12.18502 0.795082,-16.58509 -10.083114,-32.09126 -6.774821,-9.657097 -4.425402,-14.669024 7.893541,-16.838957 10.880164,-1.916506 13.143988,-3.78065 19.157848,-15.775522 9.724915,-19.396739 12.901688,-19.301253 24.109176,0.724664 6.929513,12.381889 6.996013,12.43834 17.020853,14.448546 14.39492,2.886497 15.59263,6.455816 6.61492,19.713469 -8.64877,12.77193 -9.02486,13.48484 -9.19249,17.4253 -0.0891,2.09574 0.21876,7.58313 0.68424,12.1942 1.25672,12.44881 -2.66831,15.38353 -12.01366,8.98256 -14.559976,-9.97265 -17.417484,-9.99192 -31.852305,-0.21477 -5.832088,3.95024 -8.87279,4.25471 -11.666132,1.1681 z m 22.439368,-20.37626 c 5.180306,-2.66792 7.15946,-2.31767 14.380954,2.54497 l 6.498015,4.37547 0.60252,-8.13738 c 0.63152,-8.52936 1.0712,-9.45366 10.46155,-21.99269 l 3.95067,-5.27537 h -4.48888 c -9.08166,0 -16.82442,-6.090902 -22.84436,-17.970663 l -2.956198,-5.833771 -3.078213,6.45757 c -5.338351,11.198966 -12.967952,17.346864 -21.527604,17.346864 -5.549788,0 -5.540152,0.95718 0.09007,8.94289 6.712562,9.52095 8.423047,13.77914 8.366679,20.82845 l -0.04717,5.89336 3.51883,-2.6746 c 1.935361,-1.47103 5.118274,-3.49832 7.073143,-4.5051 z"
         id="path4" /><path
         style="fill:#ffffff;stroke-width:19.1433;stroke-dasharray:459.439, 19.1433"
         d="m 91.05288,549.07088 6.62e-4,-0.004 4.739059,13.1756 -9.630279,-0.0274 z"
         id="path7"
         sodipodi:nodetypes="ccccc" /></g><g
       id="g9"><path
         style="fill:#000000;stroke-width:1.22313"
         d="m 550.23828,559.40956 v -14.72895 h 3.39898 c 3.32347,0 3.399,0.1259 3.399,5.66498 v 5.66499 h 5.66496 5.66498 v -5.66499 c 0,-5.28731 0.18884,-5.66498 2.83249,-5.66498 h 2.83249 v 14.72895 14.72894 h -2.83249 c -2.70659,0 -2.83249,-0.30214 -2.83249,-6.79798 v -6.79796 h -5.66498 -5.66496 v 6.79796 6.79798 h -3.399 -3.39898 z m 33.23661,12.02321 c -3.0054,-2.58515 -3.16545,-3.24163 -3.59067,-14.72895 l -0.44507,-12.02321 h 3.52749 3.52748 v 10.68254 c 0,11.28845 1.17526,14.24336 5.66499,14.24336 4.48972,0 5.66498,-2.95491 5.66498,-14.24336 0,-10.63937 0.011,-10.68254 2.83249,-10.68254 h 2.83249 v 11.94795 c 0,16.92949 -9.43226,23.90639 -20.01418,14.80421 z m 25.67914,-12.02321 v -14.72895 h 11.32996 c 10.57463,0 11.32995,0.15107 11.32995,2.266 0,2.05019 -0.75532,2.26599 -7.93096,2.26599 h -7.93097 v 3.39898 3.399 h 7.36447 c 6.60914,0 7.36447,0.2324 7.36447,2.26598 0,2.03359 -0.75533,2.266 -7.36447,2.266 h -7.36447 v 4.53197 4.53198 h 8.49747 c 7.74212,0 8.49745,0.20142 8.49745,2.26599 0,2.12212 -0.75533,2.266 -11.89644,2.266 h -11.89646 z m 34.53131,13.31268 c -2.78277,-7.57283 -9.60541,-27.12458 -9.60541,-27.52644 0,-0.28336 1.49792,-0.51519 3.32872,-0.51519 3.17588,0 3.47269,0.44212 6.465,9.63046 1.72496,5.29675 3.43596,9.63046 3.80222,9.63046 0.36627,0 2.07727,-4.33371 3.80223,-9.63046 2.99232,-9.18834 3.28912,-9.63046 6.46501,-9.63046 4.08386,0 4.29348,-1.68545 -1.89091,15.20357 -5.2172,14.24769 -10.01763,19.23104 -12.36686,12.83806 z m 23.95102,-2.01787 c -10.29082,-9.03547 -4.02332,-26.02376 9.60096,-26.02376 10.89566,0 17.84617,11.56466 13.03898,21.69506 -3.95797,8.34078 -15.54681,10.55654 -22.63994,4.3287 z m 14.64737,-3.87884 c 7.91263,-7.91263 -1.29445,-22.36656 -9.83969,-15.44705 -3.87927,3.14125 -3.87927,12.9209 0,16.06214 3.59204,2.90865 6.49756,2.72702 9.83969,-0.61509 z m 15.06414,3.90853 c -3.93151,-3.93159 -3.75232,-6.07515 0.5504,-6.58453 2.16152,-0.25589 3.02835,0.15644 3.02835,1.44054 0,2.842 5.07611,4.6485 8.57818,3.05284 4.55323,-2.07457 3.07299,-4.94585 -3.48837,-6.76635 -6.96732,-1.93317 -10.75473,-5.23651 -10.75473,-9.38025 0,-9.6279 19.36141,-10.55401 21.84803,-1.04505 0.81791,3.12755 -4.00036,3.14605 -7.1191,0.0273 -2.46094,-2.46098 -4.22323,-2.78548 -6.67988,-1.23 -2.69786,1.70831 -0.54014,4.25369 4.73094,5.58099 7.08217,1.7833 10.25754,4.64606 10.25754,9.2477 0,8.92764 -13.92167,12.68643 -20.95136,5.65678 z m 36.43569,-11.3245 v -14.72895 h 8.57194 c 12.73522,0 16.35398,3.25915 16.35398,14.72895 0,11.4698 -3.61876,14.72894 -16.35398,14.72894 h -8.57194 z m 15.59931,9.2502 c 7.0462,-4.47237 2.69211,-19.44716 -5.65453,-19.44716 h -3.14687 v 10.19696 10.19695 l 3.68223,-0.0173 c 2.02527,-0.01 4.32891,-0.42778 5.11917,-0.92941 z m 13.85855,-9.2502 v -14.72895 h 3.39896 3.39895 v 14.72895 14.72894 h -3.39895 -3.39896 z m 14.18146,0.32623 c 2.79375,-7.9215 5.07941,-14.54951 5.07941,-14.72894 0,-0.17943 2.03945,-0.32624 4.53206,-0.32624 2.4925,0 4.53194,0.22162 4.53194,0.49249 0,0.27085 2.27258,6.89888 5.0503,14.72893 l 5.05031,14.23647 h -3.40972 c -2.77002,0 -3.63208,-0.63776 -4.59469,-3.399 -1.10155,-3.1598 -1.57979,-3.39898 -6.79791,-3.39898 -5.21811,0 -5.69648,0.23918 -6.79803,3.39898 -0.94731,2.71754 -1.84032,3.399 -4.45403,3.399 h -3.26906 z m 26.60638,-0.32623 v -14.72895 h 9.99945 c 8.98744,0 10.24872,0.26541 12.46295,2.62227 3.95059,4.20524 2.06942,13.23968 -2.75693,13.23968 -1.28698,0 -1.03599,0.88278 1.04737,3.68223 1.50702,2.02523 3.63111,5.08432 4.71993,6.79797 l 1.97976,3.11574 h -3.97774 c -3.52359,0 -4.38528,-0.63521 -7.5483,-5.56429 -3.28533,-5.11982 -5.37088,-6.89866 -8.08819,-6.89866 -0.57219,0 -1.04039,2.80416 -1.04039,6.23147 0,6.16854 -0.0342,6.23148 -3.39896,6.23148 h -3.39895 z m 30.59084,0 v -14.72895 h 3.39896 3.39907 v 14.72895 14.72894 h -3.39907 -3.39896 z m 15.42856,11.29481 c -10.29093,-9.03547 -4.02336,-26.02376 9.60096,-26.02376 10.89564,0 17.84607,11.56466 13.03893,21.69506 -3.95793,8.34078 -15.54684,10.55654 -22.63989,4.3287 z m 14.64734,-3.87884 c 7.91255,-7.91263 -1.29443,-22.36656 -9.83971,-15.44705 -2.18756,1.77144 -2.67473,3.23407 -2.67473,8.03108 0,9.30227 6.67351,13.25692 12.51444,7.41597 z m 15.06419,3.90853 c -3.93162,-3.93159 -3.75243,-6.07515 0.55041,-6.58453 2.16152,-0.25589 3.02835,0.15644 3.02835,1.44054 0,2.842 5.07599,4.6485 8.57806,3.05284 4.55322,-2.07457 3.07299,-4.94585 -3.48837,-6.76635 -6.96732,-1.93317 -10.75474,-5.23651 -10.75474,-9.38025 0,-9.6279 19.36141,-10.55401 21.84804,-1.04505 0.8179,3.12755 -4.00037,3.14605 -7.11911,0.0273 -2.46093,-2.46098 -4.22321,-2.78548 -6.67976,-1.23 -2.69797,1.70831 -0.54025,4.25369 4.73083,5.58099 7.08228,1.7833 10.25766,4.64606 10.25766,9.2477 0,8.92764 -13.9218,12.68643 -20.95137,5.65678 z M 648.80887,455.39054 c 0,-35.03039 0.27855,-33.99058 -9.37239,-34.98665 l -6.48955,-0.66977 v -4.76063 c 0,-4.61977 0.1425,-4.80321 4.81523,-6.1992 6.6879,-1.99803 12.56693,-5.13252 17.11301,-9.12402 3.31022,-2.90642 4.77457,-3.39204 10.22846,-3.39204 h 6.36514 v 44.75332 44.75331 h -11.32994 -11.32996 z m 31.72387,-14.37899 v -44.75332 h 15.15326 15.15335 l 1.78675,11.6132 c 0.98279,6.38726 2.13363,14.30135 2.55757,17.58686 1.26924,9.83897 2.19698,7.77719 4.37526,-9.72325 1.13934,-9.15437 2.31135,-17.28164 2.60428,-18.06056 0.38969,-1.03598 4.60716,-1.41625 15.70707,-1.41625 h 15.17415 v 44.75332 44.75331 h -10.76342 -10.76342 l -0.13296,-26.34214 -0.13295,-26.34214 -2.03492,15.29544 c -1.11917,8.41248 -2.64624,20.26645 -3.39345,26.34214 l -1.35866,11.0467 h -7.62608 -7.6261 l -2.60196,-19.54416 c -4.12122,-30.95618 -4.26653,-31.48651 -4.42345,-16.14519 -0.077,7.47777 -0.46834,18.56696 -0.87063,24.64265 l -0.73155,11.0467 h -10.02606 -10.02608 z m 98.57059,16.42843 v -10.19696 h -9.63044 -9.63042 v -6.79798 -6.79797 h 9.63042 9.63044 v -10.19695 -10.19697 h 7.36447 7.36446 v 10.19697 10.19695 h 9.63044 9.63055 v 6.79797 6.79798 h -9.63055 -9.63044 v 10.19696 10.19696 h -7.36446 -7.36447 z m -65.014,-162.17301 C 629.74609,284.43954 609.63258,167.44337 678.01672,85.439772 718.57369,36.805364 777.15391,60.242647 803.3832,135.59753 c 30.38413,87.29132 -15.39786,169.15573 -89.29387,159.66944 z m 25.88535,-11.72904 c 57.33678,-10.21548 80.57955,-92.23103 45.91874,-162.03105 -34.14869,-68.768685 -87.68716,-67.27556 -121.87638,3.39897 -33.65611,69.57256 -12.22493,148.03369 43.14106,157.94277 15.26136,2.73139 20.71224,2.84589 32.81658,0.68931 z m 7.03568,-16.62521 c -3.79989,-2.12653 -2.10733,-5.83695 5.46678,-11.98472 8.73718,-7.09162 15.5806,-15.60571 20.93155,-26.04162 6.26242,-12.21339 9.94942,-14.84314 12.61328,-8.99657 4.67602,10.26285 -30.0035,52.06409 -39.01161,47.02291 z M 676.85051,155.97247 c -7.71142,-4.49148 27.15839,-61.090991 37.63695,-61.090991 6.67927,0 5.73012,4.888532 -2.86004,14.728941 -9.85843,11.29334 -19.22155,25.39916 -23.70436,35.71117 -5.19518,11.95072 -6.57012,13.27331 -11.07255,10.65088 z"
         id="path5" /><path
         style="fill:#ffffff;stroke-width:19.1433;stroke-dasharray:459.439, 19.1433"
         d="m 787.06994,549.05787 6.6e-4,-0.004 4.73906,13.1756 -9.63028,-0.0274 z"
         id="path7-6"
         sodipodi:nodetypes="ccccc" /><path
         style="fill:#ffffff;stroke-width:19.1433;stroke-dasharray:459.439, 19.1433"
         d="m 809.15349,548.8342 0.0254,8.71967 h 10.875 c 2.78609,-0.37204 2.94033,-9.01068 -0.67678,-8.60539 z"
         id="path8"
         sodipodi:nodetypes="ccccc" /></g><g
       id="g10"><path
         style="fill:#000000;stroke-width:1.19378"
         d="m 1135.3654,561.30691 c 2.7584,-7.82122 5.0153,-14.36538 5.0153,-14.54253 0,-0.17716 2.0135,-0.3221 4.4747,-0.3221 2.4609,0 4.4745,0.2188 4.4745,0.48625 0,0.26743 2.2439,6.81156 4.9864,14.54253 l 4.9864,14.0563 h -3.3666 c -2.7349,0 -3.5861,-0.62969 -4.5364,-3.35596 -1.0877,-3.11982 -1.5599,-3.35599 -6.7121,-3.35599 -5.152,0 -5.6244,0.23617 -6.7119,3.35599 -0.9353,2.68314 -1.8171,3.35596 -4.3977,3.35596 h -3.2277 z m 27.3884,-0.32209 v -14.54254 l 3.0762,0.018 c 2.6853,0.0157 3.7163,1.17474 8.1104,9.11756 l 5.0338,9.09959 0.325,-9.11756 0.325,-9.11754 h 3.3106 3.3108 v 14.54254 14.54254 l -3.6356,-0.0136 c -3.3504,-0.0127 -4.0307,-0.69302 -8.6696,-8.6696 l -5.0339,-8.65588 -0.3268,8.66961 c -0.3155,8.37361 -0.4206,8.66958 -3.0763,8.66958 h -2.7496 z m 32.0132,11.15188 c -10.1607,-8.92112 -3.9725,-25.69442 9.4793,-25.69442 10.7578,0 17.6204,11.4183 12.874,21.4205 -3.9079,8.23523 -15.3501,10.42296 -22.3533,4.27392 z m 14.4618,-3.82976 c 7.8127,-7.81249 -1.278,-22.0835 -9.715,-15.25156 -3.8302,3.1015 -3.8302,12.7574 0,15.85889 3.5466,2.87184 6.4154,2.69249 9.715,-0.60733 z m 14.8736,3.85908 c -3.8818,-3.88184 -3.7048,-5.99827 0.5435,-6.50121 2.1342,-0.25265 2.99,0.15447 2.99,1.4223 0,2.80606 5.0119,4.58969 8.4696,3.01423 4.4956,-2.04834 3.034,-4.88328 -3.4442,-6.68073 -6.8792,-1.90872 -10.6186,-5.17025 -10.6186,-9.26154 0,-9.50607 19.1163,-10.42048 21.5715,-1.03184 0.8076,3.08797 -3.9497,3.10624 -7.029,0.027 -2.4298,-2.42985 -4.1698,-2.75024 -6.5953,-1.21444 -2.6638,1.6867 -0.5334,4.19987 4.671,5.51037 6.9926,1.76074 10.1277,4.58727 10.1277,9.13068 0,8.81465 -13.7454,12.52587 -20.6862,5.58519 z m 35.9746,-11.1812 v -14.54254 h 8.4634 c 12.5741,0 16.147,3.21788 16.147,14.54254 0,11.32465 -3.5729,14.54254 -16.147,14.54254 h -8.4634 z m 15.4019,9.13315 c 6.9571,-4.41577 2.6581,-19.20106 -5.5829,-19.20106 h -3.1071 v 10.06791 10.06793 l 3.6357,-0.0172 c 1.9996,-0.01 4.2741,-0.42235 5.0543,-0.91765 z m 13.6831,-9.13315 v -14.54254 h 11.1866 c 10.4408,0 11.1865,0.14915 11.1865,2.2373 0,2.02425 -0.7457,2.23733 -7.8305,2.23733 h -7.8305 v 3.35597 3.35597 h 7.2712 c 6.5255,0 7.2714,0.22946 7.2714,2.23732 0,2.00785 -0.7459,2.23732 -7.2714,2.23732 h -7.2712 v 4.47462 4.47464 h 8.39 c 7.644,0 8.3897,0.19886 8.3897,2.23731 0,2.09526 -0.7457,2.2373 -11.7457,2.2373 h -11.7461 z m 38.0344,0 v -14.54254 h 11.1867 c 10.4407,0 11.1865,0.14915 11.1865,2.2373 0,2.02425 -0.7458,2.23733 -7.8305,2.23733 h -7.8306 v 3.35597 3.35597 h 7.2711 c 6.5256,0 7.2713,0.22946 7.2713,2.23732 0,2.00785 -0.7457,2.23732 -7.2713,2.23732 h -7.2711 v 4.47462 4.47464 h 8.3898 c 7.6442,0 8.3899,0.19886 8.3899,2.23731 0,2.09526 -0.7457,2.2373 -11.7458,2.2373 h -11.746 z m 26.349,11.46625 c 1.0976,-1.69198 3.2513,-4.98719 4.786,-7.32269 3.0722,-4.67569 2.7967,-5.96339 -3.2188,-15.05048 l -2.4067,-3.63562 h 3.784 c 3.018,0 4.1851,0.67924 5.7663,3.35597 1.0904,1.84578 2.4289,3.35597 2.9747,3.35597 0.5456,0 1.8842,-1.51019 2.9744,-3.35597 1.5813,-2.67673 2.7484,-3.35597 5.7665,-3.35597 h 3.784 l -2.4068,3.63562 c -6.0157,9.08709 -6.2911,10.37479 -3.2188,15.05048 1.5345,2.3355 3.6883,5.63071 4.786,7.32269 l 1.9959,3.07629 h -3.78 c -3.2032,0 -4.2018,-0.68269 -6.5453,-4.47461 -1.521,-2.46106 -3.0312,-4.47464 -3.3559,-4.47464 -0.3248,0 -1.835,2.01358 -3.3561,4.47464 -2.3436,3.79192 -3.3422,4.47461 -6.5453,4.47461 h -3.7798 z m 27.3467,-11.46625 v -14.54254 h 8.7003 c 12.6138,0 17.5211,4.90028 13.2258,13.20667 -2.0305,3.92633 -3.7063,4.69185 -10.2717,4.69185 h -4.9425 v 5.59329 c 0,5.46898 -0.074,5.59327 -3.3559,5.59327 h -3.356 z m 26.8478,0 v -14.54254 h 11.1865 c 10.4408,0 11.1866,0.14915 11.1866,2.2373 0,2.02425 -0.7458,2.23733 -7.8307,2.23733 h -7.8306 v 3.35597 3.35597 h 7.2713 c 6.5255,0 7.2712,0.22946 7.2712,2.23732 0,2.00785 -0.7457,2.23732 -7.2712,2.23732 h -7.2713 v 4.47462 4.47464 h 8.39 c 7.6441,0 8.39,0.19886 8.39,2.23731 0,2.09526 -0.7459,2.2373 -11.746,2.2373 h -11.7458 z m 27.9663,0 v -14.54254 h 9.8728 c 8.8738,0 10.1192,0.26203 12.3054,2.58908 3.9006,4.15203 2.0432,13.07213 -2.7219,13.07213 -1.2708,0 -1.023,0.87161 1.034,3.63563 1.488,1.99959 3.5851,5.01997 4.6601,6.71195 l 1.9547,3.07629 h -3.9273 c -3.479,0 -4.3298,-0.62717 -7.4527,-5.49387 -3.2439,-5.05501 -5.3031,-6.81135 -7.986,-6.81135 -0.5648,0 -1.0271,2.76868 -1.0271,6.15262 0,6.09046 -0.033,6.1526 -3.3559,6.1526 h -3.3561 z m 29.0851,0 v -14.54254 h 3.356 3.3559 v 14.54254 14.54254 h -3.3559 -3.356 z m 11.1865,0 v -14.54254 h 11.1866 c 10.4409,0 11.1866,0.14915 11.1866,2.2373 0,2.02425 -0.7457,2.23733 -7.8306,2.23733 h -7.8306 v 3.35597 3.35597 h 7.2713 c 6.5255,0 7.2712,0.22946 7.2712,2.23732 0,2.00785 -0.7457,2.23732 -7.2712,2.23732 h -7.2713 v 4.47462 4.47464 h 8.3901 c 7.644,0 8.3897,0.19886 8.3897,2.23731 0,2.09526 -0.7457,2.2373 -11.7459,2.2373 h -11.7459 z m 26.8479,0 v -14.54254 h 3.3258 c 2.9883,0 3.8686,0.93709 8.6696,9.22892 l 5.3438,9.22893 0.3249,-9.22893 c 0.3158,-8.96988 0.4021,-9.22892 3.0762,-9.22892 h 2.7515 v 14.54254 14.54254 h -3.106 c -2.6799,0 -3.7923,-1.15938 -8.1103,-8.45206 l -5.0042,-8.45207 -0.3268,8.45207 -0.3267,8.45206 h -3.3089 -3.3089 z m 33.6666,11.66425 c -9.9101,-8.33888 -4.6215,-26.20679 7.7568,-26.20679 5.2313,0 9.1166,1.62882 10.972,4.59973 2.863,4.58445 -1.2972,5.80449 -6.55,1.9209 -6.0386,-4.46455 -12.1316,1.36001 -10.7321,10.25923 1.1284,7.17579 6.8235,9.77037 11.1645,5.08639 2.4118,-2.60255 7.4177,-2.98908 7.4177,-0.57279 0,7.2516 -13.3561,10.52802 -20.0289,4.91333 z m 24.5035,-11.66425 v -14.54254 h 3.356 3.356 v 14.54254 14.54254 h -3.356 -3.356 z m 14.002,0.32209 c 2.7584,-7.82122 5.0152,-14.36538 5.0152,-14.54253 0,-0.17716 2.0135,-0.3221 4.4747,-0.3221 2.4611,0 4.4746,0.2188 4.4746,0.48625 0,0.26743 2.2438,6.81156 4.9864,14.54253 l 4.9864,14.0563 h -3.3667 c -2.7349,0 -3.586,-0.62969 -4.5364,-3.35596 -1.0875,-3.11982 -1.56,-3.35599 -6.7119,-3.35599 -5.1521,0 -5.6244,0.23617 -6.7119,3.35599 -0.9355,2.68314 -1.8171,3.35596 -4.3977,3.35596 h -3.2277 z M 1351.2477,486.9056 c -12.9999,-4.60901 -14.5427,-9.27361 -14.5427,-43.97012 0,-27.79948 0.021,-28.03653 2.8464,-33.52717 8.7515,-17.00247 40.0679,-15.70821 47.4505,1.96108 2.7743,6.63974 2.4595,57.85637 -0.3936,64.03814 -5.0821,11.01133 -21.5918,16.37976 -35.3606,11.49807 z m 13.7593,-12.28113 c 2.1876,-2.18751 1.8866,-61.69558 -0.3212,-63.52794 -4.712,-3.91048 -5.0483,-1.80171 -5.0483,31.64837 0,17.45172 0.3356,32.06601 0.7458,32.47618 1.1458,1.14578 3.1386,0.88866 4.6237,-0.59661 z m -61.3024,4.69836 v -7.83061 h -13.4238 -13.424 v -6.43228 c 0,-5.04732 2.0877,-12.8753 9.7113,-36.35636 l 9.7155,-29.92409 h 14.8992 14.8992 v 29.0851 29.08509 h 3.356 3.356 v 7.27127 7.27127 h -3.356 -3.356 v 7.83061 7.83059 h -11.1866 -11.1867 z m -0.081,-39.99201 -0.081,-17.61886 -2.2123,7.8306 c -1.2167,4.30685 -3.411,12.23533 -4.8762,17.61886 l -2.6639,9.78826 h 4.9556 4.9557 z m 110.8266,19.85617 v -10.06791 h -9.5086 -9.5086 v -6.71195 -6.71195 h 9.5086 9.5086 v -10.06791 -10.06793 h 7.2711 7.2714 v 10.06793 10.06791 h 9.5085 9.5086 v 6.71195 6.71195 h -9.5086 -9.5085 v 10.06791 10.06792 h -7.2714 -7.2711 z m -89.2361,-152.3285 c -9.2349,-9.23471 43.1573,-58.82907 81.9647,-77.58792 33.7245,-16.3018 88.6349,-25.93993 91.7563,-16.10546 1.5857,4.99614 -1.6379,6.26159 -17.6761,6.93902 -52.9701,2.23735 -105.4312,30.70968 -143.705,77.99359 -7.8648,9.71632 -9.9232,11.17759 -12.3399,8.76077 z m 48.0694,-1.1513 c -4.4189,-4.41887 18.0226,-26.44862 46.563,-45.70872 30.7849,-20.77489 78.5029,-35.75481 78.5029,-24.6441 0,4.2118 -0.2539,4.34917 -12.7706,6.90614 -33.5197,6.84763 -61.818,22.94012 -96.7176,55.00081 -10.5758,9.71536 -12.9959,11.02755 -15.5777,8.44587 z m 52.831,-1.75106 c -8.3579,-5.72295 19.1194,-24.33273 52.099,-35.28569 16.073,-5.33798 17.4099,-5.57742 19.4957,-3.49162 4.0174,4.01727 0.2021,7.28432 -13.4246,11.49589 -12.6584,3.9123 -33.4802,13.88485 -46.8563,22.44181 -9.53,6.09657 -9.498,6.08294 -11.3138,4.83961 z m -190.9293,-5.94541 c -9.8258,-5.72311 4.8282,-11.20093 30.9959,-11.58653 l 17.8516,-0.26306 4.8931,-6.05597 c 2.6912,-3.33079 9.4822,-10.69636 15.0912,-16.36793 5.609,-5.67157 9.9723,-10.53617 9.6965,-10.81024 -5.0015,-4.96691 -48.0991,-3.49916 -67.307,2.29223 -10.6665,3.21605 -13.1788,2.73321 -13.1788,-2.53279 0,-9.60035 48.4775,-16.23567 77.0507,-10.54621 10.6475,2.12015 12.8184,2.26607 14.5722,0.97958 14.1752,-10.3978 14.6447,-11.2784 7.6578,-14.36528 -21.7217,-9.59714 -64.6502,-13.0977 -90.3315,-7.36601 -8.1351,1.81563 -12.3052,0.51711 -12.3052,-3.83154 0,-4.68067 17.578,-8.94925 36.8531,-8.94925 11.467,0 12.3678,-0.70316 12.3678,-9.65502 0,-8.9642 -2.1117,-13.02525 -8.3656,-16.08707 -13.8865,-6.79895 -19.1698,-15.17647 -21.8317,-34.61918 -5.8343,-42.611 29.5135,-74.738114 55.348,-50.304954 25.0022,23.646054 19.6378,77.796334 -8.5434,86.239604 -5.9102,1.77076 -6.8221,3.9185 -6.2397,14.69896 l 0.4902,9.08019 9.9528,1.42718 c 12.4333,1.78291 27.407,6.00592 38.9741,10.99181 10.264,4.42424 9.7984,4.56691 10.4425,-3.19991 0.6414,-7.73422 -1.2154,-11.35474 -11.0757,-21.59661 -10.4389,-10.84294 -10.3985,-11.34795 2.193,-27.46047 13.7179,-17.55357 13.4785,-17.58369 29.3578,3.69273 10.8986,14.60265 10.9177,13.84738 -0.6504,25.66899 -13.2656,13.55634 -14.4125,24.17048 -1.6779,15.52867 32.5543,-22.09179 75.6895,-32.35671 116.4784,-27.71852 14.4318,1.64104 18.0536,4.27958 13.5346,9.86013 -1.9106,2.35956 -2.2715,2.40054 -9.2288,1.04819 -59.8588,-11.63544 -135.7609,23.63735 -189.7854,88.19596 l -10.5328,12.58653 -14.2082,-0.69428 c -10.6807,-0.52189 -16.7774,-0.24456 -24.5563,1.11702 -12.0156,2.10316 -11.4491,2.07874 -13.9829,0.60305 z m 126.422,-107.59145 5.8102,-5.88321 -6.2177,-7.82035 c -7.8461,-9.86873 -7.2387,-9.79451 -13.2564,-1.62013 -6.2321,8.46576 -6.2415,8.90509 -0.3329,15.66601 5.9931,6.85776 6.9083,6.83537 13.9968,-0.34232 z m -66.8533,-17.08167 c 26.7452,-13.82703 14.5802,-78.448972 -13.7031,-72.79231 -27.9289,5.58577 -29.751,69.0527 -2.1415,74.58948 4.9271,0.98808 12.0114,0.18454 15.8446,-1.79717 z m -19.2903,-15.07925 c -4.3114,-4.31148 -4.4629,-4.70796 -3.9273,-10.28115 1.4371,-14.9575 22.4564,-16.9676 26.4431,-2.52881 3.8294,13.86896 -12.2874,23.03834 -22.5158,12.80996 z m 157.1088,0.90471 c -0.7864,-0.78641 -1.3494,-4.60881 -1.3596,-9.22893 -0.019,-8.56341 -0.2935,-9.31783 -4.4267,-12.14634 -4.6275,-3.16682 -6.9555,-2.30766 -14.5734,5.37846 -7.6118,7.68021 -9.6938,8.53747 -12.6911,5.22553 -2.9033,-3.20817 -2.3618,-4.37822 6.0342,-13.03695 l 7.8854,-8.13229 -2.6115,-5.45204 -2.6117,-5.45204 -9.7659,0.36065 c -12.5032,0.46172 -17.5617,-1.0527 -17.5617,-5.25762 0,-5.11829 1.6383,-5.73027 15.3402,-5.73027 h 12.6553 l 2.4325,-5.00682 2.4326,-5.006826 -7.4811,-7.748974 c -7.9676,-8.253013 -8.6666,-9.902723 -5.4351,-12.827079 3.3066,-2.992558 5.0061,-2.250493 12.4121,5.419908 7.3832,7.6465 8.121,7.988279 13.1332,6.082635 4.4575,-1.69475 4.8137,-2.704845 4.8327,-13.707123 0.021,-11.53451 1.0548,-14.189335 5.5301,-14.189335 4.1563,0 4.5551,1.276358 4.5551,14.581695 v 11.042735 l 5.176,2.28966 c 6.728,2.976096 5.6484,3.350681 14.358,-4.981612 8.3727,-8.009863 9.1345,-8.308463 12.7068,-4.980416 3.1314,2.917301 2.3475,4.490263 -6.5491,13.141961 -7.51,7.303193 -7.4944,7.260087 -4.4495,12.253961 l 2.2166,3.63563 h 11.7624 c 14.4196,0 18.9268,2.60123 14.6511,8.4558 -1.3712,1.87785 -3.2608,2.22261 -13.9743,2.54986 l -12.3889,0.37842 -2.2369,5.05678 c -2.6,5.87761 -2.7573,5.49643 6.0603,14.67308 8.007,8.333 8.1586,8.64277 5.6093,11.45978 -3.2601,3.60221 -5.9164,2.56473 -13.0554,-5.09869 -7.5365,-8.09045 -9.5832,-8.71191 -15.526,-4.7146 -3.6838,2.47777 -3.8114,2.81288 -4.1345,10.85693 -0.4195,10.447 -4.1986,14.60735 -8.9515,9.85448 z m 12.5244,-32.5154 c 7.9891,-4.58028 10.9236,-15.30021 6.2752,-22.92431 -6.6052,-10.833194 -24.1345,-10.93636 -29.6996,-0.1748 -7.8553,15.19071 8.7157,31.53169 23.4244,23.09911 z"
         id="path6" /><path
         style="fill:#ffffff;stroke-width:19.1433;stroke-dasharray:459.439, 19.1433"
         d="m 1396.4924,524.26894 -0.063,9.25 h 10.875 c 4.9035,1.1705 4.9098,-9.96437 -0.5,-9.3125 z"
         id="path8-1"
         sodipodi:nodetypes="ccccc" /><path
         style="fill:#ffffff;stroke-width:19.1433;stroke-dasharray:459.439, 19.1433"
         d="m 1387.2892,550.45958 0.07,9.60355 h 7.9582 c 3.9113,2.00723 6.4334,-10.58255 0.2071,-9.57766 z"
         id="path8-0"
         sodipodi:nodetypes="ccccc" /><path
         style="fill:#ffffff;stroke-width:19.1433;stroke-dasharray:459.439, 19.1433"
         d="m 1440.7819,550.26282 -0.032,8.78125 h 10.875 c 3.243,0.32675 4.0297,-9.46437 -0.5937,-8.8125 z"
         id="path8-0-9"
         sodipodi:nodetypes="ccccc" /><path
         style="fill:#ffffff;stroke-width:19.1433;stroke-dasharray:459.439, 19.1433"
         d="m 1144.8824,549.99537 7e-4,-0.004 4.7391,13.1756 -9.6303,-0.0274 z"
         id="path7-6-7"
         sodipodi:nodetypes="ccccc" /><path
         style="fill:#ffffff;stroke-width:19.1433;stroke-dasharray:459.439, 19.1433"
         d="m 1584.5913,551.30787 7e-4,-0.004 4.7391,13.1756 -9.6303,-0.0274 z"
         id="path7-6-7-9"
         sodipodi:nodetypes="ccccc" /></g></g></svg>
