<?xml version="1.0" encoding="UTF-8" standalone="no"?>
<!-- Created with Inkscape (http://www.inkscape.org/) -->

<svg
   width="617.00293"
   height="555.51471"
   viewBox="0 0 617.00293 555.51471"
   version="1.1"
   id="svg1"
   xml:space="preserve"
   inkscape:export-filename="clientes-satisfecho.svg"
   inkscape:export-xdpi="170"
   inkscape:export-ydpi="170"
   xmlns:inkscape="http://www.inkscape.org/namespaces/inkscape"
   xmlns:sodipodi="http://sodipodi.sourceforge.net/DTD/sodipodi-0.dtd"
   xmlns="http://www.w3.org/2000/svg"
   xmlns:svg="http://www.w3.org/2000/svg"><sodipodi:namedview
     id="namedview1"
     pagecolor="#ffffff"
     bordercolor="#999999"
     borderopacity="1"
     inkscape:showpageshadow="2"
     inkscape:pageopacity="0"
     inkscape:pagecheckerboard="0"
     inkscape:deskcolor="#d1d1d1"
     inkscape:document-units="px"><inkscape:page
       x="0"
       y="0"
       width="617.00293"
       height="555.51471"
       id="page3"
       margin="0"
       bleed="0" /></sodipodi:namedview><defs
     id="defs1" /><g
     inkscape:label="Capa 1"
     inkscape:groupmode="layer"
     id="layer1"
     transform="translate(-417.37848,-39.921632)"><g
       id="g9"><path
         style="fill:#000000;stroke-width:1.22313"
         d="m 550.23828,559.40956 v -14.72895 h 3.39898 c 3.32347,0 3.399,0.1259 3.399,5.66498 v 5.66499 h 5.66496 5.66498 v -5.66499 c 0,-5.28731 0.18884,-5.66498 2.83249,-5.66498 h 2.83249 v 14.72895 14.72894 h -2.83249 c -2.70659,0 -2.83249,-0.30214 -2.83249,-6.79798 v -6.79796 h -5.66498 -5.66496 v 6.79796 6.79798 h -3.399 -3.39898 z m 33.23661,12.02321 c -3.0054,-2.58515 -3.16545,-3.24163 -3.59067,-14.72895 l -0.44507,-12.02321 h 3.52749 3.52748 v 10.68254 c 0,11.28845 1.17526,14.24336 5.66499,14.24336 4.48972,0 5.66498,-2.95491 5.66498,-14.24336 0,-10.63937 0.011,-10.68254 2.83249,-10.68254 h 2.83249 v 11.94795 c 0,16.92949 -9.43226,23.90639 -20.01418,14.80421 z m 25.67914,-12.02321 v -14.72895 h 11.32996 c 10.57463,0 11.32995,0.15107 11.32995,2.266 0,2.05019 -0.75532,2.26599 -7.93096,2.26599 h -7.93097 v 3.39898 3.399 h 7.36447 c 6.60914,0 7.36447,0.2324 7.36447,2.26598 0,2.03359 -0.75533,2.266 -7.36447,2.266 h -7.36447 v 4.53197 4.53198 h 8.49747 c 7.74212,0 8.49745,0.20142 8.49745,2.26599 0,2.12212 -0.75533,2.266 -11.89644,2.266 h -11.89646 z m 34.53131,13.31268 c -2.78277,-7.57283 -9.60541,-27.12458 -9.60541,-27.52644 0,-0.28336 1.49792,-0.51519 3.32872,-0.51519 3.17588,0 3.47269,0.44212 6.465,9.63046 1.72496,5.29675 3.43596,9.63046 3.80222,9.63046 0.36627,0 2.07727,-4.33371 3.80223,-9.63046 2.99232,-9.18834 3.28912,-9.63046 6.46501,-9.63046 4.08386,0 4.29348,-1.68545 -1.89091,15.20357 -5.2172,14.24769 -10.01763,19.23104 -12.36686,12.83806 z m 23.95102,-2.01787 c -10.29082,-9.03547 -4.02332,-26.02376 9.60096,-26.02376 10.89566,0 17.84617,11.56466 13.03898,21.69506 -3.95797,8.34078 -15.54681,10.55654 -22.63994,4.3287 z m 14.64737,-3.87884 c 7.91263,-7.91263 -1.29445,-22.36656 -9.83969,-15.44705 -3.87927,3.14125 -3.87927,12.9209 0,16.06214 3.59204,2.90865 6.49756,2.72702 9.83969,-0.61509 z m 15.06414,3.90853 c -3.93151,-3.93159 -3.75232,-6.07515 0.5504,-6.58453 2.16152,-0.25589 3.02835,0.15644 3.02835,1.44054 0,2.842 5.07611,4.6485 8.57818,3.05284 4.55323,-2.07457 3.07299,-4.94585 -3.48837,-6.76635 -6.96732,-1.93317 -10.75473,-5.23651 -10.75473,-9.38025 0,-9.6279 19.36141,-10.55401 21.84803,-1.04505 0.81791,3.12755 -4.00036,3.14605 -7.1191,0.0273 -2.46094,-2.46098 -4.22323,-2.78548 -6.67988,-1.23 -2.69786,1.70831 -0.54014,4.25369 4.73094,5.58099 7.08217,1.7833 10.25754,4.64606 10.25754,9.2477 0,8.92764 -13.92167,12.68643 -20.95136,5.65678 z m 36.43569,-11.3245 v -14.72895 h 8.57194 c 12.73522,0 16.35398,3.25915 16.35398,14.72895 0,11.4698 -3.61876,14.72894 -16.35398,14.72894 h -8.57194 z m 15.59931,9.2502 c 7.0462,-4.47237 2.69211,-19.44716 -5.65453,-19.44716 h -3.14687 v 10.19696 10.19695 l 3.68223,-0.0173 c 2.02527,-0.01 4.32891,-0.42778 5.11917,-0.92941 z m 13.85855,-9.2502 v -14.72895 h 3.39896 3.39895 v 14.72895 14.72894 h -3.39895 -3.39896 z m 14.18146,0.32623 c 2.79375,-7.9215 5.07941,-14.54951 5.07941,-14.72894 0,-0.17943 2.03945,-0.32624 4.53206,-0.32624 2.4925,0 4.53194,0.22162 4.53194,0.49249 0,0.27085 2.27258,6.89888 5.0503,14.72893 l 5.05031,14.23647 h -3.40972 c -2.77002,0 -3.63208,-0.63776 -4.59469,-3.399 -1.10155,-3.1598 -1.57979,-3.39898 -6.79791,-3.39898 -5.21811,0 -5.69648,0.23918 -6.79803,3.39898 -0.94731,2.71754 -1.84032,3.399 -4.45403,3.399 h -3.26906 z m 26.60638,-0.32623 v -14.72895 h 9.99945 c 8.98744,0 10.24872,0.26541 12.46295,2.62227 3.95059,4.20524 2.06942,13.23968 -2.75693,13.23968 -1.28698,0 -1.03599,0.88278 1.04737,3.68223 1.50702,2.02523 3.63111,5.08432 4.71993,6.79797 l 1.97976,3.11574 h -3.97774 c -3.52359,0 -4.38528,-0.63521 -7.5483,-5.56429 -3.28533,-5.11982 -5.37088,-6.89866 -8.08819,-6.89866 -0.57219,0 -1.04039,2.80416 -1.04039,6.23147 0,6.16854 -0.0342,6.23148 -3.39896,6.23148 h -3.39895 z m 30.59084,0 v -14.72895 h 3.39896 3.39907 v 14.72895 14.72894 h -3.39907 -3.39896 z m 15.42856,11.29481 c -10.29093,-9.03547 -4.02336,-26.02376 9.60096,-26.02376 10.89564,0 17.84607,11.56466 13.03893,21.69506 -3.95793,8.34078 -15.54684,10.55654 -22.63989,4.3287 z m 14.64734,-3.87884 c 7.91255,-7.91263 -1.29443,-22.36656 -9.83971,-15.44705 -2.18756,1.77144 -2.67473,3.23407 -2.67473,8.03108 0,9.30227 6.67351,13.25692 12.51444,7.41597 z m 15.06419,3.90853 c -3.93162,-3.93159 -3.75243,-6.07515 0.55041,-6.58453 2.16152,-0.25589 3.02835,0.15644 3.02835,1.44054 0,2.842 5.07599,4.6485 8.57806,3.05284 4.55322,-2.07457 3.07299,-4.94585 -3.48837,-6.76635 -6.96732,-1.93317 -10.75474,-5.23651 -10.75474,-9.38025 0,-9.6279 19.36141,-10.55401 21.84804,-1.04505 0.8179,3.12755 -4.00037,3.14605 -7.11911,0.0273 -2.46093,-2.46098 -4.22321,-2.78548 -6.67976,-1.23 -2.69797,1.70831 -0.54025,4.25369 4.73083,5.58099 7.08228,1.7833 10.25766,4.64606 10.25766,9.2477 0,8.92764 -13.9218,12.68643 -20.95137,5.65678 z M 648.80887,455.39054 c 0,-35.03039 0.27855,-33.99058 -9.37239,-34.98665 l -6.48955,-0.66977 v -4.76063 c 0,-4.61977 0.1425,-4.80321 4.81523,-6.1992 6.6879,-1.99803 12.56693,-5.13252 17.11301,-9.12402 3.31022,-2.90642 4.77457,-3.39204 10.22846,-3.39204 h 6.36514 v 44.75332 44.75331 h -11.32994 -11.32996 z m 31.72387,-14.37899 v -44.75332 h 15.15326 15.15335 l 1.78675,11.6132 c 0.98279,6.38726 2.13363,14.30135 2.55757,17.58686 1.26924,9.83897 2.19698,7.77719 4.37526,-9.72325 1.13934,-9.15437 2.31135,-17.28164 2.60428,-18.06056 0.38969,-1.03598 4.60716,-1.41625 15.70707,-1.41625 h 15.17415 v 44.75332 44.75331 h -10.76342 -10.76342 l -0.13296,-26.34214 -0.13295,-26.34214 -2.03492,15.29544 c -1.11917,8.41248 -2.64624,20.26645 -3.39345,26.34214 l -1.35866,11.0467 h -7.62608 -7.6261 l -2.60196,-19.54416 c -4.12122,-30.95618 -4.26653,-31.48651 -4.42345,-16.14519 -0.077,7.47777 -0.46834,18.56696 -0.87063,24.64265 l -0.73155,11.0467 h -10.02606 -10.02608 z m 98.57059,16.42843 v -10.19696 h -9.63044 -9.63042 v -6.79798 -6.79797 h 9.63042 9.63044 v -10.19695 -10.19697 h 7.36447 7.36446 v 10.19697 10.19695 h 9.63044 9.63055 v 6.79797 6.79798 h -9.63055 -9.63044 v 10.19696 10.19696 h -7.36446 -7.36447 z m -65.014,-162.17301 C 629.74609,284.43954 609.63258,167.44337 678.01672,85.439772 718.57369,36.805364 777.15391,60.242647 803.3832,135.59753 c 30.38413,87.29132 -15.39786,169.15573 -89.29387,159.66944 z m 25.88535,-11.72904 c 57.33678,-10.21548 80.57955,-92.23103 45.91874,-162.03105 -34.14869,-68.768685 -87.68716,-67.27556 -121.87638,3.39897 -33.65611,69.57256 -12.22493,148.03369 43.14106,157.94277 15.26136,2.73139 20.71224,2.84589 32.81658,0.68931 z m 7.03568,-16.62521 c -3.79989,-2.12653 -2.10733,-5.83695 5.46678,-11.98472 8.73718,-7.09162 15.5806,-15.60571 20.93155,-26.04162 6.26242,-12.21339 9.94942,-14.84314 12.61328,-8.99657 4.67602,10.26285 -30.0035,52.06409 -39.01161,47.02291 z M 676.85051,155.97247 c -7.71142,-4.49148 27.15839,-61.090991 37.63695,-61.090991 6.67927,0 5.73012,4.888532 -2.86004,14.728941 -9.85843,11.29334 -19.22155,25.39916 -23.70436,35.71117 -5.19518,11.95072 -6.57012,13.27331 -11.07255,10.65088 z"
         id="path5" /><path
         style="fill:#ffffff;stroke-width:19.1433;stroke-dasharray:459.439, 19.1433"
         d="m 787.06994,549.05787 6.6e-4,-0.004 4.73906,13.1756 -9.63028,-0.0274 z"
         id="path7-6"
         sodipodi:nodetypes="ccccc" /><path
         style="fill:#ffffff;stroke-width:19.1433;stroke-dasharray:459.439, 19.1433"
         d="m 809.15349,548.8342 0.0254,8.71967 h 10.875 c 2.78609,-0.37204 2.94033,-9.01068 -0.67678,-8.60539 z"
         id="path8"
         sodipodi:nodetypes="ccccc" /></g></g></svg>
