<?xml version="1.0" encoding="UTF-8" standalone="no"?>
<!-- Created with Inkscape (http://www.inkscape.org/) -->

<svg
   width="512"
   height="512"
   viewBox="0 0 512 512"
   version="1.1"
   id="svg1"
   xml:space="preserve"
   inkscape:version="1.4.4 (dcaf3e7d9e, 2026-05-05)"
   sodipodi:docname="iconos-nosotros.svg"
   xmlns:inkscape="http://www.inkscape.org/namespaces/inkscape"
   xmlns:sodipodi="http://sodipodi.sourceforge.net/DTD/sodipodi-0.dtd"
   xmlns="http://www.w3.org/2000/svg"
   xmlns:svg="http://www.w3.org/2000/svg"><sodipodi:namedview
     id="namedview1"
     pagecolor="#ffffff"
     bordercolor="#999999"
     borderopacity="1"
     inkscape:showpageshadow="2"
     inkscape:pageopacity="0"
     inkscape:pagecheckerboard="0"
     inkscape:deskcolor="#d1d1d1"
     inkscape:document-units="px"
     inkscape:zoom="0.4716347"
     inkscape:cx="811.00903"
     inkscape:cy="963.66955"
     inkscape:window-width="1920"
     inkscape:window-height="915"
     inkscape:window-x="0"
     inkscape:window-y="40"
     inkscape:window-maximized="1"
     inkscape:current-layer="layer1"><inkscape:page
       x="0"
       y="0"
       width="512"
       height="512"
       id="page4"
       margin="0"
       bleed="0" /></sodipodi:namedview><defs
     id="defs1" /><g
     inkscape:label="Capa 1"
     inkscape:groupmode="layer"
     id="layer1"
     transform="translate(-528.76086,-554.0328)"><path
       style="fill:#000000"
       d="m 570.37033,1036.8361 c -4.0666,-1.1939 -9.59597,-7.0076 -10.75351,-11.3063 -0.64824,-2.4074 -0.87751,-18.3658 -0.70797,-49.28042 l 0.25072,-45.72 2.36598,-3.5742 c 1.30128,-1.9658 3.88097,-4.516 5.73264,-5.6672 l 3.36666,-2.093 h 47.62501 47.62501 l 3.36666,2.093 c 1.85166,1.1512 4.43135,3.7006 5.73264,5.6654 2.364,3.5694 2.36621,3.5888 2.64718,23.2721 l 0.2812,19.6996 38.96533,-0.2296 38.96533,-0.2296 v -39.2465 -39.2466 l -18.07986,-0.441 c -19.54875,-0.4768 -20.80489,-0.7606 -25.8971,-5.8529 -4.93905,-4.939 -5.37754,-6.6479 -5.8529,-22.8103 l -0.44098,-14.99301 -4.47017,-0.26102 c -3.94993,-0.23065 -4.57881,-0.0226 -5.40367,1.78783 -1.70219,3.7358 -5.8802,7.9628 -9.49245,9.6036 -1.98706,0.9026 -5.62569,1.6276 -8.2228,1.6384 -11.42332,0.048 -19.5562,-8.0135 -19.5562,-19.38339 0,-11.36988 8.13288,-19.43091 19.5562,-19.38341 2.59711,0.0108 6.23574,0.73579 8.2228,1.63839 3.61225,1.64082 7.79026,5.86778 9.49245,9.60367 0.82486,1.81037 1.45374,2.01844 5.40367,1.78779 l 4.47017,-0.26103 v -14.11111 -14.11111 l -45.14192,-0.22847 -45.14193,-0.22846 -1.82162,-2.31582 c -1.7896,-2.27511 -1.82163,-3.14998 -1.82163,-49.76325 v -47.44743 l -20.5724,-0.27913 -20.57241,-0.27913 -3.57244,-2.36597 c -1.96485,-1.30129 -4.5143,-3.88098 -5.66545,-5.73264 l -2.093,-3.36667 v -47.625 -47.62501 l 2.093,-3.36667 c 1.15115,-1.85166 3.70185,-4.43135 5.66823,-5.73263 l 3.57523,-2.36598 h 47.75383 47.75382 l 3.57523,2.36598 c 1.96638,1.30128 4.51709,3.88097 5.66824,5.73263 2.04165,3.28407 2.09968,3.9301 2.36554,26.33259 0.2648,22.31371 0.21916,23.0338 -1.60741,25.35591 -1.37668,1.75017 -2.67205,2.38998 -4.83875,2.38998 -2.14596,0 -3.46093,-0.63838 -4.78668,-2.3238 -1.7347,-2.20531 -1.8279,-3.41045 -1.8279,-23.63611 0,-15.40032 -0.29358,-21.6059 -1.05833,-22.37065 -1.52539,-1.52539 -88.96213,-1.52539 -90.48752,0 -1.52539,1.52539 -1.52539,88.96212 0,90.48751 1.52539,1.52539 88.96213,1.52539 90.48752,0 0.70218,-0.70218 1.05833,-4.52048 1.05833,-11.34634 0,-9.07266 0.21593,-10.56252 1.8279,-12.61181 1.32575,-1.68541 2.64072,-2.3238 4.78668,-2.3238 2.1772,0 3.46266,0.64058 4.86628,2.42499 1.78067,2.26376 1.88754,3.21661 1.60741,14.3316 -0.26974,10.70298 -0.51165,12.24695 -2.39307,15.27328 -1.15115,1.85166 -3.7006,4.43135 -5.66545,5.73264 l -3.57245,2.36597 -20.5724,0.27913 -20.57241,0.27913 v 43.60651 43.60651 l 40.34897,-0.22938 40.34896,-0.22938 0.44098,-22.48959 c 0.47842,-24.39952 0.60594,-25.05987 5.8529,-30.30682 5.09221,-5.09221 6.34835,-5.37611 25.8971,-5.85291 l 18.07986,-0.44097 0.2432,-12.85677 c 0.23972,-12.67343 0.21423,-12.86997 -1.78779,-13.78215 -3.71919,-1.69458 -7.94798,-5.87858 -9.58584,-9.48432 -0.9026,-1.98706 -1.62759,-5.62569 -1.63839,-8.2228 -0.0475,-11.42332 8.01353,-19.5562 19.38341,-19.5562 11.36988,0 19.43091,8.13288 19.38341,19.5562 -0.0108,2.59711 -0.73579,6.23574 -1.63839,8.2228 -1.63786,3.60574 -5.86665,7.78974 -9.58584,9.48432 -2.00202,0.91218 -2.02751,1.10872 -1.78779,13.78215 l 0.24319,12.85677 h 18.07987 18.07986 l 0.22847,-45.14192 0.22846,-45.14193 2.31582,-1.82162 c 2.26372,-1.78065 3.22452,-1.82163 42.70769,-1.82163 h 40.39187 l 0.27913,-20.5724 0.27913,-20.57241 2.36598,-3.57245 c 1.30129,-1.96484 3.88098,-4.51429 5.73264,-5.66544 l 3.36666,-2.093 h 47.68942 47.68941 l 3.57521,2.36598 c 1.9664,1.30128 4.5171,3.88097 5.6683,5.73263 l 2.093,3.36667 v 47.68941 47.68942 l -2.366,3.57523 c -1.3013,1.96638 -3.881,4.51709 -5.7327,5.66823 l -3.36662,2.093 h -47.68942 -47.68941 l -3.57524,-2.36597 c -1.96637,-1.30129 -4.51708,-3.88098 -5.66823,-5.73264 -2.0213,-3.25134 -2.10256,-4.06908 -2.37213,-23.87188 l -0.27913,-20.50521 h -36.55095 -36.55095 l 0.22938,40.34897 0.22938,40.34896 15.43403,0.44097 c 14.90301,0.4258 15.57736,0.52523 19.59983,2.88976 2.70137,1.58795 5.02663,3.91322 6.61458,6.61459 2.34457,3.98849 2.46756,4.78516 2.88976,18.71788 l 0.44098,14.55209 15.55901,0.24044 15.55901,0.24045 2.34053,-3.99381 c 1.5878,-2.70937 3.81673,-4.84043 6.93058,-6.62627 3.65479,-2.09608 5.64393,-2.63414 9.76236,-2.64073 3.94663,-0.006 6.19692,0.54938 9.49612,2.34503 7.3875,4.02078 11.42679,12.2861 10.03376,20.53138 -0.88281,5.22531 -5.0437,10.85163 -10.03376,13.56756 -3.2992,1.79565 -5.54949,2.35135 -9.49612,2.34504 -4.11843,-0.007 -6.10757,-0.54466 -9.76236,-2.64074 -3.11385,-1.78583 -5.34278,-3.9169 -6.93058,-6.62627 l -2.34053,-3.99381 -15.55901,0.24045 -15.55901,0.24045 -0.24684,11.24479 -0.24684,11.24479 h 45.04562 45.04561 l 2.16477,2.16478 2.16478,2.16477 v 51.13427 51.1342 l 20.50521,0.2791 c 19.8028,0.2696 20.62053,0.3508 23.87183,2.3721 1.8517,1.1512 4.4314,3.7019 5.7327,5.6683 l 2.366,3.5752 v 47.7538 47.75382 l -2.366,3.5753 c -1.3013,1.9663 -3.881,4.517 -5.7327,5.6682 l -3.36662,2.093 h -47.62501 -47.62501 l -3.36666,-2.093 c -1.85166,-1.1512 -4.43135,-3.7007 -5.73264,-5.6656 l -2.36598,-3.5726 -0.27761,-22.0485 c -0.15268,-12.12672 -0.0529,-22.94392 0.22181,-24.03832 0.76147,-3.034 2.9706,-4.7605 6.07192,-4.7456 6.39455,0.031 6.77208,1.492 6.77208,26.21052 0,15.1949 0.29431,21.3425 1.05833,22.1066 0.79499,0.7949 12.05325,1.0583 45.24376,1.0583 33.19052,0 44.44878,-0.2634 45.24376,-1.0583 1.52539,-1.5254 1.52539,-88.96212 0,-90.48752 -0.79498,-0.795 -12.05324,-1.0584 -45.24376,-1.0584 -33.19051,0 -44.44877,0.2634 -45.24376,1.0584 -0.70218,0.7022 -1.05833,4.5205 -1.05833,11.3463 0,9.0727 -0.21593,10.5625 -1.8279,12.6118 -1.32575,1.6854 -2.64072,2.3238 -4.78669,2.3238 -2.1772,0 -3.46265,-0.6406 -4.86627,-2.425 -1.78162,-2.2649 -1.88769,-3.2151 -1.60742,-14.3981 0.28222,-11.2603 0.44095,-12.186 2.66606,-15.5463 1.30129,-1.9652 3.88098,-4.5149 5.73264,-5.6661 3.25134,-2.0213 4.06907,-2.1025 23.87187,-2.3721 l 20.50522,-0.2791 v -46.6844 -46.68445 h -40.56946 -40.56945 l -0.0194,24.91495 c -0.0173,22.2725 -0.191,25.2891 -1.63766,28.4427 -0.89006,1.9403 -2.75825,4.656 -4.15154,6.035 -5.04377,4.992 -6.64476,5.3955 -23.2956,5.8712 l -15.43403,0.441 -0.24113,14.6216 c -0.23928,14.5097 -0.2256,14.6287 1.78779,15.5461 3.71726,1.6937 7.94626,5.8784 9.58378,9.4833 0.94245,2.0748 1.61902,5.5913 1.61902,8.415 0,11.3699 -8.13289,19.4309 -19.5562,19.3834 -11.09957,-0.046 -19.21062,-8.2301 -19.21062,-19.3834 0,-2.4565 0.61542,-5.9419 1.36761,-7.7453 1.67162,-4.0079 5.92097,-8.5289 9.35231,-9.9502 l 2.55085,-1.0566 -0.24129,-14.6569 -0.24129,-14.657 h -18.07986 -18.07987 l -0.22881,44.037 c -0.20489,39.4341 -0.3805,44.2046 -1.68009,45.6406 -1.36592,1.5094 -4.03369,1.6037 -45.35593,1.6037 h -43.90464 l -0.27638,21.89512 -0.27638,21.8952 -2.36598,3.5726 c -1.30129,1.9649 -3.88098,4.5144 -5.73264,5.6656 l -3.36666,2.093 -46.3021,0.156 c -27.67451,0.093 -47.46892,-0.1865 -49.20244,-0.6955 z m 93.12329,-13.307 c 1.52539,-1.5254 1.52539,-88.96212 0,-90.48752 -1.52539,-1.5254 -88.96213,-1.5254 -90.48752,0 -1.52539,1.5254 -1.52539,88.96212 0,90.48752 1.52539,1.5253 88.96213,1.5253 90.48752,0 z m -72.74193,-13.5937 c -5.23803,-2.5832 -5.57475,-4.4949 -5.57475,-31.65012 0,-27.3093 0.32762,-29.126 5.71359,-31.6818 2.45032,-1.1628 6.94077,-1.3911 27.35933,-1.3911 20.41855,0 24.90901,0.2283 27.35933,1.3911 5.38596,2.5558 5.71359,4.3725 5.71359,31.6818 0,27.30932 -0.32763,29.12602 -5.71359,31.68192 -2.45503,1.1649 -6.92321,1.3878 -27.49262,1.3709 -20.49484,-0.017 -25.02534,-0.249 -27.36488,-1.4027 z m 47.34192,-31.65012 v -19.8437 H 618.24986 598.4061 v 19.8437 19.8438 h 19.84376 19.84375 z m 178.52029,-34.8799 c 2.26435,-2.1738 2.17934,-6.6215 -0.17149,-8.9723 -3.98121,-3.9812 -11.07331,-1.0929 -11.07331,4.5097 0,2.9477 1.52494,5.2192 4.23212,6.3041 2.27407,0.9114 4.84944,0.2351 7.01268,-1.8415 z m 29.08664,-66.4488 c 1.99228,-0.8325 3.2617,-2.1534 3.94043,-4.1004 1.41314,-4.0537 1.41314,-117.5811 0,-121.63486 -1.88941,-5.41994 -0.77296,-5.3284 -64.98462,-5.3284 -41.0793,0 -58.9467,0.29339 -60.97738,1.00129 -5.41994,1.8894 -5.3284,0.77296 -5.3284,64.98462 0,41.04985 0.29365,58.94745 1.00043,60.97485 0.64678,1.8554 1.97177,3.2927 3.74826,4.0659 2.21903,0.9658 13.99757,1.2026 61.20499,1.2305 48.0185,0.028 58.982,-0.1848 61.39629,-1.1935 z m -108.73206,-14.1139 c -4.46652,-2.4756 -4.44209,-2.1996 -4.47555,-50.54193 -0.023,-33.19149 0.24796,-45.77097 1.0224,-47.47067 2.0656,-4.5335 3.87025,-4.82605 29.77062,-4.82605 22.68037,0 23.94324,0.087 25.62019,1.76389 2.05813,2.05813 2.29748,5.98786 0.51349,8.43039 -1.16207,1.59104 -2.76631,1.74312 -22.71008,2.15295 l -21.45967,0.44097 v 39.24653 39.24652 h 39.24653 39.24654 v -39.24652 -39.24653 l -7.34961,-0.44097 c -5.93772,-0.35626 -7.58961,-0.76985 -8.59896,-2.15295 -1.78299,-2.4432 -1.54316,-6.37269 0.51454,-8.43039 1.55104,-1.55104 2.93981,-1.76389 11.50908,-1.76389 10.77174,0 13.89985,0.96404 15.6595,4.82605 0.7729,1.69633 1.05365,14.29796 1.05365,47.29398 0,48.79692 0.01,48.69242 -4.82606,50.89582 -1.6997,0.7744 -14.27917,1.0453 -47.47066,1.0224 -35.78855,-0.025 -45.59549,-0.2737 -47.26595,-1.1996 z m -54.41016,-18.21514 c 2.26435,-2.1737 2.17934,-6.62143 -0.17149,-8.97226 -3.98121,-3.98121 -11.07331,-1.09288 -11.07331,4.50972 0,2.94767 1.52494,5.21921 4.23212,6.30413 2.27407,0.91135 4.84944,0.23505 7.01268,-1.84159 z m 234.2608,-55.97635 c 4.80291,-2.48368 4.59736,-9.20945 -0.35359,-11.5704 -2.67284,-1.27458 -3.15879,-1.27106 -5.69671,0.0414 -4.69006,2.42532 -4.89901,9.02659 -0.36361,11.48747 1.32778,0.72045 2.73151,1.3258 3.1194,1.34522 0.38789,0.0194 1.87042,-0.56722 3.29451,-1.30365 z M 767.225,692.93307 c 2.26435,-2.1737 2.17934,-6.62143 -0.17149,-8.97226 -3.98121,-3.98121 -11.0733,-1.09288 -11.0733,4.50972 0,2.94767 1.52494,5.21921 4.23211,6.30413 2.27408,0.91136 4.84945,0.23504 7.01268,-1.84159 z m 228.76173,-1.89711 c 1.52539,-1.52539 1.52539,-88.96212 0,-90.48751 -1.52539,-1.52539 -88.96213,-1.52539 -90.48752,0 -1.52539,1.52539 -1.52539,88.96212 0,90.48751 1.52539,1.52539 88.96213,1.52539 90.48752,0 z m -72.74192,-13.59367 c -5.23803,-2.58317 -5.57476,-4.49491 -5.57476,-31.65008 0,-20.41856 0.22831,-24.90901 1.39107,-27.35933 2.5558,-5.38597 4.3725,-5.7136 31.68185,-5.7136 20.41856,0 24.90901,0.22832 27.35933,1.39107 5.38596,2.55581 5.71359,4.37251 5.71359,31.68186 0,27.30934 -0.32763,29.12604 -5.71359,31.68185 -2.45503,1.16499 -6.92321,1.3878 -27.49262,1.37099 -20.49484,-0.0168 -25.02534,-0.249 -27.36487,-1.40276 z m 47.34191,-31.65008 v -19.84376 h -19.84375 -19.84375 v 19.84376 19.84375 h 19.84375 19.84375 z m -47.34191,364.14319 c -5.23803,-2.5832 -5.57476,-4.4949 -5.57476,-31.65012 0,-27.3093 0.32763,-29.126 5.71359,-31.6818 2.45032,-1.1628 6.94078,-1.3911 27.35933,-1.3911 27.30935,0 29.12605,0.3276 31.68186,5.7136 1.16275,2.4503 1.39106,6.9408 1.39106,27.3593 0,27.30932 -0.32763,29.12602 -5.71359,31.68192 -2.45503,1.1649 -6.92321,1.3878 -27.49262,1.3709 -20.49484,-0.017 -25.02534,-0.249 -27.36487,-1.4027 z m 47.34191,-31.65012 v -19.8437 h -19.84375 -19.84375 v 19.8437 19.8438 h 19.84375 19.84375 z M 590.75169,677.44229 c -5.23803,-2.58317 -5.57475,-4.49491 -5.57475,-31.65008 0,-20.41856 0.22831,-24.90901 1.39106,-27.35933 2.55581,-5.38597 4.37251,-5.7136 31.68186,-5.7136 27.30934,0 29.12605,0.32763 31.68185,5.7136 1.16276,2.45032 1.39107,6.94077 1.39107,27.35933 0,27.30934 -0.32763,29.12604 -5.71359,31.68185 -2.45503,1.16499 -6.92321,1.3878 -27.49262,1.37099 -20.49484,-0.0168 -25.02534,-0.249 -27.36488,-1.40276 z m 47.34192,-31.65008 V 625.94845 H 618.24986 598.4061 v 19.84376 19.84375 h 19.84376 19.84375 z"
       id="path9" /></g></svg>
