<?xml version="1.0" encoding="UTF-8" standalone="no"?>
<!-- Created with Inkscape (http://www.inkscape.org/) -->

<svg
   width="512"
   height="512"
   viewBox="0 0 512 512"
   version="1.1"
   id="svg1"
   xml:space="preserve"
   inkscape:version="1.4.4 (dcaf3e7d9e, 2026-05-05)"
   sodipodi:docname="iconos-nosotros.svg"
   xmlns:inkscape="http://www.inkscape.org/namespaces/inkscape"
   xmlns:sodipodi="http://sodipodi.sourceforge.net/DTD/sodipodi-0.dtd"
   xmlns="http://www.w3.org/2000/svg"
   xmlns:svg="http://www.w3.org/2000/svg"><sodipodi:namedview
     id="namedview1"
     pagecolor="#ffffff"
     bordercolor="#999999"
     borderopacity="1"
     inkscape:showpageshadow="2"
     inkscape:pageopacity="0"
     inkscape:pagecheckerboard="0"
     inkscape:deskcolor="#d1d1d1"
     inkscape:document-units="px"
     inkscape:zoom="0.4716347"
     inkscape:cx="811.00903"
     inkscape:cy="963.66955"
     inkscape:window-width="1920"
     inkscape:window-height="915"
     inkscape:window-x="0"
     inkscape:window-y="40"
     inkscape:window-maximized="1"
     inkscape:current-layer="layer1"><inkscape:page
       x="0"
       y="0"
       width="512"
       height="512"
       id="page2"
       margin="0"
       bleed="0"
       inkscape:export-filename="/home/darkarc01/Desarrollos/Shamba/Lele/web-site/src/assets/icons/vision.svg"
       inkscape:export-xdpi="200"
       inkscape:export-ydpi="200" /></sodipodi:namedview><defs
     id="defs1" /><g
     inkscape:label="Capa 1"
     inkscape:groupmode="layer"
     id="layer1"
     transform="translate(-528.35553,-0.17409098)"><path
       style="fill:#000000;stroke-width:1.12145"
       d="m 764.23231,510.20223 c -23.22043,-1.79162 -48.20007,-7.40705 -69.389,-15.59866 -14.29044,-5.52466 -33.17986,-14.75852 -44.17664,-21.59519 -12.1527,-7.5553 -30.65488,-21.83418 -41.34561,-31.90807 -27.25257,-25.68009 -51.30139,-62.3592 -64.23388,-97.9691 -7.99358,-22.0105 -12.54778,-44.09184 -14.53416,-70.46961 -2.51833,-33.44202 2.96933,-71.66341 14.92968,-103.98479 12.20057,-32.97056 31.30872,-63.34375 55.81137,-88.714487 C 622.21462,58.300587 645.69112,41.195449 672.83149,27.839664 709.79534,9.6497441 752.737,0.52518295 793.67822,2.161277 c 27.71797,1.1076609 58.43354,7.5084508 84.43659,17.595669 5.65281,2.192868 11.38028,5.197998 12.7277,6.678088 3.53184,3.879563 3.37455,11.103077 -0.33784,15.514989 -4.14151,4.921899 -8.27278,5.248149 -17.94577,1.417179 C 825.58004,24.761283 775.32964,21.041064 729.14049,32.749406 702.66067,39.4617 679.17965,49.949979 655.92812,65.451207 639.07569,76.686312 623.07026,90.830219 610.0646,105.98059 c -13.0258,15.17379 -23.49496,31.13226 -32.60462,49.70022 -13.32924,27.16863 -20.95583,55.79508 -22.64225,84.98762 -1.0445,18.08066 -0.039,40.21566 2.4829,54.65386 2.37053,13.57212 8.37891,34.93137 13.14242,46.72009 8.57216,21.21446 23.20315,45.65158 37.0457,61.87498 22.13498,25.94207 46.29506,44.81397 76.20447,59.52478 16.89976,8.31209 32.33745,13.73218 50.86122,17.85709 17.74588,3.95168 28.29849,5.01269 49.85526,5.01269 21.54416,0 32.11042,-1.06127 49.81295,-5.00319 17.26314,-3.84412 33.53483,-9.41578 48.72587,-16.68446 24.96107,-11.94347 45.17106,-26.18015 64.25345,-45.26252 59.31053,-59.31057 81.63863,-145.45442 58.67753,-226.38351 -1.5129,-5.33186 -4.716,-14.86293 -7.11821,-21.18018 -5.0356,-13.24214 -4.98966,-16.89967 0.26785,-21.32358 4.41266,-3.71306 11.64046,-3.87058 15.50136,-0.33784 4.5386,4.15276 14.5946,32.73298 19.0597,54.16915 3.8717,18.58661 5.0021,30.61001 4.9651,52.80809 -0.042,24.89701 -1.8167,39.66078 -7.4431,61.90265 -4.6359,18.32598 -9.9103,32.5236 -18.6665,50.24651 -13.21697,26.75166 -30.33822,50.16191 -51.55597,70.49359 -6.62834,6.35152 -16.82633,15.13759 -22.66219,19.52455 -26.77886,20.13034 -58.16314,35.43085 -88.77043,43.2775 -15.84011,4.06085 -29.54472,6.30282 -46.96769,7.68356 -15.45251,1.2246 -21.95531,1.21779 -38.25711,-0.04 z m -9.76536,-79.30783 c -14.42943,-2.67478 -23.08051,-5.01597 -32.79595,-8.87535 -27.52979,-10.936 -52.34876,-28.07278 -70.09812,-48.40069 -9.44858,-10.82124 -21.02982,-28.41592 -27.15743,-41.25866 -9.3826,-19.66479 -14.33714,-38.22643 -16.52908,-61.92425 -0.97881,-10.58231 -0.98596,-17.15601 -0.03,-27.5472 0.69061,-7.50645 2.0219,-17.42092 2.95844,-22.03218 2.35248,-11.58297 9.30423,-32.10645 14.1026,-41.63477 18.32244,-36.3835 46.31484,-64.3712 81.54848,-81.534802 21.03529,-10.247056 40.15129,-15.498308 63.93616,-17.563579 9.42989,-0.818804 17.26967,-0.812644 26.98737,0.02124 19.36267,1.661469 28.3727,3.70171 31.3414,7.097021 5.41649,6.194823 3.74011,15.29721 -3.44862,18.72527 -3.38446,1.61394 -4.5419,1.60545 -14.83012,-0.10856 -14.10651,-2.3501 -39.34466,-2.4034 -52.45609,-0.11079 -20.23219,3.53774 -40.64722,11.88585 -59.60364,24.37316 -11.06507,7.28898 -31.23187,26.97484 -38.63108,37.7098 -7.71222,11.1891 -16.32192,28.02995 -20.03943,39.19777 -1.7941,5.3897 -4.31388,14.94415 -5.59951,21.23213 -2.03527,9.95446 -2.27658,14.03716 -1.8663,31.57598 0.36567,15.63276 0.98543,22.2157 2.76778,29.39832 5.39926,21.75863 12.54929,37.9111 24.5809,55.53018 7.15279,10.47455 26.10616,29.43389 36.60997,36.62152 19.33253,13.22899 41.39613,22.26791 63.58891,26.0508 8.23978,1.40454 14.82851,1.68667 29.32187,1.25563 20.03218,-0.59577 28.12794,-1.95644 44.74402,-7.52028 21.51325,-7.20362 41.23446,-19.62433 58.37648,-36.76635 17.14203,-17.14203 29.56273,-36.86322 36.76636,-58.37648 5.47112,-16.33919 6.88019,-24.71638 7.49516,-44.5601 0.44038,-14.21007 0.16685,-20.84987 -1.17745,-28.5822 -2.54713,-14.65092 -2.39247,-16.1805 2.08921,-20.66218 3.53918,-3.53918 4.23224,-3.79613 8.83877,-3.27689 7.25812,0.81809 9.7982,3.86705 12.03268,14.4434 1.38486,6.55482 1.84975,14.54346 1.89913,32.63374 0.0714,26.13921 -0.7509,32.2862 -7.13663,53.35251 -4.32835,14.27906 -15.32283,36.7376 -23.98423,48.99284 -8.58577,12.14819 -27.68579,31.49779 -40.67633,41.20785 -11.21105,8.37992 -35.90533,21.03866 -49.29768,25.27089 -18.44172,5.82791 -27.62815,7.19328 -51.4188,7.64232 -18.40028,0.3473 -24.23348,0.0667 -33.20922,-1.59707 z m 19.98144,-81.88092 c -13.97507,-1.18037 -29.72434,-6.94639 -42.30239,-15.48748 -7.26652,-4.93429 -19.28522,-16.78934 -23.92988,-23.60402 -5.72109,-8.39404 -10.27753,-17.76082 -13.26007,-27.25904 -2.25704,-7.18775 -2.54678,-10.20577 -2.50515,-26.09348 0.0453,-17.23669 0.18769,-18.38532 3.51287,-28.30949 1.90619,-5.68912 5.68624,-14.12744 8.40011,-18.7518 5.88998,-10.03639 15.89772,-21.02579 25.17892,-27.64872 10.08427,-7.19599 24.22197,-13.399 36.21527,-15.88971 8.43825,-1.7524 12.93011,-2.05704 23.00693,-1.56034 7.05682,0.34787 16.08542,1.56449 20.6877,2.78771 6.11833,1.62619 8.9171,3.00596 11.16048,5.50201 5.60354,6.23466 3.0681,15.71242 -5.11833,19.13294 -2.96436,1.23858 -4.67123,1.08479 -13.54791,-1.22078 -11.6319,-3.02118 -20.67808,-3.32151 -31.49704,-1.04567 -9.75638,2.05231 -18.32772,5.88103 -26.96679,12.04575 -8.60399,6.13967 -16.02097,15.09309 -20.72264,25.01537 -4.98272,10.51536 -6.94687,18.97528 -6.94687,29.92119 0,18.32907 7.1587,35.4924 20.20784,48.44936 9.05829,8.99427 19.40239,14.89366 31.57261,18.00627 16.41497,4.19824 34.13995,1.98151 49.7513,-6.22202 10.45637,-5.49467 21.89415,-16.90939 27.27509,-27.22007 2.25004,-4.31149 5.05722,-11.61695 6.23818,-16.23438 2.62794,-10.27515 2.77936,-23.77668 0.35889,-32.00118 -0.96934,-3.2937 -1.99086,-8.31753 -2.27005,-11.16404 -0.46768,-4.76809 -0.20795,-5.47517 3.29971,-8.98283 3.14187,-3.14188 4.60661,-3.80733 8.38039,-3.80733 3.71475,0 5.23074,0.66419 8.07699,3.53869 2.79864,2.82643 3.92728,5.40149 5.60745,12.79371 2.82728,12.43916 2.81855,34.36717 -0.0179,45.18632 -4.25216,16.21873 -11.59199,29.80121 -22.21101,41.10176 -3.98389,4.23958 -11.49296,10.50778 -16.68679,13.92932 -17.9927,11.85301 -38.67144,16.97352 -60.94785,15.09198 z m 5.06158,-82.81953 c -4.022,-2.21183 -5.93929,-5.64515 -5.96434,-10.68044 l -0.0242,-4.86688 41.37541,-41.42698 41.37542,-41.42698 v -28.61708 c 0,-22.72836 0.32063,-29.22208 1.55811,-31.55727 0.85695,-1.6171 24.49811,-25.816005 52.53589,-53.775332 33.37355,-33.280151 51.99186,-51.0822099 53.91426,-51.5505918 4.1246,-1.0049358 10.40723,1.3396647 12.61789,4.708836 1.58522,2.4159808 1.94903,6.7135718 2.4113,28.4845388 l 0.54441,25.639293 25.63928,0.544404 c 21.7709,0.46228 26.0684,0.826077 28.4845,2.411291 3.3691,2.210656 5.7137,8.493291 4.7088,12.617912 -0.4684,1.922387 -18.2704,20.540679 -51.55052,53.914229 -27.95932,28.03778 -52.15823,51.67894 -53.77533,52.53589 -2.33519,1.2375 -8.82891,1.55811 -31.55728,1.55811 h -28.61706 l -41.427,41.37542 c -40.70357,40.6529 -41.50246,41.37484 -45.74942,41.3423 -2.37735,-0.0181 -5.3024,-0.57201 -6.50011,-1.23067 z M 959.71081,123.18818 997.2635,85.623652 h -15.00041 c -17.14605,0 -21.28076,-1.128103 -24.70203,-6.739639 -1.93197,-3.168814 -2.19791,-5.478526 -2.20149,-19.119988 -0.002,-8.533683 -0.36888,-15.515784 -0.81476,-15.515784 -0.4459,0 -17.34994,16.533852 -37.56453,36.741896 l -36.75383,36.741893 v 20.89361 20.89359 l 2.99427,0.4536 c 1.64684,0.24947 11.08148,0.527 20.96583,0.61673 l 17.97157,0.16315 z"
       id="path2" /></g></svg>
