<?xml version="1.0" encoding="UTF-8" standalone="no"?>
<!-- Created with Inkscape (http://www.inkscape.org/) -->

<svg
   width="512"
   height="512"
   viewBox="0 0 512 512"
   version="1.1"
   id="svg1"
   xml:space="preserve"
   xmlns:inkscape="http://www.inkscape.org/namespaces/inkscape"
   xmlns:sodipodi="http://sodipodi.sourceforge.net/DTD/sodipodi-0.dtd"
   xmlns="http://www.w3.org/2000/svg"
   xmlns:svg="http://www.w3.org/2000/svg"><sodipodi:namedview
     id="namedview1"
     pagecolor="#ffffff"
     bordercolor="#999999"
     borderopacity="1"
     inkscape:showpageshadow="2"
     inkscape:pageopacity="0"
     inkscape:pagecheckerboard="0"
     inkscape:deskcolor="#d1d1d1"
     inkscape:document-units="px"><inkscape:page
       x="0"
       y="0"
       width="512"
       height="512"
       id="page2"
       margin="0"
       bleed="0" /></sodipodi:namedview><defs
     id="defs1" /><g
     inkscape:label="Capa 1"
     inkscape:groupmode="layer"
     id="layer1"
     transform="translate(-528.35553,-0.17409098)"><path
       style="fill:#000000"
       d="m 762.25127,481.07275 c -20.70586,-1.5976 -42.98042,-6.60493 -61.87477,-13.90946 -12.74291,-4.92639 -29.58677,-13.1603 -39.3927,-19.25662 -10.83666,-6.73713 -27.33522,-19.46973 -36.86824,-28.4527 -24.30135,-22.89916 -45.74589,-55.60625 -57.2779,-87.35991 -7.12794,-19.62695 -11.18897,-39.31707 -12.96023,-62.83835 -2.24562,-29.82055 2.64777,-63.90289 13.31291,-92.72414 10.87936,-29.40013 27.91826,-56.48417 49.76749,-79.107475 18.65504,-19.31596 39.58924,-34.56876 63.79054,-46.47823 32.96098,-16.22011 71.25244,-24.35656 107.76007,-22.89764 24.71636,0.98771 52.10571,6.69535 75.29285,15.69021 5.04066,1.9554 10.14789,4.6351 11.3494,5.95491 3.14937,3.45944 3.00911,9.90071 -0.30126,13.83485 -3.69302,4.3889 -7.37691,4.67982 -16.0024,1.26371 -41.89145,-16.59106 -86.70017,-19.90841 -127.88744,-9.46798 -23.61228,5.98541 -44.55052,15.3379 -65.2841,29.16048 -15.02746,10.01844 -29.29964,22.630685 -40.8969,36.140395 -11.61522,13.53061 -20.95066,27.76091 -29.07382,44.31812 -11.8858,24.22651 -18.68651,49.75296 -20.1903,75.7842 -0.93138,16.12268 -0.0347,35.86066 2.21402,48.73532 2.11383,12.10238 7.47155,31.14861 11.71921,41.66071 7.64388,18.91711 20.69045,40.70791 33.03398,55.17446 19.73796,23.13276 41.28171,39.961 67.95218,53.07876 15.06967,7.41196 28.83559,12.2451 45.35339,15.92332 15.82416,3.52375 25.23401,4.46987 44.45637,4.46987 19.21112,0 28.63314,-0.94635 44.41865,-4.46141 15.39369,-3.42782 29.90329,-8.39612 43.44927,-14.87766 22.25801,-10.6501 40.27943,-23.34507 57.29536,-40.36099 52.88774,-52.88774 72.79791,-129.70297 52.32325,-201.86813 -1.34893,-4.75447 -4.20524,-13.25341 -6.34735,-18.88655 -4.49029,-11.80814 -4.44932,-15.06959 0.23884,-19.01442 3.93487,-3.31098 10.37987,-3.45144 13.82272,-0.30126 4.04708,3.70305 13.01425,29.18828 16.99584,48.30309 3.4523,16.57384 4.4603,27.29522 4.4273,47.08944 -0.037,22.20088 -1.6199,35.36586 -6.6371,55.19913 -4.13383,16.34144 -8.83706,29.00157 -16.64507,44.80525 -11.78571,23.85468 -27.05288,44.72981 -45.97293,62.85974 -5.91055,5.66372 -15.00418,13.49832 -20.20807,17.41021 -23.87895,17.95041 -51.86457,31.59401 -79.15736,38.59092 -14.12477,3.6211 -26.34529,5.62029 -41.8815,6.85151 -13.77914,1.09198 -19.57775,1.08591 -34.1142,-0.0357 z m -8.70785,-70.71948 c -12.86685,-2.38512 -20.58109,-4.47278 -29.24444,-7.91423 -24.54855,-9.75173 -46.67985,-25.03274 -62.5071,-43.15932 -8.42538,-9.64938 -18.75247,-25.33872 -24.21652,-36.7907 -8.36654,-17.53526 -12.78455,-34.08684 -14.73912,-55.21839 -0.87282,-9.43635 -0.87919,-15.29816 -0.0267,-24.56408 0.61582,-6.69356 1.80294,-15.53439 2.63806,-19.64628 2.09772,-10.32864 8.29666,-28.62961 12.57542,-37.1261 16.33827,-32.44347 41.29933,-57.40034 72.71748,-72.70528 18.75735,-9.13739 35.80325,-13.819975 57.01243,-15.661595 8.40872,-0.73013 15.39952,-0.72464 24.06487,0.0189 17.26586,1.48155 25.30018,3.300855 27.9474,6.328475 4.82993,5.52398 3.33509,13.64065 -3.07517,16.69749 -3.01795,1.43916 -4.05005,1.4316 -13.22414,-0.0968 -12.5789,-2.09561 -35.08398,-2.14315 -46.77555,-0.0988 -18.04123,3.15463 -36.24548,10.59872 -53.14909,21.73376 -9.86681,6.49964 -27.84973,24.0537 -34.44767,33.62616 -6.87705,9.97742 -14.5544,24.99455 -17.86932,34.95299 -1.59982,4.80604 -3.84673,13.32583 -4.99314,18.93287 -1.81487,8.87648 -2.03005,12.51706 -1.6642,28.15657 0.32608,13.93987 0.87873,19.80994 2.46805,26.21474 4.81457,19.40236 11.19032,33.80566 21.91901,49.51674 6.37821,9.34025 23.27909,26.24646 32.64543,32.65573 17.23898,11.79641 36.91329,19.85649 56.70277,23.22973 7.34749,1.25243 13.22272,1.50402 26.14658,1.11966 17.86287,-0.53125 25.08193,-1.74458 39.89863,-6.7059 19.18355,-6.42354 36.76912,-17.49919 52.05481,-32.78488 15.28569,-15.2857 26.36134,-32.87126 32.78488,-52.05481 4.87864,-14.56979 6.13512,-22.03981 6.6835,-39.73463 0.39269,-12.67124 0.14878,-18.59201 -1.04994,-25.48699 -2.2713,-13.06435 -2.13339,-14.4283 1.86296,-18.42465 3.15592,-3.15592 3.77393,-3.38504 7.88161,-2.92204 6.47213,0.7295 8.73714,3.4483 10.72965,12.87931 1.23489,5.84499 1.64944,12.96853 1.69347,29.09979 0.0636,23.30856 -0.66959,28.78989 -6.3638,47.5749 -3.85962,12.73276 -13.6635,32.75924 -21.38695,43.68734 -7.656,10.83265 -24.68765,28.08685 -36.27143,36.74539 -9.99699,7.47245 -32.01709,18.76036 -43.95917,22.53428 -16.44464,5.1968 -24.63626,6.41431 -45.85059,6.81472 -16.40769,0.30969 -21.6092,0.0595 -29.61295,-1.42412 z m 17.81762,-73.01393 c -12.46169,-1.05255 -26.50545,-6.19416 -37.72141,-13.81031 -6.47961,-4.39996 -17.1968,-14.97121 -21.33847,-21.04792 -5.10155,-7.48504 -9.16457,-15.83748 -11.82413,-24.30712 -2.01262,-6.40938 -2.27099,-9.10057 -2.23386,-23.26778 0.0403,-15.37011 0.16737,-16.39436 3.13245,-25.24382 1.69977,-5.07304 5.07047,-12.59756 7.49045,-16.72115 5.25215,-8.94953 14.17614,-18.74888 22.45227,-24.6546 8.99223,-6.41672 21.59893,-11.948 32.29346,-14.16898 7.52447,-1.56264 11.52989,-1.83429 20.51548,-1.39137 6.29263,0.31019 14.34352,1.39506 18.44741,2.48582 5.45576,1.45008 7.95145,2.68044 9.95189,4.90619 4.99673,5.5595 2.73585,14.0109 -4.56406,17.061 -2.64335,1.10446 -4.16537,0.96731 -12.08078,-1.08858 -10.37227,-2.69401 -18.43883,-2.96181 -28.08618,-0.93243 -8.69985,1.83007 -16.343,5.24417 -24.04653,10.74129 -7.67225,5.47481 -14.28604,13.45865 -18.47856,22.30643 -4.44313,9.37664 -6.19458,16.92042 -6.19458,26.68098 0,16.3442 6.38347,31.64889 18.01951,43.20272 8.07735,8.02027 17.30128,13.28081 28.15356,16.05635 14.63737,3.74361 30.44289,1.76693 44.36367,-5.54823 9.32404,-4.89964 19.52321,-15.07825 24.32143,-24.27238 2.00639,-3.84458 4.50958,-10.35892 5.56264,-14.47633 2.34336,-9.16244 2.47838,-21.20187 0.32003,-28.53573 -0.86436,-2.93703 -1.77527,-7.41681 -2.02423,-9.95507 -0.41703,-4.25175 -0.18542,-4.88226 2.94238,-8.01006 2.80164,-2.80165 4.10776,-3.39503 7.47288,-3.39503 3.31246,0 4.66429,0.59226 7.20231,3.15547 2.49558,2.52036 3.502,4.81656 5.00022,11.40827 2.5211,11.0921 2.51332,30.6455 -0.016,40.29303 -3.79169,14.46238 -10.33669,26.57399 -19.80576,36.65079 -3.55247,3.78048 -10.24836,9.36988 -14.87975,12.4209 -16.04424,10.56944 -34.48365,15.13544 -54.34772,13.45765 z m 4.51345,-73.85089 c -3.58645,-1.97231 -5.29611,-5.03383 -5.31845,-9.52385 l -0.0216,-4.33983 36.89482,-36.9408 36.89482,-36.9408 v -25.51809 c 0,-20.26708 0.2859,-26.05759 1.38938,-28.13989 0.76415,-1.44199 21.84517,-23.020365 46.84671,-47.951935 29.75948,-29.6762 46.36158,-45.55045 48.0758,-45.96811 3.67795,-0.89611 9.28023,1.19459 11.25149,4.19891 1.41355,2.15435 1.73796,5.98655 2.15017,25.39991 l 0.48546,22.86278 22.86277,0.48545 c 19.41336,0.41222 23.24554,0.73662 25.39994,2.15017 3.0043,1.97126 5.095,7.57354 4.1989,11.2515 -0.4177,1.71421 -16.29192,18.316305 -45.96813,48.075785 -24.93157,25.00154 -46.50995,46.08256 -47.95194,46.84671 -2.0823,1.10348 -7.87281,1.38938 -28.13989,1.38938 h -25.51809 l -36.9408,36.89482 c -36.29574,36.25055 -37.00811,36.8943 -40.79517,36.86529 -2.1199,-0.0162 -4.72819,-0.51007 -5.7962,-1.0974 z M 936.56115,135.96896 970.04721,102.47235 H 956.6712 c -15.28927,0 -18.97623,-1.00594 -22.027,-6.009795 -1.72276,-2.82566 -1.9599,-4.88525 -1.96309,-17.04946 -0.002,-7.60956 -0.32894,-13.83556 -0.72654,-13.83556 -0.3976,0 -15.47108,14.74338 -33.49661,32.76307 l -32.77371,32.763065 v 18.63101 18.631 l 2.67002,0.40447 c 1.46851,0.22246 9.88145,0.46994 18.69542,0.54995 l 16.0254,0.14548 z"
       id="path2" /></g></svg>
