<?xml version="1.0" encoding="UTF-8" standalone="no"?>
<!-- Created with Inkscape (http://www.inkscape.org/) -->

<svg
   width="512"
   height="512"
   viewBox="0 0 512 512"
   version="1.1"
   id="svg1"
   xml:space="preserve"
   inkscape:version="1.4.4 (dcaf3e7d9e, 2026-05-05)"
   sodipodi:docname="iconos-distribucion.svg"
   xmlns:inkscape="http://www.inkscape.org/namespaces/inkscape"
   xmlns:sodipodi="http://sodipodi.sourceforge.net/DTD/sodipodi-0.dtd"
   xmlns="http://www.w3.org/2000/svg"
   xmlns:svg="http://www.w3.org/2000/svg"><sodipodi:namedview
     id="namedview1"
     pagecolor="#ffffff"
     bordercolor="#999999"
     borderopacity="1"
     inkscape:showpageshadow="2"
     inkscape:pageopacity="0"
     inkscape:pagecheckerboard="0"
     inkscape:deskcolor="#d1d1d1"
     inkscape:document-units="px"
     inkscape:zoom="0.66699219"
     inkscape:cx="-35.232796"
     inkscape:cy="529.99121"
     inkscape:window-width="1920"
     inkscape:window-height="915"
     inkscape:window-x="0"
     inkscape:window-y="40"
     inkscape:window-maximized="1"
     inkscape:current-layer="layer1"><inkscape:page
       x="0"
       y="0"
       width="512"
       height="512"
       id="page1"
       margin="0"
       bleed="0" /></sodipodi:namedview><defs
     id="defs1" /><g
     inkscape:label="Capa 1"
     inkscape:groupmode="layer"
     id="layer1"><path
       style="fill:#f0cc4d"
       d="M 247.87908,490.84246 C 194.41392,488.95108 142.65687,468.15507 102.6387,432.48481 66.620559,400.37998 41.739449,358.70932 30.707789,312.01554 c -4.17013,-17.65094 -5.97242,-33.78551 -5.96829,-53.42959 0.008,-36.60563 7.7113,-69.72462 23.84814,-102.52704 26.68705,-54.2485 75.018221,-96.899316 131.834011,-116.339592 22.68087,-7.760562 42.18107,-11.467 66.42597,-12.625703 l 10.52088,-0.502811 9.07684,0.484565 c 34.66175,1.850408 63.27275,9.180306 92.83133,23.782608 23.30182,11.511377 43.05612,25.728401 61.89902,44.548261 8.2157,8.205652 13.65317,14.434222 20.42338,23.394782 27.69223,36.65139 43.54114,79.10715 46.63759,124.93192 0.61813,9.14785 0.27539,30.60361 -0.61954,38.78287 -3.20637,29.3049 -11.40663,56.81436 -24.53582,82.31044 -26.21923,50.91612 -69.84899,90.14146 -123.19606,110.75944 -23.12083,8.93591 -48.96922,14.32077 -72.40844,15.08448 -3.74419,0.12199 -7.82877,0.27634 -9.07684,0.343 -1.24806,0.0667 -5.98246,-0.0102 -10.52088,-0.17071 z m 25.58019,-46.62756 c 31.44223,-2.89215 60.98464,-13.39217 87.25354,-31.01182 26.76605,-17.9531 49.38671,-44.01192 63.19785,-72.80342 16.04896,-33.45658 21.882,-69.0435 17.24819,-105.22995 -2.53433,-19.79119 -8.15587,-38.81468 -16.672,-56.4187 C 402.18458,132.64917 363.08038,98.254221 314.78207,82.257792 284.4205,72.202021 251.89078,70.277221 220.02968,76.651244 c -38.42934,7.688043 -71.99605,26.453306 -99.63715,55.701496 -17.37801,18.3884 -31.420031,41.92723 -40.186511,67.3652 -3.6078,10.46887 -6.93737,25.90488 -8.55965,39.68287 l -0.72869,6.18876 -0.009,12.99638 c -0.009,12.68385 0.26182,17.08249 1.65248,26.81794 6.99683,48.98178 33.036641,92.75288 72.997621,122.70386 32.90723,24.66417 73.5124,37.63805 114.90455,36.71352 4.65188,-0.10391 10.50025,-0.37677 12.99639,-0.60637 z m 68.69518,-117.086 c -1.92883,-0.66945 -9.16967,-3.3512 -16.09077,-5.95943 -6.92109,-2.60823 -21.27875,-8.01482 -31.90592,-12.01464 -18.35442,-6.90818 -23.82884,-9.22583 -27.67506,-11.71652 -11.55331,-7.48154 -20.11939,-17.13359 -25.83493,-29.11022 -3.64082,-7.62915 -5.35591,-13.32162 -6.39112,-21.21247 l -0.61171,-4.66269 v -51.11894 c 0,-35.48819 0.13839,-51.78747 0.45259,-53.30531 1.67549,-8.09388 8.57153,-15.29875 16.70767,-17.45592 2.93501,-0.77817 8.26893,-0.86765 11.10172,-0.18624 3.84508,0.92491 7.92971,3.1772 10.6824,5.89034 2.96129,2.91874 4.41876,5.23155 5.96856,9.47128 l 1.09014,2.98225 0.2181,52.39813 0.21809,52.39813 0.551,1.65033 c 1.7814,5.33566 5.93963,10.57836 10.52034,13.26406 1.33687,0.78382 17.30386,6.99831 35.48219,13.80999 18.17833,6.81168 33.97983,12.94727 35.11443,13.63465 6.27117,3.79925 10.89756,12.17104 10.92632,19.77196 0.009,2.34551 -1.33402,7.71142 -2.5284,10.10292 -2.37806,4.76162 -7.31725,9.14196 -12.60271,11.17677 l -2.80913,1.08146 -4.53842,0.16365 -4.53842,0.16365 z"
       id="path1" /></g></svg>
