<?xml version="1.0" encoding="UTF-8" standalone="no"?>
<!-- Created with Inkscape (http://www.inkscape.org/) -->

<svg
   width="512"
   height="512"
   viewBox="0 0 512 512"
   version="1.1"
   id="svg1"
   xml:space="preserve"
   inkscape:version="1.4.4 (dcaf3e7d9e, 2026-05-05)"
   sodipodi:docname="iconos-nosotros.svg"
   xmlns:inkscape="http://www.inkscape.org/namespaces/inkscape"
   xmlns:sodipodi="http://sodipodi.sourceforge.net/DTD/sodipodi-0.dtd"
   xmlns="http://www.w3.org/2000/svg"
   xmlns:svg="http://www.w3.org/2000/svg"><sodipodi:namedview
     id="namedview1"
     pagecolor="#ffffff"
     bordercolor="#999999"
     borderopacity="1"
     inkscape:showpageshadow="2"
     inkscape:pageopacity="0"
     inkscape:pagecheckerboard="0"
     inkscape:deskcolor="#d1d1d1"
     inkscape:document-units="px"
     inkscape:zoom="0.4716347"
     inkscape:cx="811.00903"
     inkscape:cy="963.66955"
     inkscape:window-width="1920"
     inkscape:window-height="915"
     inkscape:window-x="0"
     inkscape:window-y="40"
     inkscape:window-maximized="1"
     inkscape:current-layer="layer1"><inkscape:page
       x="0"
       y="0"
       width="512"
       height="512"
       id="page8"
       margin="0"
       bleed="0"
       inkscape:export-filename="/home/darkarc01/Desarrollos/Shamba/Lele/web-site/src/assets/icons/innovacion.svg"
       inkscape:export-xdpi="200"
       inkscape:export-ydpi="200" /></sodipodi:namedview><defs
     id="defs1" /><g
     inkscape:label="Capa 1"
     inkscape:groupmode="layer"
     id="layer1"
     transform="translate(-1060.6393,-1104.6685)"><path
       style="fill:#000000"
       d="m 1189.7931,1596.6528 c -3.7342,-2.6709 -101.4922,-117.6076 -102.6591,-120.699 -2.1538,-5.7062 -0.3836,-7.0662 31.9065,-24.5124 16.4819,-8.9052 30.8794,-16.2177 31.9946,-16.25 3.1876,-0.093 6.296,2.6587 9.5819,8.4811 l 3.032,5.3723 5.1793,-2.2937 c 7.6811,-3.4016 49.3327,-25.3487 63.5369,-33.4789 6.7967,-3.8903 13.1875,-7.3366 14.2019,-7.6586 1.9087,-0.6058 122.0178,30.4129 127.574,32.9465 4.3221,1.971 10.1321,7.2408 13.0113,11.8018 1.3242,2.0977 3.1198,6.5936 3.9901,9.9909 1.4805,5.779 1.4234,10.7146 -0.1986,17.1775 -0.5869,2.3383 0.2188,2.1612 31.7307,-6.9738 17.7831,-5.1552 49.0885,-14.2026 69.5674,-20.1054 l 37.2345,-10.7323 2.7655,2.0483 c 1.5386,1.1396 3.8555,4.6697 5.2223,7.9569 2.0458,4.9199 2.4594,7.5816 2.4723,15.9085 0.013,8.1375 -0.4154,11.0805 -2.2977,15.8011 -1.4147,3.5477 -4.3173,7.9214 -7.4723,11.2595 l -5.159,5.4585 -80.5,34.1117 c -44.275,18.7614 -81.625,34.1181 -83,34.1258 -1.375,0.01 -27.7926,-4.1574 -58.7058,-9.2561 l -56.2057,-9.2703 -10.7943,6.2652 c -5.9368,3.4459 -10.976,6.4259 -11.1981,6.6222 -0.2222,0.1963 1.0453,3.5012 2.8167,7.3442 2.9158,6.3259 3.0954,7.2488 1.8973,9.7485 -0.9875,2.0604 -5.2456,4.8757 -16.777,11.0925 -8.4995,4.5822 -16.5965,8.5496 -17.9933,8.8163 -1.442,0.2754 -3.497,-0.1995 -4.7543,-1.0988 z m 21.4634,-25.6053 c -1.3025,-3.0614 -63.0427,-116.915 -63.4003,-116.915 -1.2123,0 -40.3435,21.5901 -40.3459,22.2604 0,0.4182 13.3629,16.3932 29.6987,35.5 16.3359,19.1068 36.162,42.2936 44.0581,51.5263 l 14.3565,16.7868 7.9409,-4.2868 c 4.3675,-2.3577 7.8289,-4.55 7.692,-4.8717 z m 229.7511,-54.3644 c 81.151,-34.3328 79.6951,-33.5832 82.3341,-42.3914 1.4339,-4.7859 1.5317,-14.8151 0.1528,-15.6673 -0.5572,-0.3444 -35.3674,9.326 -77.356,21.4897 l -76.3429,22.1159 -32.894,-8.0556 c -18.0917,-4.4306 -34.0929,-8.5412 -35.5582,-9.1346 -3.4095,-1.3806 -5.4874,-6.1524 -4.2327,-9.72 0.5078,-1.444 2.1397,-3.3082 3.6265,-4.1427 2.546,-1.429 4.5669,-1.0539 34.756,6.4518 24.2672,6.0334 32.4732,7.7167 33.7836,6.9299 2.8436,-1.7075 7.2308,-11.3507 7.2308,-15.8937 0,-4.8959 -3.5,-12.2213 -7,-14.651 -1.375,-0.9545 -28.4381,-8.5184 -60.1401,-16.8086 -31.702,-8.2901 -58.3008,-15.073 -59.1083,-15.073 -0.8076,0 -8.3946,3.8702 -16.86,8.6004 -8.4654,4.7301 -25.8541,13.9931 -38.6416,20.5844 -12.7875,6.5912 -23.25,12.1226 -23.25,12.2919 0,0.6847 43.9057,81.8263 44.6724,82.5585 0.4552,0.4347 6.4526,-2.5688 13.3276,-6.6743 l 12.5,-7.4645 7,0.6275 c 3.85,0.3452 30.4,4.5694 59,9.3872 44.8011,7.5469 52.4153,8.5942 55,7.5647 1.65,-0.6571 36.75,-15.4735 78,-32.9252 z m -35,-95.4844 c -3.578,-1.5209 -24.0898,-16.3626 -34.2273,-24.7657 -12.5784,-10.4265 -31.6868,-30.0438 -41.2033,-42.3005 -28.2571,-36.3938 -44.9159,-76.093 -51.1944,-122 -1.4088,-10.3011 -1.8534,-49.7906 -0.6105,-54.2318 0.4204,-1.5025 1.9954,-3.3531 3.5,-4.1124 1.5045,-0.7593 6.5605,-1.6833 11.2355,-2.0532 12.5562,-0.9936 30.9461,-4.9733 44.5213,-9.6349 22.0169,-7.5603 41.7048,-18.43 60.3203,-33.3031 4.9432,-3.9493 9.2962,-6.6646 10.6845,-6.6646 1.3667,0 5.5991,2.5877 10.1584,6.2109 18.8847,15.0075 39.3282,26.3553 60.7941,33.7459 13.5564,4.6675 31.9393,8.6502 44.5214,9.6458 4.675,0.3699 9.7309,1.2939 11.2355,2.0532 1.5045,0.7593 3.0795,2.6099 3.5,4.1124 0.4204,1.5025 0.743,12.6318 0.7168,24.7318 -0.034,15.6687 -0.5503,25.3096 -1.7944,33.5 -4.6901,30.8762 -14.5209,59.9212 -29.0333,85.778 -6.7961,12.1086 -18.6409,29.1323 -27.638,39.722 -8.9913,10.583 -29.3816,30.3857 -39.9866,38.8344 -11.4916,9.155 -28.1314,20.4293 -31.0887,21.0642 -1.3262,0.2847 -3.3113,0.1351 -4.4113,-0.3324 z m 18.1559,-27.4268 c 16.0333,-11.9991 34.0533,-28.8571 45.4877,-42.5545 14.2026,-17.0136 26.8859,-37.062 35.007,-55.3353 13.2414,-29.7946 20.1941,-62.8531 19.6271,-93.3227 l -0.2777,-14.9269 -2.5,-0.2673 c -7.9207,-0.8469 -23.4417,-3.7139 -31.6349,-5.8433 -26.4117,-6.8646 -50.2751,-18.3948 -73.4874,-35.5073 -3.6423,-2.6852 -6.9023,-4.8821 -7.2444,-4.8821 -0.3422,0 -4.3173,2.7398 -8.8337,6.0885 -17.3611,12.8725 -37.2032,23.063 -59.0213,30.312 -13.9231,4.626 -24.587,7.1042 -38.7783,9.0118 l -8.5,1.1426 -0.3104,12.4726 c -0.8497,34.1441 7.4761,70.827 23.3329,102.8038 7.7411,15.6105 18.2103,32.0523 28.5545,44.8443 8.0561,9.9623 28.1905,30.1202 37.923,37.967 10.4278,8.4076 24.271,18.2981 25.6559,18.3304 0.6358,0.015 7.3858,-4.6353 15,-10.3336 z m -32.1559,-55.5161 c -1.65,-1.0562 -16.6042,-15.5785 -33.2315,-32.2718 -23.9725,-24.0676 -30.3662,-31.0319 -30.8823,-33.6379 -0.6257,-3.1596 -0.1172,-3.8249 13.1854,-17.25 12.5152,-12.6305 14.1687,-13.9636 17.3192,-13.9636 3.1724,0 5.0497,1.5546 21.0461,17.4285 l 17.5631,17.4286 40.3088,-38.4243 c 22.1698,-21.1333 41.3629,-38.6888 42.6513,-39.0121 1.2884,-0.3234 3.4421,0.012 4.786,0.7457 1.3439,0.7335 7.9133,7.0724 14.5987,14.0865 15.1164,15.8597 15.1438,15.99 5.4052,25.7457 -5.7963,5.8064 -76.9882,73.679 -97.7976,93.2377 -3.8761,3.6432 -8.1511,6.8902 -9.5,7.2157 -1.5602,0.3764 -3.5438,-0.1069 -5.4524,-1.3287 z m 21.5,-33.8306 c 9.075,-8.6345 30.5977,-29.1703 47.8282,-45.6352 l 31.3283,-29.9361 -5.2941,-5.3607 c -2.9118,-2.9484 -5.6478,-5.3607 -6.0801,-5.3607 -0.4324,0 -18.6046,16.9875 -40.3828,37.75 -21.7781,20.7625 -40.5542,38.1107 -41.7246,38.5516 -1.1703,0.4408 -3.2635,0.5192 -4.6514,0.1742 -1.415,-0.3517 -10.007,-8.0616 -19.5587,-17.5505 l -17.0351,-16.9233 -5.2149,5.2804 c -2.8681,2.9043 -5.2148,5.7711 -5.2148,6.3706 0,1.1081 47.7795,48.3505 48.8925,48.3428 0.3341,0 8.0325,-7.0687 17.1075,-15.7031 z"
       id="path13" /></g></svg>
