<?xml version="1.0" encoding="UTF-8" standalone="no"?>
<!-- Created with Inkscape (http://www.inkscape.org/) -->

<svg
   width="512"
   height="512"
   viewBox="0 0 512 512"
   version="1.1"
   id="svg1"
   xml:space="preserve"
   inkscape:version="1.4.4 (dcaf3e7d9e, 2026-05-05)"
   sodipodi:docname="iconos-nosotros.svg"
   xmlns:inkscape="http://www.inkscape.org/namespaces/inkscape"
   xmlns:sodipodi="http://sodipodi.sourceforge.net/DTD/sodipodi-0.dtd"
   xmlns="http://www.w3.org/2000/svg"
   xmlns:svg="http://www.w3.org/2000/svg"><sodipodi:namedview
     id="namedview1"
     pagecolor="#ffffff"
     bordercolor="#999999"
     borderopacity="1"
     inkscape:showpageshadow="2"
     inkscape:pageopacity="0"
     inkscape:pagecheckerboard="0"
     inkscape:deskcolor="#d1d1d1"
     inkscape:document-units="px"
     inkscape:zoom="0.4716347"
     inkscape:cx="811.00903"
     inkscape:cy="963.66955"
     inkscape:window-width="1920"
     inkscape:window-height="915"
     inkscape:window-x="0"
     inkscape:window-y="40"
     inkscape:window-maximized="1"
     inkscape:current-layer="layer1"><inkscape:page
       x="0"
       y="0"
       width="512"
       height="512"
       id="page5"
       margin="0"
       bleed="0" /></sodipodi:namedview><defs
     id="defs1" /><g
     inkscape:label="Capa 1"
     inkscape:groupmode="layer"
     id="layer1"
     transform="translate(-1063.4098,-556.48562)"><path
       style="fill:#000000"
       d="m 1152.9637,1041.9071 c -1.6452,-0.8114 -3.6376,-2.1895 -4.4277,-3.0625 -1.6782,-1.8544 -57.8058,-136.19985 -58.6354,-140.34825 -0.7542,-3.7711 1.0104,-8.7335 4.1381,-11.637 1.4128,-1.3115 11.0399,-5.8751 21.3935,-10.1412 20.8313,-8.5833 23.1816,-8.9387 29.1261,-4.4046 2.8026,2.1376 6.1406,9.6211 31.5407,70.7097 15.6236,37.5756 28.6556,69.56515 28.9602,71.08785 0.7467,3.7334 -1.0202,8.6971 -4.1444,11.643 -3.0947,2.918 -38.4544,17.6801 -42.2762,17.6496 -1.476,-0.012 -4.0297,-0.6853 -5.6749,-1.4966 z m 175.0362,-47.14215 c -1.2262,-0.2667 -18.9433,-5.305 -39.3714,-11.1962 -20.4281,-5.8912 -39.6303,-10.9928 -42.6715,-11.3369 -7.6561,-0.8662 -17.1749,1.4638 -28.7705,7.0425 -5.1812,2.4926 -9.4758,4.4871 -9.5436,4.4321 -0.312,-0.2527 -36.9797,-88.804 -37.2506,-89.959 -0.395,-1.6842 53.4892,-27.9147 66.1056,-32.1799 11.2475,-3.8023 22.7444,-4.6567 32.3294,-2.4026 8.1095,1.9071 17.8956,6.4131 27.9866,12.8861 7.6385,4.8999 8.7802,5.2948 38.3097,13.2492 16.7401,4.5092 31.9554,8.7 33.8119,9.3126 4.0134,1.3246 9.3763,5.8255 11.2436,9.4365 0.7367,1.4245 1.7734,4.5266 2.3038,6.8935 2.045,9.125 -2.7784,19.4036 -11.1883,23.8423 -7.3054,3.8558 -10.6503,3.3218 -57.0797,-9.113 -23.2146,-6.2173 -42.7986,-11.3042 -43.52,-11.3042 -1.9594,0 -5.9363,4.3537 -5.9363,6.4988 0,1.0309 0.9538,2.9443 2.1196,4.2521 1.8198,2.0415 8.1151,3.9709 44.5106,13.6417 23.3151,6.1952 44.1735,11.5415 46.3521,11.8807 7.5941,1.1825 19.5754,-2.6714 26.5498,-8.5399 3.8778,-3.263 8.2838,-9.7078 10.0975,-14.7703 0.7909,-2.2076 1.7276,-6.5105 2.0814,-9.5619 l 0.6433,-5.5479 44.4168,-12.9995 c 24.4292,-7.1498 47.6204,-13.6613 51.5361,-14.4701 9.1293,-1.8857 22.3858,-1.8944 28.7015,-0.019 9.1653,2.7218 14.3339,11.0416 13.0055,20.9349 -0.9125,6.7953 -5.625,15.502 -11.0121,20.3455 -3.6803,3.3089 -7.4235,5.2894 -17.1631,9.081 -76.771,29.8865 -143.2962,55.0018 -150.8945,56.9674 -9.0409,2.3387 -23.0803,3.7087 -27.7032,2.7033 z m 43.2074,-194.0059 c -20.581,-1.7283 -34.7547,-4.9495 -44.9547,-10.2169 -7.516,-3.8814 -9.6582,-5.6076 -12.9155,-10.4075 -2.0796,-3.0646 -2.4193,-4.5835 -2.4193,-10.8191 0,-18.7142 10.0595,-39.68132 24.8931,-51.88479 10.6815,-8.78768 23.3377,-14.2563 37.2941,-16.11446 6.5799,-0.87606 10.3592,-0.87473 16.974,0.006 24.9293,3.31912 45.8226,18.58951 56.0751,40.98385 3.56,7.7761 6.0672,18.9374 6.0672,27.0094 0,6.2356 -0.3397,7.7546 -2.4193,10.8191 -3.2587,4.802 -5.3994,6.5261 -12.9328,10.4162 -7.2889,3.7639 -20.2184,7.4077 -31.278,8.8149 -8.7855,1.1178 -28.2645,1.9072 -34.3839,1.3933 z m -104.9419,-26.3546 c -16.6766,-2.5928 -30.1533,-7.465 -37.4546,-13.5408 -1.8964,-1.5782 -4.3914,-4.8182 -5.5445,-7.2002 -1.8312,-3.7829 -2.0197,-5.2518 -1.4895,-11.6098 0.8735,-10.47398 2.812,-17.23701 7.8522,-27.39471 3.7107,-7.47836 5.84,-10.34888 12.9554,-17.46518 6.4708,-6.47164 10.324,-9.44695 16.0511,-12.39417 4.1449,-2.13302 10.7155,-4.86273 14.6014,-6.06603 5.7931,-1.79392 9.1851,-2.18863 18.8404,-2.19237 8.2089,-0.003 13.6299,0.49055 17.8985,1.63015 8.6413,2.30701 22.2369,9.25267 27.7897,14.19713 2.5905,2.30675 4.4981,4.36648 4.2391,4.57718 -0.2591,0.2107 -3.4219,2.26881 -7.0285,4.57357 -13.2927,8.49463 -25.905,23.96827 -31.6242,38.79863 -3.9048,10.1253 -5.5407,17.7998 -5.8392,27.3919 l -0.2542,8.173 -11.3043,-0.087 c -6.2174,-0.048 -15.0773,-0.674 -19.6888,-1.391 z m 199.3514,-6.1232 c -0.3322,-9.8935 -2.0395,-18.1355 -5.7494,-27.7554 -5.7995,-15.03868 -18.3377,-30.4647 -31.7044,-39.00663 -3.6066,-2.30476 -6.7694,-4.36287 -7.0285,-4.57357 -1.193,-0.97032 9.7278,-9.07127 17.3925,-12.90159 11.9567,-5.97513 18.4404,-7.48963 32.0638,-7.48963 13.543,0 19.9642,1.49077 32.1125,7.45539 13.432,6.59485 24.508,17.81933 31.7882,32.21416 3.4467,6.81502 6.2015,17.36444 6.8481,26.22467 0.4939,6.7686 0.3181,7.9679 -1.726,11.7753 -6.5557,12.21 -28.7991,20.2496 -59.1316,21.3722 l -14.6013,0.5403 z m -92.5255,-88.10149 c -7.2604,-1.93995 -14.4343,-6.97553 -18.3255,-12.86329 -3.2014,-4.84402 -6.1671,-13.78816 -6.1671,-18.59918 0,-4.81101 2.9657,-13.75515 6.1671,-18.59918 4.1611,-6.29619 11.2509,-11.03677 19.5799,-13.09215 5.335,-1.31656 7.3865,-1.40659 12.0955,-0.53086 7.5951,1.41245 13.1551,4.23848 18.1336,9.21699 4.9785,4.97851 7.8045,10.53844 9.217,18.13355 0.8749,4.70479 0.7853,6.76619 -0.5259,12.10091 -3.0083,12.23925 -11.7463,21.21326 -23.6516,24.29039 -6.8009,1.75781 -9.7686,1.74754 -16.523,-0.0572 z m -86.6234,-23.97851 c -10.2475,-2.09369 -19.0231,-8.96932 -23.7847,-18.6353 -1.797,-3.64779 -2.1635,-5.90852 -2.163,-13.34127 6e-4,-7.20477 0.4008,-9.81542 2.053,-13.39296 3.077,-6.66289 9.7483,-13.25089 16.5661,-16.35929 4.8902,-2.22959 7.1338,-2.67761 13.409,-2.67761 6.2753,0 8.5189,0.44802 13.4091,2.67761 6.8724,3.13334 13.5649,9.77511 16.4841,16.35929 2.7516,6.20622 3.2973,16.46481 1.2261,23.04981 -2.0597,6.54812 -7.3024,13.51803 -13.0983,17.41352 -6.8275,4.58879 -16.2585,6.5086 -24.1014,4.9062 z m 178.0424,0 c -10.2599,-2.09623 -18.9419,-8.89699 -23.7253,-18.58443 -1.8269,-3.69981 -2.1961,-5.93973 -2.2077,-13.39214 -0.011,-7.2259 0.3813,-9.80493 2.0383,-13.39296 4.6856,-10.14583 15.4366,-17.85174 26.7635,-19.18299 6.1785,-0.72616 15.1232,1.3042 20.3884,4.62799 4.9263,3.10984 10.4569,9.45921 12.7559,14.64433 2.7112,6.1146 3.2438,16.42024 1.1866,22.96048 -2.0596,6.54812 -7.3024,13.51803 -13.0983,17.41352 -6.8275,4.58879 -16.2585,6.5086 -24.1014,4.9062 z"
       id="path10" /></g></svg>
