<?xml version="1.0" encoding="UTF-8" standalone="no"?>
<!-- Created with Inkscape (http://www.inkscape.org/) -->

<svg
   width="512"
   height="512"
   viewBox="0 0 512 512"
   version="1.1"
   id="svg1"
   xml:space="preserve"
   inkscape:version="1.4.4 (dcaf3e7d9e, 2026-05-05)"
   sodipodi:docname="iconos-distribucion.svg"
   xmlns:inkscape="http://www.inkscape.org/namespaces/inkscape"
   xmlns:sodipodi="http://sodipodi.sourceforge.net/DTD/sodipodi-0.dtd"
   xmlns="http://www.w3.org/2000/svg"
   xmlns:svg="http://www.w3.org/2000/svg"><sodipodi:namedview
     id="namedview1"
     pagecolor="#ffffff"
     bordercolor="#999999"
     borderopacity="1"
     inkscape:showpageshadow="2"
     inkscape:pageopacity="0"
     inkscape:pagecheckerboard="0"
     inkscape:deskcolor="#d1d1d1"
     inkscape:document-units="px"
     inkscape:zoom="0.66699219"
     inkscape:cx="-35.232796"
     inkscape:cy="529.99121"
     inkscape:window-width="1920"
     inkscape:window-height="915"
     inkscape:window-x="0"
     inkscape:window-y="40"
     inkscape:window-maximized="1"
     inkscape:current-layer="layer1"><inkscape:page
       x="0"
       y="0"
       width="512"
       height="512"
       id="page6"
       margin="0"
       bleed="0" /></sodipodi:namedview><defs
     id="defs1" /><g
     inkscape:label="Capa 1"
     inkscape:groupmode="layer"
     id="layer1"
     transform="translate(-1.6215162,-551.68903)"><path
       style="fill:#f0cb4d;stroke-width:1.04167"
       d="m 116.26475,1036.0863 c -24.992202,-1.8323 -37.418666,-12.0662 -41.678218,-34.3245 l -0.694994,-3.63174 -0.347888,-26.48998 c -0.345815,-26.33228 -0.251669,-29.43167 1.066674,-35.1163 3.170502,-13.67093 13.231116,-25.08101 28.590566,-32.42555 13.84323,-6.61952 43.20064,-17.84242 71.81194,-27.45259 13.14661,-4.41586 17.4471,-5.36764 23.12975,-5.11941 l 3.90311,0.17052 3.19598,1.57949 c 3.80349,1.87981 8.1139,5.724 11.99176,10.69487 1.50132,1.92439 6.5758,8.88246 11.27664,15.4622 21.02399,29.4275 28.78353,40.16831 29.07627,40.24789 0.17308,0.0469 7.62082,-10.2081 16.55054,-22.78912 20.8464,-29.37032 21.25039,-29.91449 25.25231,-34.01504 8.92751,-9.14736 18.76799,-12.15748 30.93222,-9.46174 13.24618,2.93565 75.5245,26.98885 87.12193,33.64848 13.93303,8.00078 21.91344,19.57014 23.91374,34.66816 0.56238,4.24472 0.25538,52.52819 -0.3613,56.82541 -1.68852,11.76625 -5.69673,20.50565 -12.27534,26.76495 -5.57999,5.3092 -12.18343,8.223 -23.2651,10.266 l -2.71357,0.5002 -142.27717,0.07 c -78.25246,0.039 -143.14238,0.011 -144.19985,-0.072 z M 266.35332,879.90264 c -4.91144,-1.80772 -8.38535,-5.19816 -9.52338,-9.29454 -0.6415,-2.30908 -0.50482,-6.4612 0.28981,-8.80423 1.02003,-3.00763 5.06996,-6.97984 8.47195,-8.30933 l 2.56355,-1.00189 3.84533,-0.0219 3.84533,-0.0219 2.45053,1.14168 c 1.34779,0.62802 3.08465,1.62553 3.85971,2.21668 l 1.40918,1.0748 11.30798,-2.29022 c 13.73152,-2.78117 14.95771,-3.09065 24.12574,-6.08984 21.03589,-6.88172 26.41373,-10.93206 38.53547,-29.02313 10.7359,-16.02282 11.66987,-18.03523 11.66451,-25.13361 l -0.003,-3.86232 -1.47425,-1.00397 c -1.91379,-1.30324 -3.5779,-3.51159 -4.52563,-6.00588 l -0.7582,-1.99532 -0.25566,-22.84204 c -0.14062,-12.56308 -0.35193,-25.2453 -0.46957,-28.18271 -0.26928,-6.72358 0.38334,-15.74538 1.35626,-18.74914 0.4895,-1.51125 1.47467,-3.09819 2.87349,-4.62872 l 2.12861,-2.32905 -0.97986,-4.13008 C 362.72126,682.1969 353.55286,665.48553 340.3619,651.89611 325.42936,636.51246 310.89563,627.252 291.65664,620.86253 c -15.99101,-5.31078 -40.9112,-6.20486 -60.40092,-2.16703 -32.49306,6.73181 -57.42249,24.61064 -72.13229,51.73164 -4.80236,8.85429 -9.43786,21.26657 -11.2342,30.08136 l -0.89613,4.39739 1.96998,2.10607 c 1.0835,1.15834 2.38899,3.01304 2.90111,4.12155 l 0.93111,2.01549 v 34.39433 34.39429 l -1.13137,2.41314 c -3.55998,7.59328 -13.1068,10.84643 -20.85753,7.10724 -2.52487,-1.21803 -5.68286,-4.48035 -6.68684,-6.90776 l -0.79646,-1.92564 -2.78151,-0.255 c -13.7596,-1.26126 -25.322123,-8.63527 -31.172228,-19.87983 -2.539612,-4.8815 -3.523848,-8.9933 -3.577702,-14.94644 l -0.04448,-4.91348 0.949111,-3.32898 c 2.182037,-7.65344 6.89155,-14.42001 13.11889,-18.84905 6.318699,-4.49402 12.877359,-6.92926 20.790039,-7.71933 l 2.84516,-0.28408 0.23969,-0.955 c 0.40379,-1.60877 2.6155,-4.56172 4.58249,-6.11826 l 1.86773,-1.47799 0.0289,-9.26 c 0.0314,-10.03984 0.47227,-13.63791 2.75757,-22.50118 2.97524,-11.5391 8.73586,-23.02251 17.25578,-34.39816 3.75037,-5.00744 14.46422,-15.85471 19.91672,-20.16476 25.38375,-20.06515 56.88088,-31.08767 88.86984,-31.10027 15.7904,-0.006 28.85775,2.06041 43.17042,6.82752 17.50133,5.82914 34.87982,16.15559 47.66664,28.32391 15.84443,15.07803 26.26282,32.31587 31.9468,52.85785 1.93187,6.98181 3.5929,21.56363 3.04803,26.75809 l -0.27461,2.61798 1.49393,0.9233 c 1.98426,1.22634 4.0564,3.6352 5.04019,5.85921 l 0.79961,1.80766 2.44998,0.26592 c 11.70953,1.27097 21.057,6.08682 27.59032,14.21463 12.78802,15.90897 8.67954,38.13613 -9.11815,49.32997 -5.15806,3.24408 -10.94797,5.13889 -18.69017,6.11639 l -2.24071,0.28282 -0.83594,1.8898 c -0.92722,2.09616 -5.1446,6.57588 -6.19076,6.57588 h -0.66876 l -0.007,3.09763 c -0.0151,6.29348 -1.51264,10.54185 -7.31817,20.76046 -10.52049,18.51774 -19.51426,28.6225 -32.29294,36.28224 -8.63468,5.17577 -30.34113,13.0177 -44.55146,16.09522 -10.84509,2.34867 -12.97232,2.82586 -13.00833,2.91815 -1.6618,4.2592 -4.41614,7.45401 -7.83527,9.08829 l -2.442,1.1673 -3.84533,0.17396 -3.84532,0.17396 z m -15.50205,-34.49222 c -12.46778,-1.32418 -24.17863,-6.14692 -34.17128,-14.0724 -6.25699,-4.96253 -15.05702,-14.69656 -21.8714,-24.19257 -14.24122,-19.84566 -22.71807,-43.3001 -25.17016,-69.64321 -1.11764,-12.00694 -0.30824,-34.76892 1.54195,-43.36271 2.75382,-12.79102 8.13579,-22.94643 16.64478,-31.40758 9.5324,-9.47881 19.15834,-14.34536 38.03147,-19.22747 12.11117,-3.13292 18.9995,-4.23971 30.549,-4.90848 22.79794,-1.32013 44.76709,5.27775 63.14186,18.96308 11.04471,8.22599 17.2596,16.38551 21.35064,28.03121 2.90182,8.26047 4.20024,16.42337 4.88804,30.73031 l 0.50168,10.43551 -0.5211,6.33325 c -2.53929,30.86089 -13.00719,58.93307 -29.92513,80.25135 -3.89218,4.90451 -11.09892,12.61613 -14.71179,15.7424 -8.87774,7.68203 -21.61359,13.74989 -32.76094,15.60855 -5.00653,0.8348 -13.24344,1.17272 -17.51762,0.71876 z"
       id="path7" /></g></svg>
