<?xml version="1.0" encoding="UTF-8" standalone="no"?>
<!-- Created with Inkscape (http://www.inkscape.org/) -->

<svg
   width="512"
   height="512"
   viewBox="0 0 512 512"
   version="1.1"
   id="svg1"
   xml:space="preserve"
   xmlns:inkscape="http://www.inkscape.org/namespaces/inkscape"
   xmlns:sodipodi="http://sodipodi.sourceforge.net/DTD/sodipodi-0.dtd"
   xmlns="http://www.w3.org/2000/svg"
   xmlns:svg="http://www.w3.org/2000/svg"><sodipodi:namedview
     id="namedview1"
     pagecolor="#ffffff"
     bordercolor="#999999"
     borderopacity="1"
     inkscape:showpageshadow="2"
     inkscape:pageopacity="0"
     inkscape:pagecheckerboard="0"
     inkscape:deskcolor="#d1d1d1"
     inkscape:document-units="px"><inkscape:page
       x="0"
       y="0"
       width="512"
       height="512"
       id="page1"
       margin="0"
       bleed="0" /></sodipodi:namedview><defs
     id="defs1" /><g
     inkscape:label="Capa 1"
     inkscape:groupmode="layer"
     id="layer1"><path
       style="fill:#000000;stroke-width:0.991718"
       d="m 248.96814,507.21963 c -5.19516,-2.57157 -8.23203,-8.26261 -8.23203,-15.42668 v -4.9628 l -10.66097,-1.22088 C 187.28469,480.70897 148.68728,465.19405 114.52468,439.1617 100.2089,428.2529 81.185722,408.93974 70.105903,394.06584 46.573838,362.47566 32.216848,327.83851 26.473127,288.799 c -1.05729,-7.18626 -1.924388,-14.29318 -1.926907,-15.79315 -0.004,-2.62386 -0.199425,-2.72723 -5.145904,-2.72723 -7.418762,0 -13.0543372,-2.99592 -15.6251173,-8.30646 -1.1236755,-2.3212 -2.0430473,-5.27739 -2.0430473,-6.5693 0,-1.29191 0.9193718,-4.2481 2.0430473,-6.56931 2.5443607,-5.25595 8.2170463,-8.30646 15.4465783,-8.30646 h 4.962793 l 1.220884,-10.66096 C 30.310202,187.03689 45.699757,148.65557 71.633798,114.57336 82.623759,100.13048 101.92877,81.1004 116.94888,69.903621 c 31.5603,-23.526686 66.21797,-37.894404 105.26684,-43.639504 7.18627,-1.05729 14.29319,-1.924388 15.79317,-1.926907 2.62385,-0.004 2.72722,-0.199424 2.72722,-5.145904 0,-7.418762 2.99592,-13.0543331 8.30646,-15.6251201 2.3212,-1.1236757 5.27739,-2.0430455 6.56931,-2.0430455 1.29191,0 4.2481,0.9193698 6.5693,2.0430455 5.27152,2.5518997 8.30646,8.2140441 8.30646,15.4969801 v 5.013202 l 7.18995,0.664759 c 25.19921,2.329832 52.17886,9.60777 75.71036,20.423373 12.52063,5.754759 28.55244,15.481744 41.56025,25.215859 14.32985,10.723423 33.89299,30.064211 44.43697,43.931841 26.06365,34.27946 41.53485,72.78121 46.43312,115.55393 l 1.22087,10.66096 h 4.96281 c 7.22953,0 12.90221,3.05051 15.44657,8.30646 1.12368,2.32121 2.04305,5.2774 2.04305,6.56931 0,1.29191 -0.91937,4.2481 -2.04305,6.5693 -2.54436,5.25596 -8.21704,8.30646 -15.44657,8.30646 h -4.96281 l -1.22087,10.66097 c -4.90016,42.78914 -20.40804,81.37022 -46.44757,115.55393 -9.89911,12.99517 -29.67302,32.76907 -42.66819,42.66818 -23.98559,18.2711 -50.87893,31.75047 -78.61244,39.40181 -11.888,3.27976 -28.67451,6.40781 -39.91664,7.43816 l -7.68581,0.70443 v 5.02482 c 0,7.29525 -3.03136,12.95498 -8.30646,15.50861 -2.3212,1.12367 -5.30672,2.0427 -6.63448,2.04226 -1.32777,-4.3e-4 -4.28812,-0.9284 -6.57856,-2.06216 z m -8.21025,-53.22531 c 0.012,-1.49998 0.87098,-4.59771 1.9089,-6.88384 1.33628,-2.94332 3.05526,-4.75256 5.88901,-6.19824 2.20105,-1.12289 5.37628,-2.04162 7.05608,-2.04162 1.67979,0 4.85502,0.91873 7.05607,2.04162 2.83375,1.44568 4.55273,3.25492 5.88901,6.19824 1.03792,2.28613 1.89692,5.44542 1.9089,7.02062 l 0.0218,2.86401 7.21412,-0.65372 c 11.09805,-1.00568 29.18303,-5.04846 42.6141,-9.52612 21.65148,-7.21817 44.63712,-19.89586 62.68018,-34.57113 8.822,-7.17535 22.28176,-20.63511 29.45712,-29.45711 14.67527,-18.04307 27.35296,-41.0287 34.57113,-62.68019 4.47765,-13.43107 8.52044,-31.51604 9.52612,-42.6141 l 0.65368,-7.21412 h -2.79883 c -1.53936,0 -4.73975,-0.93958 -7.11198,-2.08796 -2.95487,-1.43042 -4.92732,-3.29183 -6.26342,-5.9108 -1.07264,-2.10256 -1.95026,-5.19721 -1.95026,-6.877 0,-1.67979 0.91873,-4.85502 2.04162,-7.05607 1.44567,-2.83376 3.25491,-4.55274 6.19823,-5.88902 2.28614,-1.03791 5.44542,-1.89692 7.02063,-1.9089 l 2.86401,-0.0218 -0.65372,-7.21412 c -0.9973,-11.00558 -5.03967,-29.16212 -9.37721,-42.11823 C 437.16455,161.29906 421.21615,135.58951 398.55559,112.8209 381.64764,95.832346 361.42798,81.616113 340.10662,71.726051 322.20255,63.421119 295.84609,56.156173 277.40177,54.441949 l -6.91413,-0.642593 -0.0218,2.869634 c -0.012,1.578299 -0.87098,4.740113 -1.9089,7.02625 -1.33628,2.943319 -3.05526,4.752559 -5.88901,6.198235 -2.20101,1.122892 -5.37624,2.04162 -7.05603,2.04162 -1.6798,0 -4.77445,-0.877621 -6.87701,-1.950273 -2.61897,-1.336091 -4.48037,-3.308548 -5.9108,-6.26341 -1.14838,-2.372239 -2.08796,-5.575159 -2.08796,-7.117607 v -2.804449 l -6.91413,0.642593 c -18.44656,1.714432 -44.63397,8.951333 -62.8579,17.370817 -21.05351,9.726747 -40.98942,23.744844 -58.09344,40.848874 -17.13142,17.13141 -31.051542,36.9381 -40.93558,58.24647 -8.304928,17.90407 -15.569876,44.26054 -17.284095,62.70486 l -0.6426,6.91412 2.869634,0.0218 c 1.578297,0.012 4.740111,0.87099 7.026252,1.9089 2.943318,1.33628 4.75256,3.05526 6.198235,5.88902 1.122889,2.20101 2.041616,5.37624 2.041616,7.05603 0,1.67979 -0.918727,4.85502 -2.041616,7.05607 -1.445675,2.83375 -3.254917,4.55274 -6.198235,5.88902 -2.286141,1.03791 -5.447955,1.89691 -7.026252,1.90889 l -2.869634,0.0218 0.6426,6.91413 c 1.714219,18.44432 8.979167,44.80078 17.284095,62.70486 5.677867,12.24055 13.974743,26.01079 22.455291,37.26882 13.544459,17.98039 34.605489,37.30442 54.005919,49.55173 23.0202,14.53243 50.72259,24.51493 81.43094,29.34343 1.36361,0.21441 4.37596,0.45062 6.6941,0.5249 3.9647,0.12704 4.21609,-0.0268 4.23658,-2.59218 z m -2.21802,-88.06518 c -37.31968,-5.811 -78.90905,-34.42272 -114.52933,-78.79132 -4.59792,-5.72717 -10.87116,-14.10265 -13.94053,-18.61218 -4.92938,-7.24228 -5.58066,-8.77373 -5.58066,-13.12278 0,-4.34905 0.65128,-5.8805 5.58066,-13.12279 9.9529,-14.62286 22.65336,-29.71178 37.3918,-44.42372 15.47835,-15.45052 29.17113,-26.3688 44.05543,-35.12868 16.5689,-9.75131 31.97217,-15.48394 48.22715,-17.94866 11.9537,-1.81254 19.82633,-1.80347 32.03593,0.0369 25.32425,3.81714 51.68851,17.20727 77.54887,39.38625 18.13335,15.55197 38.14055,37.97332 51.82454,58.07792 4.92938,7.24229 5.58066,8.77374 5.58066,13.12279 0,4.34905 -0.65128,5.8805 -5.58066,13.12278 -13.68399,20.10461 -33.69119,42.52596 -51.82454,58.07792 -25.77927,22.10945 -52.30402,35.58109 -77.54887,39.38626 -11.6978,1.76321 -21.64361,1.74505 -33.24045,-0.0607 z m 32.52975,-29.75057 c 15.72802,-3.24871 32.4482,-11.47881 49.99562,-24.6091 5.18172,-3.87736 15.01918,-12.63418 21.86102,-19.45963 12.94075,-12.90976 30.66489,-34.12619 30.66489,-36.70698 0,-2.57777 -17.71641,-23.78922 -30.66489,-36.71435 -6.84184,-6.8295 -17.34871,-16.10548 -23.3486,-20.61331 -12.45558,-9.35807 -30.62452,-18.8264 -42.64386,-22.22286 -6.46433,-1.82671 -10.41337,-2.24136 -21.32192,-2.23884 -11.0881,0.003 -14.75121,0.40042 -21.32193,2.31579 -4.36357,1.27199 -11.72044,4.07457 -16.34861,6.22796 -18.61721,8.6622 -41.83231,26.81051 -59.09911,46.20048 -11.0841,12.44703 -21.24967,25.46701 -21.2272,27.18764 0.0323,2.47525 18.10581,24.01786 30.68245,36.57184 6.84184,6.8295 17.25555,16.02615 23.14159,20.43701 11.11282,8.32768 25.64945,16.47374 35.90884,20.12263 14.22893,5.06073 30.04244,6.32725 43.72171,3.50172 z m -29.30825,-30.79378 c -7.89394,-2.12147 -16.59207,-7.35594 -23.0419,-13.86646 -9.81073,-9.90306 -14.67692,-21.87728 -14.67692,-36.11547 0,-14.38129 4.97815,-26.47859 15.03444,-36.53488 10.05628,-10.05628 22.1536,-15.03444 36.53489,-15.03444 14.18772,0 26.37962,4.94046 36.17662,14.65964 6.55546,6.50338 11.70428,15.23186 13.85429,23.48634 1.96746,7.55356 1.96746,19.29312 0,26.84667 -2.15001,8.25449 -7.29883,16.98297 -13.85429,23.48635 -6.38118,6.3305 -14.39752,10.94484 -22.82964,13.14113 -7.25142,1.88875 -20.03366,1.85638 -27.19749,-0.0689 z m 23.27182,-29.88221 c 7.83426,-3.90645 12.71055,-11.61753 12.71055,-20.09972 0,-10.81453 -7.90012,-20.05367 -18.94334,-22.15413 -1.79171,-0.34079 -5.55759,-0.12637 -8.36862,0.47649 -4.116,0.88273 -6.11262,2.09775 -10.25621,6.24134 -4.14358,4.14358 -5.35861,6.14021 -6.24133,10.2562 -0.60286,2.81103 -0.81729,6.57691 -0.47649,8.36862 1.74293,9.16354 8.62376,16.44248 17.6914,18.71499 3.74904,0.93957 10.01487,0.12553 13.88404,-1.80379 z"
       id="path1" /></g></svg>
