<?xml version="1.0" encoding="UTF-8" standalone="no"?>
<!-- Created with Inkscape (http://www.inkscape.org/) -->

<svg
   width="617.00293"
   height="555.51471"
   viewBox="0 0 617.00293 555.51471"
   version="1.1"
   id="svg1"
   xml:space="preserve"
   inkscape:export-filename="clientes-satisfecho.svg"
   inkscape:export-xdpi="170"
   inkscape:export-ydpi="170"
   xmlns:inkscape="http://www.inkscape.org/namespaces/inkscape"
   xmlns:sodipodi="http://sodipodi.sourceforge.net/DTD/sodipodi-0.dtd"
   xmlns="http://www.w3.org/2000/svg"
   xmlns:svg="http://www.w3.org/2000/svg"><sodipodi:namedview
     id="namedview1"
     pagecolor="#ffffff"
     bordercolor="#999999"
     borderopacity="1"
     inkscape:showpageshadow="2"
     inkscape:pageopacity="0"
     inkscape:pagecheckerboard="0"
     inkscape:deskcolor="#d1d1d1"
     inkscape:document-units="px"
     showguides="false"><inkscape:page
       x="0"
       y="0"
       width="617.00293"
       height="555.51471"
       id="page4"
       margin="0"
       bleed="0" /></sodipodi:namedview><defs
     id="defs1" /><g
     inkscape:label="Capa 1"
     inkscape:groupmode="layer"
     id="layer1"
     transform="translate(-1057.8748,-41.678134)"><g
       id="g26"><path
         style="fill:#000000;stroke-width:1.19378"
         d="m 1135.3654,561.30691 c 2.7584,-7.82122 5.0153,-14.36538 5.0153,-14.54253 0,-0.17716 2.0135,-0.3221 4.4747,-0.3221 2.4609,0 4.4745,0.2188 4.4745,0.48625 0,0.26743 2.2439,6.81156 4.9864,14.54253 l 4.9864,14.0563 h -3.3666 c -2.7349,0 -3.5861,-0.62969 -4.5364,-3.35596 -1.0877,-3.11982 -1.5599,-3.35599 -6.7121,-3.35599 -5.152,0 -5.6244,0.23617 -6.7119,3.35599 -0.9353,2.68314 -1.8171,3.35596 -4.3977,3.35596 h -3.2277 z m 27.3884,-0.32209 v -14.54254 l 3.0762,0.018 c 2.6853,0.0157 3.7163,1.17474 8.1104,9.11756 l 5.0338,9.09959 0.325,-9.11756 0.325,-9.11754 h 3.3106 3.3108 v 14.54254 14.54254 l -3.6356,-0.0136 c -3.3504,-0.0127 -4.0307,-0.69302 -8.6696,-8.6696 l -5.0339,-8.65588 -0.3268,8.66961 c -0.3155,8.37361 -0.4206,8.66958 -3.0763,8.66958 h -2.7496 z m 32.0132,11.15188 c -10.1607,-8.92112 -3.9725,-25.69442 9.4793,-25.69442 10.7578,0 17.6204,11.4183 12.874,21.4205 -3.9079,8.23523 -15.3501,10.42296 -22.3533,4.27392 z m 14.4618,-3.82976 c 7.8127,-7.81249 -1.278,-22.0835 -9.715,-15.25156 -3.8302,3.1015 -3.8302,12.7574 0,15.85889 3.5466,2.87184 6.4154,2.69249 9.715,-0.60733 z m 14.8736,3.85908 c -3.8818,-3.88184 -3.7048,-5.99827 0.5435,-6.50121 2.1342,-0.25265 2.99,0.15447 2.99,1.4223 0,2.80606 5.0119,4.58969 8.4696,3.01423 4.4956,-2.04834 3.034,-4.88328 -3.4442,-6.68073 -6.8792,-1.90872 -10.6186,-5.17025 -10.6186,-9.26154 0,-9.50607 19.1163,-10.42048 21.5715,-1.03184 0.8076,3.08797 -3.9497,3.10624 -7.029,0.027 -2.4298,-2.42985 -4.1698,-2.75024 -6.5953,-1.21444 -2.6638,1.6867 -0.5334,4.19987 4.671,5.51037 6.9926,1.76074 10.1277,4.58727 10.1277,9.13068 0,8.81465 -13.7454,12.52587 -20.6862,5.58519 z m 35.9746,-11.1812 v -14.54254 h 8.4634 c 12.5741,0 16.147,3.21788 16.147,14.54254 0,11.32465 -3.5729,14.54254 -16.147,14.54254 h -8.4634 z m 15.4019,9.13315 c 6.9571,-4.41577 2.6581,-19.20106 -5.5829,-19.20106 h -3.1071 v 10.06791 10.06793 l 3.6357,-0.0172 c 1.9996,-0.01 4.2741,-0.42235 5.0543,-0.91765 z m 13.6831,-9.13315 v -14.54254 h 11.1866 c 10.4408,0 11.1865,0.14915 11.1865,2.2373 0,2.02425 -0.7457,2.23733 -7.8305,2.23733 h -7.8305 v 3.35597 3.35597 h 7.2712 c 6.5255,0 7.2714,0.22946 7.2714,2.23732 0,2.00785 -0.7459,2.23732 -7.2714,2.23732 h -7.2712 v 4.47462 4.47464 h 8.39 c 7.644,0 8.3897,0.19886 8.3897,2.23731 0,2.09526 -0.7457,2.2373 -11.7457,2.2373 h -11.7461 z m 38.0344,0 v -14.54254 h 11.1867 c 10.4407,0 11.1865,0.14915 11.1865,2.2373 0,2.02425 -0.7458,2.23733 -7.8305,2.23733 h -7.8306 v 3.35597 3.35597 h 7.2711 c 6.5256,0 7.2713,0.22946 7.2713,2.23732 0,2.00785 -0.7457,2.23732 -7.2713,2.23732 h -7.2711 v 4.47462 4.47464 h 8.3898 c 7.6442,0 8.3899,0.19886 8.3899,2.23731 0,2.09526 -0.7457,2.2373 -11.7458,2.2373 h -11.746 z m 26.349,11.46625 c 1.0976,-1.69198 3.2513,-4.98719 4.786,-7.32269 3.0722,-4.67569 2.7967,-5.96339 -3.2188,-15.05048 l -2.4067,-3.63562 h 3.784 c 3.018,0 4.1851,0.67924 5.7663,3.35597 1.0904,1.84578 2.4289,3.35597 2.9747,3.35597 0.5456,0 1.8842,-1.51019 2.9744,-3.35597 1.5813,-2.67673 2.7484,-3.35597 5.7665,-3.35597 h 3.784 l -2.4068,3.63562 c -6.0157,9.08709 -6.2911,10.37479 -3.2188,15.05048 1.5345,2.3355 3.6883,5.63071 4.786,7.32269 l 1.9959,3.07629 h -3.78 c -3.2032,0 -4.2018,-0.68269 -6.5453,-4.47461 -1.521,-2.46106 -3.0312,-4.47464 -3.3559,-4.47464 -0.3248,0 -1.835,2.01358 -3.3561,4.47464 -2.3436,3.79192 -3.3422,4.47461 -6.5453,4.47461 h -3.7798 z m 27.3467,-11.46625 v -14.54254 h 8.7003 c 12.6138,0 17.5211,4.90028 13.2258,13.20667 -2.0305,3.92633 -3.7063,4.69185 -10.2717,4.69185 h -4.9425 v 5.59329 c 0,5.46898 -0.074,5.59327 -3.3559,5.59327 h -3.356 z m 26.8478,0 v -14.54254 h 11.1865 c 10.4408,0 11.1866,0.14915 11.1866,2.2373 0,2.02425 -0.7458,2.23733 -7.8307,2.23733 h -7.8306 v 3.35597 3.35597 h 7.2713 c 6.5255,0 7.2712,0.22946 7.2712,2.23732 0,2.00785 -0.7457,2.23732 -7.2712,2.23732 h -7.2713 v 4.47462 4.47464 h 8.39 c 7.6441,0 8.39,0.19886 8.39,2.23731 0,2.09526 -0.7459,2.2373 -11.746,2.2373 h -11.7458 z m 27.9663,0 v -14.54254 h 9.8728 c 8.8738,0 10.1192,0.26203 12.3054,2.58908 3.9006,4.15203 2.0432,13.07213 -2.7219,13.07213 -1.2708,0 -1.023,0.87161 1.034,3.63563 1.488,1.99959 3.5851,5.01997 4.6601,6.71195 l 1.9547,3.07629 h -3.9273 c -3.479,0 -4.3298,-0.62717 -7.4527,-5.49387 -3.2439,-5.05501 -5.3031,-6.81135 -7.986,-6.81135 -0.5648,0 -1.0271,2.76868 -1.0271,6.15262 0,6.09046 -0.033,6.1526 -3.3559,6.1526 h -3.3561 z m 29.0851,0 v -14.54254 h 3.356 3.3559 v 14.54254 14.54254 h -3.3559 -3.356 z m 11.1865,0 v -14.54254 h 11.1866 c 10.4409,0 11.1866,0.14915 11.1866,2.2373 0,2.02425 -0.7457,2.23733 -7.8306,2.23733 h -7.8306 v 3.35597 3.35597 h 7.2713 c 6.5255,0 7.2712,0.22946 7.2712,2.23732 0,2.00785 -0.7457,2.23732 -7.2712,2.23732 h -7.2713 v 4.47462 4.47464 h 8.3901 c 7.644,0 8.3897,0.19886 8.3897,2.23731 0,2.09526 -0.7457,2.2373 -11.7459,2.2373 h -11.7459 z m 26.8479,0 v -14.54254 h 3.3258 c 2.9883,0 3.8686,0.93709 8.6696,9.22892 l 5.3438,9.22893 0.3249,-9.22893 c 0.3158,-8.96988 0.4021,-9.22892 3.0762,-9.22892 h 2.7515 v 14.54254 14.54254 h -3.106 c -2.6799,0 -3.7923,-1.15938 -8.1103,-8.45206 l -5.0042,-8.45207 -0.3268,8.45207 -0.3267,8.45206 h -3.3089 -3.3089 z m 33.6666,11.66425 c -9.9101,-8.33888 -4.6215,-26.20679 7.7568,-26.20679 5.2313,0 9.1166,1.62882 10.972,4.59973 2.863,4.58445 -1.2972,5.80449 -6.55,1.9209 -6.0386,-4.46455 -12.1316,1.36001 -10.7321,10.25923 1.1284,7.17579 6.8235,9.77037 11.1645,5.08639 2.4118,-2.60255 7.4177,-2.98908 7.4177,-0.57279 0,7.2516 -13.3561,10.52802 -20.0289,4.91333 z m 24.5035,-11.66425 v -14.54254 h 3.356 3.356 v 14.54254 14.54254 h -3.356 -3.356 z m 14.002,0.32209 c 2.7584,-7.82122 5.0152,-14.36538 5.0152,-14.54253 0,-0.17716 2.0135,-0.3221 4.4747,-0.3221 2.4611,0 4.4746,0.2188 4.4746,0.48625 0,0.26743 2.2438,6.81156 4.9864,14.54253 l 4.9864,14.0563 h -3.3667 c -2.7349,0 -3.586,-0.62969 -4.5364,-3.35596 -1.0875,-3.11982 -1.56,-3.35599 -6.7119,-3.35599 -5.1521,0 -5.6244,0.23617 -6.7119,3.35599 -0.9355,2.68314 -1.8171,3.35596 -4.3977,3.35596 h -3.2277 z M 1351.2477,486.9056 c -12.9999,-4.60901 -14.5427,-9.27361 -14.5427,-43.97012 0,-27.79948 0.021,-28.03653 2.8464,-33.52717 8.7515,-17.00247 40.0679,-15.70821 47.4505,1.96108 2.7743,6.63974 2.4595,57.85637 -0.3936,64.03814 -5.0821,11.01133 -21.5918,16.37976 -35.3606,11.49807 z m 13.7593,-12.28113 c 2.1876,-2.18751 1.8866,-61.69558 -0.3212,-63.52794 -4.712,-3.91048 -5.0483,-1.80171 -5.0483,31.64837 0,17.45172 0.3356,32.06601 0.7458,32.47618 1.1458,1.14578 3.1386,0.88866 4.6237,-0.59661 z m -61.3024,4.69836 v -7.83061 h -13.4238 -13.424 v -6.43228 c 0,-5.04732 2.0877,-12.8753 9.7113,-36.35636 l 9.7155,-29.92409 h 14.8992 14.8992 v 29.0851 29.08509 h 3.356 3.356 v 7.27127 7.27127 h -3.356 -3.356 v 7.83061 7.83059 h -11.1866 -11.1867 z m -0.081,-39.99201 -0.081,-17.61886 -2.2123,7.8306 c -1.2167,4.30685 -3.411,12.23533 -4.8762,17.61886 l -2.6639,9.78826 h 4.9556 4.9557 z m 110.8266,19.85617 v -10.06791 h -9.5086 -9.5086 v -6.71195 -6.71195 h 9.5086 9.5086 v -10.06791 -10.06793 h 7.2711 7.2714 v 10.06793 10.06791 h 9.5085 9.5086 v 6.71195 6.71195 h -9.5086 -9.5085 v 10.06791 10.06792 h -7.2714 -7.2711 z m -89.2361,-152.3285 c -9.2349,-9.23471 43.1573,-58.82907 81.9647,-77.58792 33.7245,-16.3018 88.6349,-25.93993 91.7563,-16.10546 1.5857,4.99614 -1.6379,6.26159 -17.6761,6.93902 -52.9701,2.23735 -105.4312,30.70968 -143.705,77.99359 -7.8648,9.71632 -9.9232,11.17759 -12.3399,8.76077 z m 48.0694,-1.1513 c -4.4189,-4.41887 18.0226,-26.44862 46.563,-45.70872 30.7849,-20.77489 78.5029,-35.75481 78.5029,-24.6441 0,4.2118 -0.2539,4.34917 -12.7706,6.90614 -33.5197,6.84763 -61.818,22.94012 -96.7176,55.00081 -10.5758,9.71536 -12.9959,11.02755 -15.5777,8.44587 z m 52.831,-1.75106 c -8.3579,-5.72295 19.1194,-24.33273 52.099,-35.28569 16.073,-5.33798 17.4099,-5.57742 19.4957,-3.49162 4.0174,4.01727 0.2021,7.28432 -13.4246,11.49589 -12.6584,3.9123 -33.4802,13.88485 -46.8563,22.44181 -9.53,6.09657 -9.498,6.08294 -11.3138,4.83961 z m -190.9293,-5.94541 c -9.8258,-5.72311 4.8282,-11.20093 30.9959,-11.58653 l 17.8516,-0.26306 4.8931,-6.05597 c 2.6912,-3.33079 9.4822,-10.69636 15.0912,-16.36793 5.609,-5.67157 9.9723,-10.53617 9.6965,-10.81024 -5.0015,-4.96691 -48.0991,-3.49916 -67.307,2.29223 -10.6665,3.21605 -13.1788,2.73321 -13.1788,-2.53279 0,-9.60035 48.4775,-16.23567 77.0507,-10.54621 10.6475,2.12015 12.8184,2.26607 14.5722,0.97958 14.1752,-10.3978 14.6447,-11.2784 7.6578,-14.36528 -21.7217,-9.59714 -64.6502,-13.0977 -90.3315,-7.36601 -8.1351,1.81563 -12.3052,0.51711 -12.3052,-3.83154 0,-4.68067 17.578,-8.94925 36.8531,-8.94925 11.467,0 12.3678,-0.70316 12.3678,-9.65502 0,-8.9642 -2.1117,-13.02525 -8.3656,-16.08707 -13.8865,-6.79895 -19.1698,-15.17647 -21.8317,-34.61918 -5.8343,-42.611 29.5135,-74.738114 55.348,-50.304954 25.0022,23.646054 19.6378,77.796334 -8.5434,86.239604 -5.9102,1.77076 -6.8221,3.9185 -6.2397,14.69896 l 0.4902,9.08019 9.9528,1.42718 c 12.4333,1.78291 27.407,6.00592 38.9741,10.99181 10.264,4.42424 9.7984,4.56691 10.4425,-3.19991 0.6414,-7.73422 -1.2154,-11.35474 -11.0757,-21.59661 -10.4389,-10.84294 -10.3985,-11.34795 2.193,-27.46047 13.7179,-17.55357 13.4785,-17.58369 29.3578,3.69273 10.8986,14.60265 10.9177,13.84738 -0.6504,25.66899 -13.2656,13.55634 -14.4125,24.17048 -1.6779,15.52867 32.5543,-22.09179 75.6895,-32.35671 116.4784,-27.71852 14.4318,1.64104 18.0536,4.27958 13.5346,9.86013 -1.9106,2.35956 -2.2715,2.40054 -9.2288,1.04819 -59.8588,-11.63544 -135.7609,23.63735 -189.7854,88.19596 l -10.5328,12.58653 -14.2082,-0.69428 c -10.6807,-0.52189 -16.7774,-0.24456 -24.5563,1.11702 -12.0156,2.10316 -11.4491,2.07874 -13.9829,0.60305 z m 126.422,-107.59145 5.8102,-5.88321 -6.2177,-7.82035 c -7.8461,-9.86873 -7.2387,-9.79451 -13.2564,-1.62013 -6.2321,8.46576 -6.2415,8.90509 -0.3329,15.66601 5.9931,6.85776 6.9083,6.83537 13.9968,-0.34232 z m -66.8533,-17.08167 c 26.7452,-13.82703 14.5802,-78.448972 -13.7031,-72.79231 -27.9289,5.58577 -29.751,69.0527 -2.1415,74.58948 4.9271,0.98808 12.0114,0.18454 15.8446,-1.79717 z m -19.2903,-15.07925 c -4.3114,-4.31148 -4.4629,-4.70796 -3.9273,-10.28115 1.4371,-14.9575 22.4564,-16.9676 26.4431,-2.52881 3.8294,13.86896 -12.2874,23.03834 -22.5158,12.80996 z m 157.1088,0.90471 c -0.7864,-0.78641 -1.3494,-4.60881 -1.3596,-9.22893 -0.019,-8.56341 -0.2935,-9.31783 -4.4267,-12.14634 -4.6275,-3.16682 -6.9555,-2.30766 -14.5734,5.37846 -7.6118,7.68021 -9.6938,8.53747 -12.6911,5.22553 -2.9033,-3.20817 -2.3618,-4.37822 6.0342,-13.03695 l 7.8854,-8.13229 -2.6115,-5.45204 -2.6117,-5.45204 -9.7659,0.36065 c -12.5032,0.46172 -17.5617,-1.0527 -17.5617,-5.25762 0,-5.11829 1.6383,-5.73027 15.3402,-5.73027 h 12.6553 l 2.4325,-5.00682 2.4326,-5.006826 -7.4811,-7.748974 c -7.9676,-8.253013 -8.6666,-9.902723 -5.4351,-12.827079 3.3066,-2.992558 5.0061,-2.250493 12.4121,5.419908 7.3832,7.6465 8.121,7.988279 13.1332,6.082635 4.4575,-1.69475 4.8137,-2.704845 4.8327,-13.707123 0.021,-11.53451 1.0548,-14.189335 5.5301,-14.189335 4.1563,0 4.5551,1.276358 4.5551,14.581695 v 11.042735 l 5.176,2.28966 c 6.728,2.976096 5.6484,3.350681 14.358,-4.981612 8.3727,-8.009863 9.1345,-8.308463 12.7068,-4.980416 3.1314,2.917301 2.3475,4.490263 -6.5491,13.141961 -7.51,7.303193 -7.4944,7.260087 -4.4495,12.253961 l 2.2166,3.63563 h 11.7624 c 14.4196,0 18.9268,2.60123 14.6511,8.4558 -1.3712,1.87785 -3.2608,2.22261 -13.9743,2.54986 l -12.3889,0.37842 -2.2369,5.05678 c -2.6,5.87761 -2.7573,5.49643 6.0603,14.67308 8.007,8.333 8.1586,8.64277 5.6093,11.45978 -3.2601,3.60221 -5.9164,2.56473 -13.0554,-5.09869 -7.5365,-8.09045 -9.5832,-8.71191 -15.526,-4.7146 -3.6838,2.47777 -3.8114,2.81288 -4.1345,10.85693 -0.4195,10.447 -4.1986,14.60735 -8.9515,9.85448 z m 12.5244,-32.5154 c 7.9891,-4.58028 10.9236,-15.30021 6.2752,-22.92431 -6.6052,-10.833194 -24.1345,-10.93636 -29.6996,-0.1748 -7.8553,15.19071 8.7157,31.53169 23.4244,23.09911 z"
         id="path6" /><path
         style="fill:#ffffff;stroke-width:19.1433;stroke-dasharray:459.439, 19.1433"
         d="m 1387.2892,550.45958 0.07,9.60355 h 7.9582 c 3.9113,2.00723 6.4334,-10.58255 0.2071,-9.57766 z"
         id="path8-0"
         sodipodi:nodetypes="ccccc" /><path
         style="fill:#ffffff;stroke-width:19.1433;stroke-dasharray:459.439, 19.1433"
         d="m 1440.7819,550.26282 -0.032,8.78125 h 10.875 c 3.243,0.32675 4.0297,-9.46437 -0.5937,-8.8125 z"
         id="path8-0-9"
         sodipodi:nodetypes="ccccc" /><path
         style="fill:#ffffff;stroke-width:19.1433;stroke-dasharray:459.439, 19.1433"
         d="m 1144.8824,549.99537 7e-4,-0.004 4.7391,13.1756 -9.6303,-0.0274 z"
         id="path7-6-7"
         sodipodi:nodetypes="ccccc" /><path
         style="fill:#ffffff;stroke-width:19.1433;stroke-dasharray:459.439, 19.1433"
         d="m 1584.5913,551.30787 7e-4,-0.004 4.7391,13.1756 -9.6303,-0.0274 z"
         id="path7-6-7-9"
         sodipodi:nodetypes="ccccc" /></g></g></svg>
