<?xml version="1.0" encoding="UTF-8" standalone="no"?>
<!-- Created with Inkscape (http://www.inkscape.org/) -->

<svg
   width="512"
   height="512"
   viewBox="0 0 512 512"
   version="1.1"
   id="svg1"
   xml:space="preserve"
   inkscape:version="1.4.4 (dcaf3e7d9e, 2026-05-05)"
   sodipodi:docname="iconos-nosotros.svg"
   xmlns:inkscape="http://www.inkscape.org/namespaces/inkscape"
   xmlns:sodipodi="http://sodipodi.sourceforge.net/DTD/sodipodi-0.dtd"
   xmlns="http://www.w3.org/2000/svg"
   xmlns:svg="http://www.w3.org/2000/svg"><sodipodi:namedview
     id="namedview1"
     pagecolor="#ffffff"
     bordercolor="#999999"
     borderopacity="1"
     inkscape:showpageshadow="2"
     inkscape:pageopacity="0"
     inkscape:pagecheckerboard="0"
     inkscape:deskcolor="#d1d1d1"
     inkscape:document-units="px"
     inkscape:zoom="0.4716347"
     inkscape:cx="811.00903"
     inkscape:cy="963.66955"
     inkscape:window-width="1920"
     inkscape:window-height="915"
     inkscape:window-x="0"
     inkscape:window-y="40"
     inkscape:window-maximized="1"
     inkscape:current-layer="layer1"><inkscape:page
       x="0"
       y="0"
       width="512"
       height="512"
       id="page6"
       margin="0"
       bleed="0" /></sodipodi:namedview><defs
     id="defs1" /><g
     inkscape:label="Capa 1"
     inkscape:groupmode="layer"
     id="layer1"
     transform="translate(-5.1814064,-1100.4627)"><path
       style="fill:#000000"
       d="m 261.84034,1583.3193 c -3.88291,-1.274 -7.49847,-3.484 -11.65639,-7.125 l -4.0144,-3.5152 -3.96658,1.7546 c -5.20609,2.3029 -13.08063,2.3075 -18.27286,0.011 -2.16823,-0.9591 -5.31466,-3.1162 -6.99206,-4.7936 -3.34293,-3.343 -6.32657,-9.1302 -6.35753,-12.3315 -0.0203,-2.1035 -0.39697,-2.3367 -8.2412,-5.1036 -2.29493,-0.8095 -5.68569,-2.9412 -7.53503,-4.7373 -3.70995,-3.6031 -6.68682,-9.3376 -6.71735,-12.9401 -0.0176,-2.071 -0.54682,-2.4513 -4.74342,-3.4082 -8.37335,-1.9095 -15.08518,-8.6078 -17.09252,-17.0583 -0.98936,-4.1649 -1.1578,-4.3328 -5.34642,-5.3278 -2.37868,-0.565 -6.06172,-2.2223 -8.18452,-3.6828 -4.1874,-2.881 -8.20176,-9.289 -9.20298,-14.6905 -0.57238,-3.0879 -1.33078,-3.7398 -11.25204,-9.6723 -5.85106,-3.4986 -10.89344,-6.3611 -11.20528,-6.3611 -0.31185,0 -0.99043,1.2146 -1.50795,2.6992 l -0.94096,2.6992 h -7.34335 c -7.02532,0 -8.90165,-0.5196 -43.324616,-11.9979 l -35.98128,-11.998 -0.22996,-77.0767 -0.22996,-77.0767 h 11.85857 11.85857 l 18.73499,10.8865 18.734981,10.8865 10.349815,-2.5243 c 8.50531,-2.0744 10.34981,-2.8174 10.34981,-4.1692 0,-0.9047 -2.53053,-4.0131 -5.6234,-6.9075 -3.09287,-2.8944 -7.15243,-7.8404 -9.021253,-10.9911 -5.439026,-9.1696 -7.064148,-15.5883 -7.601088,-30.0215 -0.524123,-14.0887 0.557811,-23.3964 3.543844,-30.487 6.016677,-14.2871 17.192247,-25.0115 31.106027,-29.8503 3.48775,-1.2129 9.35024,-2.4596 13.02776,-2.7705 l 6.68638,-0.5652 -3.99095,-9.4708 -3.99096,-9.4709 19.6478,-19.5872 19.6478,-19.5873 11.44245,7.537 11.44245,7.5371 8.35191,-3.8774 c 4.59355,-2.1325 10.57878,-4.5901 13.3005,-5.4613 2.72173,-0.8712 5.35348,-1.9555 5.84834,-2.4097 0.49486,-0.4541 2.11597,-6.5788 3.60247,-13.6104 l 2.70273,-12.7849 h 28.33494 28.33494 l 2.70273,12.7849 c 1.4865,7.0316 3.10761,13.1563 3.60247,13.6104 0.49486,0.4542 3.12661,1.5385 5.84833,2.4097 2.72173,0.8712 8.70695,3.3288 13.3005,5.4613 l 8.35191,3.8774 11.44246,-7.5371 11.44246,-7.537 19.65125,19.5907 19.65125,19.5907 -3.99696,9.363 -3.99696,9.363 6.08375,0.5756 c 12.41591,1.1749 23.4913,6.3908 32.32905,15.2253 6.36174,6.3594 11.32546,14.7358 14.09624,23.7878 1.32631,4.3329 1.65301,8.4174 1.65525,20.6941 0.002,13.3086 -0.25645,16.1139 -1.99276,21.5939 -2.78781,8.7986 -7.83238,16.8483 -14.42477,23.0177 -3.09287,2.8944 -5.6234,5.9982 -5.6234,6.8973 0,1.3637 2.34945,2.2102 14.17097,5.1056 7.79403,1.909 16.92211,4.4517 20.28461,5.6505 l 6.11365,2.1796 12.14503,-6.3547 12.14502,-6.3546 h 8.50871 8.50871 v 54.2124 54.2123 l -67.03092,33.5119 -67.03092,33.5118 -0.0198,3.3749 c -0.0109,1.8561 -0.84451,5.1968 -1.85253,7.4237 -3.23355,7.1433 -9.33962,12.1467 -16.2671,13.3293 -3.67768,0.6278 -3.89219,0.8373 -4.49923,4.3931 -0.35058,2.0537 -1.25932,4.9366 -2.01942,6.4064 -3.13027,6.0533 -11.3451,11.7962 -16.93798,11.8412 -1.94528,0.016 -2.56744,0.5352 -2.98657,2.494 -1.21632,5.6847 -3.35,10.0684 -6.37097,13.0893 -3.61439,3.6144 -7.94057,5.9181 -12.50509,6.6588 -2.70219,0.4385 -3.15698,0.9038 -3.67465,3.7599 -1.28237,7.0749 -5.86758,13.1546 -12.45579,16.5157 -3.89136,1.9852 -12.99677,2.9141 -16.68934,1.7025 z m 12.03069,-16.2043 c 2.48714,-2.155 3.32738,-5.0717 2.30549,-8.0031 -0.49233,-1.4123 -2.67714,-4.0574 -4.85512,-5.878 l -3.95998,-3.3101 -1.99901,2.9201 c -1.09947,1.6061 -3.45383,4.4698 -5.23193,6.3638 l -3.2329,3.4436 3.59897,3.0453 c 1.97944,1.6749 4.40875,3.1976 5.39846,3.3839 2.69244,0.5066 6.08877,-0.3304 7.97602,-1.9655 z m -29.62898,-12.7475 c 4.15057,-3.9847 8.21623,-8.6563 9.0348,-10.3813 1.23152,-2.5953 1.30771,-3.6836 0.44158,-6.308 -1.27529,-3.8642 -5.64718,-6.3247 -9.54726,-5.3733 -1.54934,0.3779 -5.87304,3.9601 -10.89187,9.0238 -7.68883,7.7575 -8.32263,8.6689 -8.32263,11.9683 0,2.659 0.60595,4.1773 2.37205,5.9434 1.74926,1.7492 3.29031,2.372 5.86944,2.372 3.149,0 4.24913,-0.7217 11.04389,-7.2449 z m 52.46919,-10.0737 c 1.37913,-1.2873 2.02443,-2.9287 2.02443,-5.1492 0,-3.9763 -0.52228,-4.4987 -23.84322,-23.8473 -9.40232,-7.8007 -17.18585,-14.4384 -17.29674,-14.7503 -0.11088,-0.3119 1.91354,-2.9197 4.49872,-5.7951 l 4.70033,-5.228 20.42089,17.0348 c 11.23149,9.3692 21.08306,17.289 21.89238,17.5996 3.06543,1.1763 6.6649,0.4971 9.35297,-1.7647 2.01928,-1.6991 2.76706,-3.0989 2.7638,-5.1735 -0.003,-1.6389 -0.86049,-3.8484 -2.02443,-5.2138 -1.11097,-1.3033 -10.42131,-9.3376 -20.68964,-17.854 -10.26833,-8.5163 -18.65986,-15.7502 -18.64785,-16.0751 0.012,-0.325 2.13765,-2.9039 4.72365,-5.731 l 4.70183,-5.1402 20.94152,17.5117 c 19.63885,16.4223 21.1683,17.5116 24.58723,17.5116 2.82981,0 4.2343,-0.5886 6.27573,-2.63 2.80597,-2.806 3.22752,-4.9714 1.64426,-8.4463 -1.13884,-2.4994 -63.33071,-58.7392 -67.65839,-61.183 -2.09261,-1.1817 -4.24526,-1.5393 -7.83408,-1.3012 -4.4238,0.2935 -6.65509,1.348 -21.04012,9.9433 -8.85034,5.2882 -17.55536,10.0215 -19.34449,10.5185 -7.81206,2.1699 -16.1586,0.3805 -23.17018,-4.9675 -1.58029,-1.2053 -4.12234,-4.6911 -5.64899,-7.7462 -2.19989,-4.4024 -2.77573,-6.705 -2.77573,-11.0991 0,-7.0546 1.95016,-12.7636 5.96041,-17.4487 2.56207,-2.9932 7.12859,-5.6952 24.01932,-14.2125 l 20.8558,-10.5167 -6.45878,-2.0473 c -12.17965,-3.8608 -20.46646,-5.079 -31.23724,-4.5924 -7.8566,0.355 -15.63571,1.7092 -36.42153,6.3401 -14.53711,3.2387 -26.72184,6.2221 -27.07716,6.6298 -0.68931,0.7908 -19.83404,67.628 -19.80164,69.1306 0.0106,0.4899 4.99862,3.8282 11.08455,7.4184 l 11.06534,6.5276 9.12602,-9.0308 c 5.26996,-5.215 10.75599,-9.7706 12.98361,-10.7817 4.67711,-2.1227 13.78609,-2.3652 18.28203,-0.4867 1.71592,0.7169 4.51732,2.3694 6.22532,3.6722 3.26228,2.4883 7.69216,10.2431 7.69216,13.4657 0,2.3928 1.62597,4.0464 4.00386,4.0719 3.01927,0.032 8.87135,3.0967 12.12231,6.3476 3.4841,3.4841 6.31883,9.1608 6.34766,12.7114 0.0171,2.1006 0.48142,2.5155 3.3938,3.0327 4.80947,0.8542 11.56396,4.692 14.09269,8.0073 2.70038,3.5404 5.02687,9.015 5.02687,11.8292 0,1.6163 0.49506,2.1416 2.02442,2.1483 2.38358,0.01 10.23778,3.6888 12.84105,6.0141 1.00055,0.8937 2.70492,2.879 3.78748,4.4119 2.69305,3.8131 18.46843,16.7548 22.06397,18.1006 3.56826,1.3356 6.75995,0.7385 9.4438,-1.7666 z m -73.3785,-13.9969 c 6.87727,-6.8772 8.82188,-9.3662 8.82188,-11.2914 0,-5.7899 -4.73387,-9.9717 -10.12213,-8.9417 -1.38856,0.2654 -5.76243,3.9528 -10.94137,9.2241 -7.59157,7.727 -8.62805,9.1606 -8.62805,11.9344 0,4.542 3.5667,7.8965 8.39595,7.8965 3.42116,0 4.2091,-0.5572 12.47372,-8.8219 z M 192.158,1516.0951 c 1.65723,-0.7864 6.27337,-4.8257 10.25808,-8.9763 6.52325,-6.7948 7.24494,-7.8949 7.24494,-11.0439 0,-2.5791 -0.6228,-4.1202 -2.37205,-5.8694 -1.78313,-1.7832 -3.27809,-2.3721 -6.02137,-2.3721 -3.40409,0 -4.20759,0.5593 -11.95777,8.3227 -4.75544,4.7635 -8.57269,9.3882 -8.92633,10.8143 -0.88616,3.5738 1.16764,7.8428 4.4636,9.2779 1.52361,0.6634 3.1139,1.2221 3.53397,1.2415 0.42007,0.019 2.11969,-0.6083 3.77693,-1.3947 z m -22.26597,-22.3302 c 1.33629,-0.6965 5.76993,-4.6959 9.85252,-8.8875 6.78111,-6.9621 7.42288,-7.9311 7.42288,-11.2073 0,-4.7606 -3.38382,-8.3303 -7.89655,-8.3303 -2.77414,0 -4.20822,1.0373 -11.9505,8.6439 -4.83892,4.7542 -9.04512,9.6284 -9.34709,10.8315 -0.70065,2.7916 1.68202,7.8871 4.27352,9.1391 2.76018,1.3336 4.82143,1.2825 7.64522,-0.1894 z m 307.89268,-119.3005 c 0,-28.6828 -0.29422,-41.3869 -0.9585,-41.3869 -0.52718,0 -32.17719,16.4376 -70.33337,36.528 l -69.37486,36.528 -5.91993,-0.6151 c -3.25597,-0.3384 -16.43209,-3.6147 -29.28027,-7.2809 -12.84818,-3.6661 -25.22945,-6.9136 -27.51393,-7.2166 -7.52345,-0.998 -13.419,1.0635 -37.83673,13.2305 -19.3807,9.6571 -23.65633,12.1319 -25.12706,14.5441 -2.14349,3.5155 -2.25802,7.0239 -0.3599,11.0239 1.73652,3.6594 6.65978,6.2375 10.46005,5.4775 1.4704,-0.2941 9.10687,-4.4028 16.96993,-9.1304 19.42105,-11.6768 21.34913,-12.483 29.78553,-12.4547 11.48945,0.039 13.446,1.3932 51.07477,35.3654 l 32.78132,29.5957 62.81647,-31.4108 62.81648,-31.4107 z m -355.8878,41.2982 c 7.78929,-27.2675 13.8188,-49.9008 13.39892,-50.2963 -2.02493,-1.9071 -16.1274,-9.6735 -16.60922,-9.1469 -0.84215,0.9204 -26.29024,103.6239 -25.798102,104.1161 0.562462,0.5624 12.551752,4.7502 13.849072,4.8373 0.56161,0.038 7.18151,-21.5828 15.15933,-49.5102 z m -29.959735,-13.8563 c 7.315243,-29.1958 13.312385,-53.3404 13.326995,-53.6547 0.0146,-0.3142 -11.861069,-7.5009 -26.390396,-15.9704 -21.07746,-12.2866 -27.08004,-15.3991 -29.69754,-15.3991 h -3.28059 l 0.23093,64.1067 0.23093,64.1068 14.84578,5.1203 c 8.16517,2.8162 15.428,5.0423 16.13961,4.947 0.93179,-0.1248 5.015609,-15.0272 14.594281,-53.2566 z m 244.388265,-25.6411 c 0.13772,-7.6703 -0.18159,-15.9705 -0.70957,-18.4448 -0.52798,-2.4743 -1.96435,-6.0201 -3.19192,-7.8797 -4.46128,-6.7579 -7.45699,-8.0799 -32.33038,-14.2673 l -22.95176,-5.7093 v -11.8457 -11.8457 l 4.45123,-2.8563 c 6.1028,-3.9162 10.52249,-9.0515 13.86917,-16.1149 l 2.82359,-5.9593 v -16.2421 -16.242 l -3.33988,-6.7578 c -9.57695,-19.3776 -29.99861,-27.0857 -48.87033,-18.446 -5.73773,2.6268 -12.98869,9.1322 -16.01782,14.3708 -4.55839,7.8832 -5.27668,11.982 -4.95184,28.2565 0.29393,14.7261 0.36331,15.1929 3.12419,21.0199 3.34668,7.0634 7.76637,12.1987 13.86917,16.1149 l 4.45123,2.8563 v 11.8457 11.8457 l -22.95176,5.7093 c -24.89222,6.192 -27.85966,7.5034 -32.35631,14.2983 -2.00676,3.0324 -4.89483,13.236 -3.9786,14.0564 0.1944,0.1741 3.39009,-0.2243 7.10152,-0.8854 9.3412,-1.6639 26.42797,-1.5898 34.90301,0.1513 3.8143,0.7836 15.03278,3.9712 24.92996,7.0834 9.89719,3.1123 20.82908,6.1206 24.29309,6.6852 3.46401,0.5646 15.813,3.8237 27.44219,7.2425 15.32067,4.504 22.38298,6.1733 25.6427,6.061 l 4.49872,-0.1549 z m 55.63158,-15.5206 c 21.94081,-11.5055 39.90327,-21.1742 39.91657,-21.4861 0.0133,-0.3119 -7.9723,-2.5614 -17.74577,-4.9989 l -17.76994,-4.4318 -0.25035,-11.7709 -0.25035,-11.771 3.88028,-2.274 c 5.36931,-3.1466 12.07077,-10.5607 14.66246,-16.2217 1.19386,-2.6077 2.62683,-7.9595 3.18438,-11.8929 1.20917,-8.5302 0.45851,-22.4834 -1.53647,-28.56 -6.08243,-18.5268 -23.49057,-29.8295 -41.11712,-26.6964 -12.51761,2.2249 -21.77825,9.1482 -27.36964,20.4616 l -3.38833,6.8558 v 16.692 16.6919 l 2.82358,5.9593 c 3.34668,7.0634 7.76637,12.1987 13.86917,16.1149 l 4.45123,2.8563 v 11.8616 11.8615 l -12.14655,2.9828 c -6.68059,1.6405 -12.13527,3.2449 -12.12151,3.5652 0.0138,0.3204 1.2242,2.1673 2.68985,4.1042 1.46564,1.937 3.53953,5.7834 4.60863,8.5476 1.58848,4.1071 2.0214,7.5342 2.36815,18.7469 0.23338,7.5466 0.63246,13.7211 0.88683,13.7211 0.25438,0 18.41409,-9.4135 40.3549,-20.919 z m -230.34583,9.5294 10.91565,-2.3921 0.53346,-6.9178 c 0.61653,-7.995 3.09298,-15.2934 6.89354,-20.3161 1.46565,-1.9369 2.67607,-3.7838 2.68984,-4.1042 0.0138,-0.3203 -5.44091,-1.9247 -12.12152,-3.5652 l -12.14654,-2.9828 v -11.8615 -11.8616 l 4.45123,-2.8563 c 6.10279,-3.9162 10.52249,-9.0515 13.86918,-16.1149 2.71678,-5.7339 2.8351,-6.4762 3.12823,-19.6258 0.24132,-10.8252 -0.01,-14.7478 -1.20733,-18.8675 -2.08204,-7.162 -4.4243,-11.4779 -8.8129,-16.239 -8.99088,-9.7539 -20.42754,-13.989 -32.41113,-12.002 -7.50754,1.2449 -14.27183,4.6435 -19.97274,10.0352 -7.08255,6.6984 -10.20223,13.4893 -11.47808,24.9856 -1.31777,11.874 0.005,24.895 3.24877,31.9803 2.68247,5.8593 9.3224,13.2546 14.76402,16.4436 l 3.88029,2.274 -0.25036,11.775 -0.25035,11.775 -7.35913,1.8457 c -4.04752,1.0152 -7.57228,2.0639 -7.83279,2.3306 -0.26051,0.2667 8.23778,5.5302 18.88511,11.6967 l 19.35877,11.2118 -0.27918,7.8732 c -0.15355,4.3303 -0.084,7.873 0.15457,7.8728 0.23856,-3e-4 5.34579,-1.077 11.34939,-2.3927 z m 55.78399,-48.1498 c 12.29679,-3.1287 14.75944,-4.0285 14.75944,-5.3927 0,-0.9005 -2.76839,-4.3729 -6.15197,-7.7164 -3.38358,-3.3435 -7.62087,-8.7247 -9.4162,-11.9582 -5.30409,-9.5532 -6.42351,-15.2605 -6.43517,-32.8098 -0.0112,-16.8273 0.81228,-21.1376 6.0072,-31.444 3.83031,-7.5992 14.6217,-18.1294 22.48612,-21.942 7.04481,-3.4152 16.01316,-5.5096 23.68734,-5.5316 12.16013,-0.035 25.95147,5.8037 34.82752,14.7445 9.36602,9.4344 14.1569,19.1762 16.08473,32.7068 1.22401,8.5908 0.4579,25.7589 -1.4751,33.0561 -2.13182,8.0478 -7.18341,16.3639 -14.07941,23.1782 -3.38358,3.3435 -6.15196,6.8159 -6.15196,7.7164 0,1.3644 2.46921,2.2657 14.81142,5.4059 l 14.81142,3.7686 14.88013,-3.724 c 13.41901,-3.3583 14.87901,-3.9118 14.86877,-5.6366 -0.007,-1.1777 -1.86228,-3.5358 -4.82774,-6.1362 -6.34223,-5.5615 -11.13047,-12.934 -14.17774,-21.8293 -4.48028,-13.0786 -4.38847,-35.5145 0.20131,-49.1931 l 2.00173,-5.9656 -4.25289,-6.3972 c -9.20252,-13.8426 -24.16425,-25.7845 -39.39171,-31.4411 -9.93999,-3.6925 -16.9231,-4.879 -28.61625,-4.8623 -11.68124,0.017 -18.85194,1.2351 -28.61625,4.8623 -15.56288,5.7812 -30.26595,17.5682 -39.54446,31.7018 l -4.57959,6.9758 2.17752,5.7852 c 2.85389,7.5821 4.30729,20.9377 3.53275,32.4635 -1.06972,15.9184 -6.9768,28.9304 -17.20552,37.9 -2.97322,2.6072 -4.82073,4.9574 -4.82774,6.1414 -0.0102,1.7245 1.4166,2.2827 14.15962,5.5387 7.79402,1.9915 14.51347,3.659 14.9321,3.7056 0.41862,0.047 7.40289,-1.6053 15.52058,-3.6707 z m -33.84489,-106.1118 c 1.72202,-2.5265 6.23618,-7.7494 10.03147,-11.6064 7.25899,-7.377 16.49815,-14.1217 25.52657,-18.6349 6.09401,-3.0462 17.147,-6.7697 25.19283,-8.4867 6.96237,-1.4858 28.12765,-1.4858 35.09001,0 8.27537,1.766 19.1656,5.4733 25.64271,8.7294 12.72141,6.3952 26.11029,17.7214 34.39725,29.0981 2.02226,2.7762 3.793,5.1942 3.93497,5.3733 0.14198,0.1791 2.15986,-1.238 4.48419,-3.1491 2.32432,-1.9111 6.07534,-4.4869 8.33559,-5.7241 3.85121,-2.1079 4.37786,-2.8715 8.37756,-12.1465 l 4.26801,-9.8972 -11.84544,-11.9 c -10.97743,-11.028 -11.97979,-11.8125 -13.67897,-10.7053 -1.00844,0.6572 -5.77599,3.7203 -10.59455,6.807 l -8.76101,5.6122 -2.93566,-1.8059 c -9.21294,-5.6675 -26.01413,-12.5817 -34.39198,-14.1534 -2.26063,-0.4241 -3.32852,-1.1651 -3.6362,-2.5232 -0.23958,-1.0575 -1.27292,-5.9715 -2.29631,-10.9201 -1.02339,-4.9486 -2.06554,-9.706 -2.31587,-10.572 -0.4116,-1.4238 -1.99382,-1.5746 -16.52929,-1.5746 -14.53547,0 -16.1177,0.1508 -16.52929,1.5746 -0.25034,0.866 -1.29248,5.6234 -2.31587,10.572 -1.02339,4.9486 -2.05674,9.8626 -2.29632,10.9201 -0.30768,1.3581 -1.37557,2.0991 -3.63619,2.5232 -8.37955,1.572 -25.17929,8.486 -34.39599,14.1559 l -2.93966,1.8084 -10.55649,-6.7987 -10.55649,-6.7987 -11.8675,11.8228 -11.86749,11.8227 1.14615,2.7657 c 0.63039,1.5212 2.47111,6.0049 4.0905,9.9637 2.79615,6.8357 3.20862,7.3513 8.19542,10.244 2.88809,1.6753 6.36228,4.2058 7.7204,5.6234 1.35812,1.4175 2.89967,2.5766 3.42566,2.5756 0.52599,-9e-4 2.36527,-2.0688 4.08728,-4.5953 z"
       id="path11" /></g></svg>
