<?xml version="1.0" encoding="UTF-8" standalone="no"?>
<!-- Created with Inkscape (http://www.inkscape.org/) -->

<svg
   width="512"
   height="512"
   viewBox="0 0 512 512"
   version="1.1"
   id="svg1"
   xml:space="preserve"
   inkscape:version="1.4.4 (dcaf3e7d9e, 2026-05-05)"
   sodipodi:docname="iconos-distribucion.svg"
   xmlns:inkscape="http://www.inkscape.org/namespaces/inkscape"
   xmlns:sodipodi="http://sodipodi.sourceforge.net/DTD/sodipodi-0.dtd"
   xmlns="http://www.w3.org/2000/svg"
   xmlns:svg="http://www.w3.org/2000/svg"><sodipodi:namedview
     id="namedview1"
     pagecolor="#ffffff"
     bordercolor="#999999"
     borderopacity="1"
     inkscape:showpageshadow="2"
     inkscape:pageopacity="0"
     inkscape:pagecheckerboard="0"
     inkscape:deskcolor="#d1d1d1"
     inkscape:document-units="px"
     inkscape:zoom="0.66699219"
     inkscape:cx="-35.232796"
     inkscape:cy="529.99121"
     inkscape:window-width="1920"
     inkscape:window-height="915"
     inkscape:window-x="0"
     inkscape:window-y="40"
     inkscape:window-maximized="1"
     inkscape:current-layer="layer1"><inkscape:page
       x="0"
       y="0"
       width="512"
       height="512"
       id="page2"
       margin="0"
       bleed="0" /></sodipodi:namedview><defs
     id="defs1" /><g
     inkscape:label="Capa 1"
     inkscape:groupmode="layer"
     id="layer1"
     transform="translate(553.39441)"><g
       id="g2"
       transform="matrix(1.093826,0,0,1.093826,29.242997,-23.667477)"><path
         style="fill:#fcf8e8"
         d="m -392.98572,328.54922 c -0.95772,-2.29214 -3.79108,-11.20631 -4.70723,-14.80964 -1.19408,-4.69647 -2.77311,-14.22746 -3.39331,-20.48201 -0.78039,-7.86993 -0.65747,-26.45472 0.22512,-34.03731 4.04616,-34.76178 17.76431,-70.59031 37.75982,-98.61965 9.60326,-13.46167 22.14183,-26.01758 33.06299,-33.10871 12.45653,-8.08804 23.21768,-11.67819 35.00429,-11.67819 11.16287,0 20.41473,2.95957 32.29351,10.33035 10.31226,6.39875 23.82443,20.13734 32.76709,33.31615 9.57432,14.10969 18.05504,31.03138 23.77297,47.43451 8.09747,23.22935 11.96311,44.70536 11.96311,66.46246 0,20.25956 -3.55902,40.10934 -9.80243,54.67118 l -0.83555,1.94881 h -77.09931 -77.09931 l -1.86753,-5.64128 c -3.40912,-10.29797 -5.14252,-18.86629 -6.24576,-30.87318 l -0.69741,-7.59009 0.2281,-11.48769 c 0.27595,-13.89734 1.21059,-21.7047 4.24104,-35.42679 l 1.48132,-6.70756 -0.47293,-1.5785 c -0.26011,-0.86817 -0.95494,-1.95765 -1.54407,-2.42106 -2.07247,-1.6302 -6.08598,-0.78798 -7.25995,1.52346 -1.20622,2.37497 -4.112,17.48532 -5.4623,28.40459 l -0.73567,5.94899 -0.008,13.12879 c -0.012,19.76701 1.85281,33.85281 6.33446,47.84698 l 1.56069,4.87334 h -11.43358 -11.43357 z m 39.22427,-124.08536 c 0.55221,-0.43437 1.91252,-2.78832 3.02292,-5.23101 3.60317,-7.92633 8.62042,-17.85713 11.82396,-23.40354 l 3.1324,-5.42322 v -1.59869 c 0,-1.93168 -1.20197,-3.6191 -3.16095,-4.43762 l -1.38208,-0.57747 -1.56094,0.42032 c -0.85852,0.23118 -1.84523,0.74419 -2.19269,1.14003 -2.13758,2.43523 -11.03972,19.4071 -15.06347,28.71838 l -2.52534,5.84383 0.25331,1.33598 c 0.13932,0.73479 0.471,1.62139 0.73706,1.97022 1.59319,2.08885 5.05041,2.71011 6.91582,1.24279 z"
         id="path5" /><path
         style="fill:#fcf7e8"
         d="m -306.03725,392.3139 c -21.03302,-1.5276 -40.41286,-9.67474 -58.46416,-24.57791 -3.57857,-2.95447 -5.78843,-5.12311 -11.20619,-10.99713 -2.65678,-2.88052 -6.84917,-8.54448 -9.5224,-12.86484 -1.92986,-3.11896 -7.1701,-13.12089 -7.1701,-13.68541 0,-0.11629 5.14871,-0.21144 11.44158,-0.21144 h 11.44158 l 1.33976,3.38476 c 2.74537,6.93586 8.50768,17.77032 10.39331,19.54178 2.13796,2.0085 6.11014,1.38378 7.43,-1.16855 1.12207,-2.16985 0.78621,-3.49208 -2.22729,-8.7683 -3.03596,-5.31555 -6.44188,-12.4507 -6.10438,-12.7882 0.11201,-0.11201 34.76751,-0.15701 77.01223,-0.1 l 76.80859,0.10364 -2.29275,4.45129 c -5.19176,10.07964 -10.26343,17.19602 -17.82972,25.01803 -22.40166,23.15879 -51.33886,34.82016 -81.05006,32.66228 z"
         id="path4" /><path
         style="fill:#f0cc4c"
         d="m -308.90917,475.74966 c -31.2532,-2.80714 -56.76292,-12.38893 -80.41387,-30.20451 -34.76805,-26.18978 -59.73207,-67.63516 -70.10494,-116.38853 -8.91034,-41.8794 -4.69059,-95.74141 11.24985,-143.59619 13.04201,-39.15339 34.57171,-76.21378 59.43378,-102.306992 15.12038,-15.869124 30.68512,-27.937264 46.19264,-35.815531 15.64803,-7.949643 28.54816,-11.520653 43.07886,-11.925076 l 7.79522,-0.216959 5.94899,0.868035 c 24.18525,3.528947 49.2202,17.167489 72.30347,39.389483 28.69176,27.62122 51.75624,65.11327 66.12859,107.49414 10.3225,30.43877 15.65843,59.93194 16.60386,91.7741 1.00029,33.69009 -3.81196,61.87386 -15.61721,91.46486 -12.04293,30.18675 -31.59478,57.30266 -54.81361,76.01947 -24.28903,19.57949 -52.17914,30.69507 -83.57942,33.3105 -4.57405,0.38099 -20.47344,0.46848 -24.20621,0.1332 z m 21.12915,-83.45309 c 25.76645,-2.69811 51.8357,-17.57713 70.01218,-39.95943 3.58631,-4.41613 8.65858,-12.59717 11.89188,-19.18034 l 1.56167,-3.17963 h 6.86049 c 7.53329,0 7.58402,-0.018 7.82189,-2.76936 0.0244,-0.28206 0.20908,-0.51284 0.41044,-0.51284 0.20136,0 0.25201,-0.18463 0.11255,-0.41028 -0.13946,-0.22565 -0.10954,-0.64105 0.0665,-0.92312 0.17603,-0.28206 0.37522,-0.8676 0.44266,-1.30119 0.0674,-0.43359 0.29866,-1.00049 0.51385,-1.25977 0.32689,-0.39388 2.70106,-9.271 3.0203,-11.29302 0.0541,-0.34245 0.24652,-0.86245 0.42767,-1.15556 0.18115,-0.29311 0.22506,-0.63723 0.0976,-0.76471 -0.12748,-0.12748 -0.0765,-0.5306 0.11329,-0.89582 0.18979,-0.36522 0.45699,-1.67947 0.59377,-2.92055 0.13678,-1.24108 0.3631,-2.71807 0.50293,-3.2822 0.13982,-0.56413 0.31151,-1.56526 0.38151,-2.22474 0.07,-0.65947 0.26813,-2.04415 0.44028,-3.07706 0.4021,-2.41267 0.55593,-3.86299 1.22184,-11.51947 0.57627,-6.62589 0.31842,-24.81584 -0.40711,-28.71923 -0.10485,-0.56413 -0.29408,-2.41037 -0.42051,-4.10275 -0.12643,-1.69239 -0.33068,-3.53862 -0.4539,-4.10275 -0.12321,-0.56413 -0.28935,-1.76418 -0.36921,-2.66679 -0.1428,-1.61418 -0.51365,-3.97992 -0.89247,-5.69327 -0.10593,-0.47912 -0.36144,-1.97887 -0.56781,-3.33277 -0.47882,-3.1414 -1.92782,-10.1752 -2.53556,-12.30825 -0.59104,-2.07442 -0.64258,-2.26389 -0.92078,-3.38476 -0.12602,-0.50772 -0.32144,-1.29237 -0.43426,-1.74367 -0.11283,-0.4513 -0.28106,-1.14364 -0.37385,-1.53853 -0.0928,-0.39489 -0.38611,-1.27186 -0.65184,-1.94881 -0.46157,-1.17588 -0.58936,-1.62086 -1.00351,-3.49452 -0.30112,-1.36228 -3.08892,-9.53803 -3.71123,-10.88386 -0.31779,-0.68728 -0.77929,-2.14871 -1.02557,-3.24764 -0.24627,-1.09893 -0.70946,-2.47516 -1.0293,-3.0583 -0.72441,-1.32074 -2.25644,-4.8262 -2.25644,-5.16299 0,-0.13759 -0.40611,-1.11699 -0.90246,-2.17645 -0.49636,-1.05947 -0.92682,-2.01861 -0.95657,-2.13144 -0.47339,-1.79491 -0.74629,-2.46165 -1.00759,-2.46165 -0.25692,0 -1.31845,-2.07264 -1.47089,-2.87192 -0.0215,-0.11283 -0.26742,-0.75901 -0.54644,-1.43596 -0.27901,-0.67696 -0.50748,-1.32314 -0.5077,-1.43596 -2.1e-4,-0.11283 -0.22953,-0.48208 -0.50959,-0.82055 -0.28006,-0.33848 -0.84881,-1.40007 -1.2639,-2.35908 -0.41508,-0.95902 -0.86621,-1.74367 -1.00251,-1.74367 -0.28056,0 -1.39483,-2.36046 -1.53544,-3.25266 -0.0508,-0.32223 -0.46477,-1.06072 -0.91998,-1.6411 -0.4552,-0.58037 -1.24179,-1.88603 -1.74798,-2.90146 -0.50618,-1.01543 -1.18633,-2.11585 -1.51144,-2.44538 -0.32511,-0.32953 -0.8493,-1.16034 -1.16486,-1.84624 -0.31557,-0.6859 -1.07457,-2.00218 -1.68668,-2.92505 -0.61211,-0.92288 -2.07893,-3.13836 -3.25962,-4.9233 -1.18068,-1.78494 -2.74998,-3.96238 -3.48733,-4.83877 -0.73735,-0.87639 -1.50206,-1.89182 -1.69936,-2.25651 -0.19729,-0.3647 -0.57331,-0.84771 -0.83561,-1.07336 -0.26229,-0.22565 -0.92668,-1.05646 -1.47641,-1.84624 -1.56514,-2.24856 -3.68944,-4.74437 -6.66302,-7.82827 -0.62054,-0.64356 -1.12825,-1.30174 -1.12825,-1.46262 0,-0.16087 -1.84624,-2.09033 -4.10275,-4.28768 -2.25651,-2.19735 -4.10275,-3.9109 -4.10275,-3.8079 0,0.10301 -0.25831,-0.0508 -0.57403,-0.34174 -0.31572,-0.29096 -0.49919,-0.60709 -0.40771,-0.70252 0.0915,-0.0954 -0.85027,-0.89468 -2.09276,-1.77611 -1.24249,-0.88144 -2.25907,-1.77263 -2.25907,-1.98044 0,-0.20781 -0.25176,-0.37783 -0.55947,-0.37783 -0.3077,0 -1.00004,-0.43436 -1.53853,-0.96525 -0.53848,-0.53088 -1.44062,-1.20637 -2.00475,-1.50107 -0.56413,-0.2947 -1.2691,-0.87886 -1.5666,-1.29813 -0.2975,-0.41926 -0.71291,-0.656 -0.92312,-0.52609 -0.21021,0.12992 -0.38432,0.0868 -0.38691,-0.0957 -0.003,-0.18256 -0.74108,-0.68471 -1.6411,-1.11591 -0.90001,-0.43119 -1.63639,-0.89692 -1.63639,-1.03496 0,-0.13803 -0.69234,-0.61081 -1.53853,-1.05061 -0.84619,-0.43981 -2.2272,-1.22029 -3.06891,-1.7344 -0.84171,-0.51411 -1.73571,-0.93475 -1.98666,-0.93475 -0.25096,0 -0.92571,-0.36925 -1.49945,-0.82055 -0.57373,-0.4513 -1.27265,-0.82055 -1.55313,-0.82055 -0.28049,0 -1.22487,-0.31187 -2.09862,-0.69305 -0.87375,-0.38118 -1.7271,-0.72735 -1.89634,-0.76927 -0.16924,-0.0419 -0.40002,-0.12237 -0.51284,-0.17878 -0.11283,-0.0564 -0.34361,-0.13009 -0.51285,-0.16373 -1.48876,-0.29592 -4.20531,-1.22834 -4.20531,-1.44342 0,-0.14833 -0.59278,-0.31485 -1.31728,-0.37006 -0.72451,-0.0552 -1.41684,-0.24077 -1.53853,-0.41237 -0.12169,-0.1716 -0.77513,-0.35139 -1.45208,-0.39953 -0.67695,-0.0481 -2.15394,-0.34415 -3.2822,-0.65779 -1.12825,-0.31364 -2.69755,-0.59879 -3.48733,-0.63367 -4.13905,-0.18279 -13.08242,-0.10805 -14.15448,0.11829 -0.67696,0.14292 -2.15395,0.35998 -3.2822,0.48236 -3.36708,0.36521 -3.87998,0.4536 -4.1399,0.71352 -0.13651,0.13652 -0.48842,0.15604 -0.78201,0.0434 -0.29359,-0.11267 -0.65569,-0.008 -0.80465,0.2334 -0.14897,0.24104 -0.89525,0.43825 -1.65839,0.43825 -0.76314,0 -1.5035,0.18763 -1.64524,0.41696 -0.14173,0.22934 -0.4168,0.31864 -0.61127,0.19845 -0.19447,-0.12019 -0.47732,-0.0183 -0.62856,0.22641 -0.15125,0.24472 -0.52132,0.35041 -0.8224,0.23488 -0.30107,-0.11553 -0.60549,-0.0467 -0.67648,0.15304 -0.071,0.1997 -0.63374,0.45349 -1.25056,0.56397 -0.61682,0.11048 -1.35531,0.34677 -1.6411,0.5251 -0.28579,0.17833 -0.8792,0.38014 -1.31869,0.44847 -0.43949,0.0683 -1.08567,0.37959 -1.43596,0.69169 -0.35029,0.31209 -1.42154,0.77636 -2.38055,1.0317 -0.95902,0.25534 -1.74367,0.65265 -1.74367,0.88293 0,0.23027 -0.16886,0.31431 -0.37523,0.18676 -0.20638,-0.12755 -0.44051,-0.0361 -0.5203,0.20327 -0.0798,0.23934 -0.41864,0.48232 -0.75302,0.53995 -0.69015,0.11894 -4.78558,2.18247 -5.48271,2.76253 -0.74505,0.61992 -3.55481,2.42158 -3.77656,2.42158 -0.11233,0 -0.42722,0.18805 -0.69976,0.41788 -1.84471,1.55565 -2.50199,2.04377 -2.75204,2.04377 -0.25005,0 -0.90733,0.48812 -2.75204,2.04377 -0.27254,0.22983 -0.60402,0.41788 -0.73663,0.41788 -0.13261,0 -0.67934,0.4154 -1.21496,0.92312 -1.82799,1.73274 -3.1609,2.76935 -3.56093,2.76935 -0.2198,0 -0.30222,0.15763 -0.18315,0.35028 0.11906,0.19266 -0.23929,0.55795 -0.79634,0.81176 -0.55705,0.25381 -1.01282,0.66095 -1.01282,0.90475 0,0.24381 -0.15763,0.34587 -0.35028,0.2268 -0.19266,-0.11906 -0.55795,0.23929 -0.81176,0.79634 -0.25381,0.55705 -0.62767,1.01282 -0.83081,1.01282 -0.20314,0 -1.84633,1.47699 -3.65154,3.2822 -1.80521,1.80521 -3.17291,3.2822 -3.03934,3.2822 0.13357,0 -0.58488,0.78465 -1.59655,1.74367 -1.01167,0.95901 -2.38954,2.47607 -3.06194,3.37123 -1.1923,1.5873 -1.46323,1.91067 -3.37648,4.02996 -0.50772,0.56239 -0.92312,1.13161 -0.92312,1.26494 0,0.13333 -0.64618,0.90781 -1.43596,1.72106 -0.78978,0.81326 -1.43596,1.73974 -1.43596,2.05884 0,0.31911 -0.14751,0.58019 -0.3278,0.58019 -0.18029,0 -0.78032,0.73353 -1.33339,1.63007 -0.55308,0.89653 -1.14407,1.63503 -1.31331,1.6411 -0.16923,0.006 -0.30858,0.24181 -0.30966,0.52387 -10e-4,0.28207 -0.64726,1.21546 -1.43596,2.07421 -0.7887,0.85875 -1.434,1.74343 -1.434,1.96596 0,0.22253 -0.36925,0.80094 -0.82055,1.28536 -0.45131,0.48441 -0.82055,1.12287 -0.82055,1.4188 0,0.29593 -0.17219,0.53805 -0.38263,0.53805 -0.21045,0 -0.50997,0.40122 -0.66561,0.89161 -0.15564,0.49038 -0.44762,1.09041 -0.64884,1.33339 -0.83865,1.01272 -2.40567,3.58396 -2.40567,3.94734 0,0.21563 -0.2154,0.39206 -0.47866,0.39206 -0.26326,0 -0.36606,0.11259 -0.22844,0.25021 0.13762,0.13762 -0.20086,0.96475 -0.75217,1.83808 -0.55131,0.87333 -1.00238,1.69273 -1.00238,1.82088 0,0.12814 -0.6067,1.1934 -1.34822,2.36723 -1.29684,2.0529 -4.44335,8.29264 -6.55878,13.00652 -0.55696,1.24108 -1.41918,3.12701 -1.91605,4.19096 -0.49687,1.06395 -0.85522,1.98707 -0.79634,2.05137 0.0589,0.0643 -0.40688,0.99389 -1.03503,2.06573 -0.62814,1.07184 -1.0036,1.94881 -0.83436,1.94881 0.16924,0 -0.0265,0.36924 -0.43488,0.82055 -0.40842,0.4513 -0.59905,0.82055 -0.42362,0.82055 0.17542,0 0.13771,0.23078 -0.0838,0.51284 -0.22153,0.28206 -0.52327,1.14691 -0.67052,1.92188 -0.14726,0.77498 -0.50565,1.69809 -0.79643,2.05138 -0.29077,0.35328 -0.95861,2.02701 -1.48408,3.71939 -0.52547,1.69239 -1.14496,3.53862 -1.37666,4.10275 -0.23169,0.56413 -0.44917,1.21031 -0.4833,1.43596 -0.0341,0.22565 -0.16349,0.68721 -0.28749,1.02569 -1.09837,2.99826 -2.82076,8.69856 -2.89335,9.57567 -0.0497,0.60031 -0.26546,1.09148 -0.4795,1.09148 -0.21404,0 -0.28762,0.10155 -0.16349,0.22567 0.24963,0.24964 -0.0315,1.53496 -1.52092,6.95413 -0.37212,1.35391 -0.76997,3.01552 -0.88413,3.69248 -0.11415,0.67695 -0.38712,1.96932 -0.6066,2.87192 -0.21949,0.90261 -0.48962,2.28728 -0.6003,3.07706 -0.19482,1.39019 -0.76804,5.25967 -1.21556,8.2055 -0.11998,0.78978 -0.39752,2.35908 -0.61676,3.48734 -0.21925,1.12825 -0.51359,3.43605 -0.6541,5.12843 -0.36776,4.42953 -0.43972,5.12844 -0.52805,5.12844 -0.18847,0 -0.4537,8.73168 -0.44241,14.56475 0.017,8.78512 0.49745,16.49654 1.38031,22.15484 0.36261,2.32405 0.71577,5.01959 0.86979,6.63889 0.079,0.83075 0.2458,1.84618 0.37064,2.25651 0.12483,0.41033 0.33394,1.37671 0.46467,2.1475 0.13074,0.77079 0.31396,1.52482 0.40716,1.67562 0.0932,0.15081 0.27789,0.90484 0.41042,1.67563 0.13253,0.77079 0.43886,2.13993 0.68074,3.04253 0.24188,0.90261 0.4966,1.91804 0.56604,2.25651 0.0694,0.33848 0.15451,0.61542 0.18904,0.61542 0.0345,0 0.12834,0.36924 0.20847,0.82055 0.0801,0.4513 0.74356,2.62063 1.47429,4.82073 l 1.32861,4.00018 6.80238,0.005 6.80238,0.005 2.56945,5.22578 c 5.06067,10.29244 9.80117,17.02673 17.9014,25.4305 5.96955,6.19325 11.31795,10.65815 18.09498,15.10589 21.07144,13.82911 42.30225,19.0984 66.66966,16.54678 z m -69.02048,-39.16408 c -1.87333,-1.01656 -8.21843,-12.63288 -11.13528,-20.38597 l -1.04188,-2.76935 h 4.90491 4.90491 l 3.1e-4,0.51284 c 4.8e-4,0.79271 4.96862,10.8049 7.11114,14.33091 1.35911,2.23673 1.9146,3.58778 1.9146,4.65662 v 1.5057 l -1.39494,1.39493 -1.39493,1.39494 -1.37442,-0.0164 c -0.75593,-0.009 -1.87842,-0.28992 -2.49442,-0.62419 z"
         id="path3" /><path
         style="fill:#efcc4c"
         d="m -406.77834,328.84891 c -0.22472,-0.62054 -0.60012,-1.5054 -0.83422,-1.96635 -0.23409,-0.46095 -0.49309,-1.19944 -0.57555,-1.6411 -0.0825,-0.44165 -0.17818,-0.803 -0.21271,-0.803 -0.0345,0 -0.1259,-0.27694 -0.20305,-0.61542 -0.0772,-0.33847 -0.7115,-2.83089 -1.40966,-5.53871 -0.69815,-2.70781 -1.3575,-5.38485 -1.4652,-5.94898 -0.1077,-0.56413 -0.29912,-1.48725 -0.42537,-2.05138 -0.12625,-0.56412 -0.31249,-1.67187 -0.41386,-2.46165 -0.10137,-0.78977 -0.29688,-1.89752 -0.43447,-2.46164 -0.13759,-0.56413 -0.31576,-1.65495 -0.39594,-2.42404 -0.0802,-0.7691 -0.25828,-2.06146 -0.39578,-2.87193 -0.1375,-0.81046 -0.30432,-2.11975 -0.37071,-2.90953 -0.0664,-0.78978 -0.27641,-3.18989 -0.46672,-5.33357 -0.1903,-2.14369 -0.3352,-9.06708 -0.32198,-15.38531 l 0.024,-11.48769 0.88716,-7.38495 c 0.48793,-4.06172 0.97285,-7.84696 1.07758,-8.41164 0.10474,-0.56468 0.55967,-3.14941 1.01097,-5.74385 0.45129,-2.59443 0.9022,-5.0864 1.002,-5.5377 0.0998,-0.45131 0.37064,-1.65136 0.60186,-2.66679 0.23122,-1.01543 0.50629,-2.3078 0.61127,-2.87192 0.16527,-0.88805 1.75181,-6.88318 3.20295,-12.10311 0.25093,-0.90261 0.79853,-2.61122 1.2169,-3.79693 0.41836,-1.18571 0.78644,-2.29345 0.81795,-2.46165 0.0847,-0.45208 0.14189,-0.61622 2.46403,-7.0694 1.17621,-3.26867 2.13856,-6.17649 2.13856,-6.46183 0,-0.28534 0.12431,-0.51879 0.27623,-0.51879 0.15193,0 0.53007,-0.78465 0.84033,-1.74367 0.31026,-0.95902 0.91192,-2.3437 1.33702,-3.07706 0.4251,-0.73337 0.63976,-1.3334 0.47701,-1.3334 -0.16274,0 -0.1084,-0.23078 0.12075,-0.51284 0.22916,-0.28206 1.64427,-3.2289 3.14471,-6.54852 3.20614,-7.09342 10.41009,-20.30349 12.87361,-23.60668 0.54694,-0.73337 0.83406,-1.33622 0.63804,-1.33968 -0.19602,-0.003 -0.16041,-0.14192 0.0791,-0.3077 0.38869,-0.26901 5.08894,-6.89439 6.12886,-8.63912 0.22565,-0.3786 0.50926,-0.78066 0.63025,-0.89349 0.12099,-0.11282 1.27005,-1.58981 2.55348,-3.2822 1.28342,-1.69238 2.51697,-3.29364 2.74121,-3.55835 0.22424,-0.2647 1.77157,-2.11094 3.43851,-4.10274 3.71168,-4.43505 10.82166,-12.01883 11.052,-11.78849 0.0926,0.0926 0.9474,-0.66283 1.89958,-1.67873 0.95217,-1.01589 1.85952,-1.84811 2.01634,-1.84937 0.15681,-0.001 1.16139,-0.83207 2.23238,-1.84624 1.071,-1.01417 2.1172,-1.84394 2.32489,-1.84394 0.2077,0 0.43917,-0.1469 0.51439,-0.32644 0.12982,-0.30989 2.88184,-2.4499 4.85628,-3.77631 0.50384,-0.33848 1.60856,-1.10675 2.45494,-1.70728 0.84638,-0.60053 3.54778,-2.15998 6.00311,-3.46545 2.45533,-1.30546 4.52617,-2.52304 4.60185,-2.70573 0.0757,-0.18268 0.30647,-0.22779 0.51284,-0.10024 0.20638,0.12755 0.37524,0.0255 0.37524,-0.2268 0,-0.25228 0.14948,-0.36632 0.33217,-0.2534 0.18269,0.11291 1.33659,-0.30135 2.56422,-0.92058 1.22762,-0.61922 2.32436,-1.13829 2.43718,-1.15347 0.63541,-0.0855 5.16132,-1.58248 5.33357,-1.76412 0.11283,-0.11897 0.38976,-0.22661 0.61542,-0.23919 0.53266,-0.0297 2.69764,-0.59185 3.48733,-0.90549 0.33848,-0.13444 0.89235,-0.27643 1.23083,-0.31555 0.33847,-0.0391 1.81546,-0.27439 3.28219,-0.52284 7.90196,-1.3385 14.8759,-1.36322 22.05355,-0.0782 4.45023,0.79675 12.64179,3.17267 14.87455,4.31429 0.56597,0.28938 1.39678,0.59066 1.84623,0.66949 0.44946,0.0788 0.90951,0.25049 1.02233,0.38146 0.11283,0.13096 1.55382,0.92068 3.20221,1.75492 10.51483,5.3215 21.97,14.41852 30.55446,24.26455 0.78696,0.9026 2.15556,2.4719 3.04134,3.48733 0.88579,1.01543 2.33825,2.7618 3.2277,3.88081 0.88945,1.11902 1.89412,2.34771 2.2326,2.73043 0.33848,0.38273 1.26042,1.59034 2.04876,2.68359 0.78835,1.09325 1.53088,2.08004 1.65008,2.19287 0.1192,0.11282 1.03491,1.47573 2.03491,3.02868 1.00001,1.55295 2.02788,3.03324 2.28417,3.28953 0.25629,0.25628 0.5418,0.65588 0.63448,0.88799 0.0927,0.2321 1.46087,2.59281 3.04043,5.24602 3.0886,5.18795 5.71021,9.96483 7.18253,13.08738 0.50538,1.07185 1.05,1.94881 1.21025,1.94881 0.16026,0 0.29137,0.23144 0.29137,0.51431 0,0.90728 2.2848,5.63981 2.72282,5.63981 0.23244,0 0.30114,0.12148 0.15267,0.26996 -0.14848,0.14848 -0.08,0.49889 0.15225,0.77869 0.23222,0.2798 0.4896,0.85066 0.57197,1.26857 0.0824,0.41792 0.99851,2.74285 2.03588,5.16653 1.03736,2.42368 1.88612,4.59301 1.88612,4.82073 0,0.22772 0.19552,0.41404 0.43449,0.41404 0.23896,0 0.34168,0.15016 0.22825,0.33369 -0.18255,0.29539 1.20059,4.63503 2.18201,6.84612 2.57098,5.79222 9.26801,32.67327 10.1192,40.61721 0.0967,0.9026 0.35058,2.84115 0.56415,4.30789 0.21356,1.46673 0.50941,3.86684 0.65743,5.33357 0.14803,1.46673 0.34698,3.22066 0.44211,3.89761 0.4204,2.9915 0.52996,5.95796 0.56823,15.3853 0.0403,9.91571 -0.51269,17.83175 -1.84847,26.46273 -0.31431,2.03086 -0.68262,4.43097 -0.81846,5.33357 -0.13584,0.90261 -0.35604,2.19497 -0.48933,2.87193 -0.13329,0.67695 -0.28636,1.50776 -0.34016,1.84623 -0.0538,0.33848 -0.19983,0.89235 -0.3245,1.23083 -0.12467,0.33848 -0.71909,2.73858 -1.32094,5.33357 -0.60184,2.59499 -1.27373,5.09352 -1.49309,5.55229 -0.21935,0.45877 -0.91471,2.48963 -1.54523,4.51302 l -1.1464,3.6789 -6.88276,0.11272 -6.88276,0.11271 0.22584,-0.72813 c 0.12421,-0.40047 0.99136,-2.8513 1.92699,-5.44629 5.37144,-14.89782 7.71433,-28.47953 8.09298,-46.91497 0.35842,-17.45065 -1.2694,-31.58408 -5.6775,-49.29447 -6.4326,-25.84423 -15.98862,-47.68515 -29.77309,-68.0484 -6.98615,-10.32036 -13.67437,-17.94232 -22.7469,-25.92261 -9.62128,-8.46296 -20.06992,-14.23932 -30.51494,-16.86968 l -4.10275,-1.03319 -6.40785,-0.22069 -6.40786,-0.22068 -3.84901,0.68546 c -11.6819,2.08042 -23.9793,8.07244 -35.10193,17.10375 -4.43459,3.60077 -13.59118,12.83299 -17.86225,18.00978 -23.57806,28.57799 -40.29245,68.83444 -44.89239,108.12292 -0.99354,8.4859 -0.99141,27.02658 0.004,35.88355 1.31152,11.66818 3.76018,22.63052 6.94198,31.07831 l 1.42938,3.79505 h -6.73481 -6.73481 z m 37.61865,0.81487 c -0.10652,-0.17236 -0.95801,-2.80273 -1.89219,-5.84527 -4.38547,-14.28308 -6.45892,-31.50757 -6.04948,-50.25413 0.2961,-13.55719 1.71975,-24.93616 4.77864,-38.19486 l 1.22144,-5.29427 1.25503,-1.12826 1.25504,-1.12826 h 1.763 1.76301 l 1.07318,1.12826 c 1.71861,1.8068 1.73305,2.76551 0.15087,10.01655 -1.88518,8.63975 -2.96858,15.52088 -3.78694,24.05262 l -0.6576,6.85574 0.2285,11.4877 c 0.35824,18.01074 2.20731,29.80179 6.81995,43.48902 0.91252,2.70776 1.65913,4.9694 1.65913,5.02587 0,0.26946 -9.41275,0.0625 -9.58158,-0.21071 z m 9.85192,-125.663 c -0.58913,-0.4634 -1.27434,-1.52499 -1.52269,-2.35908 l -0.45154,-1.51652 2.1101,-4.92329 c 2.92569,-6.82623 9.17513,-19.17646 12.56018,-24.82163 l 2.82919,-4.71816 1.53609,-0.75061 1.53609,-0.7506 1.43198,0.4726 c 3.48853,1.15131 3.96992,4.05639 1.39527,8.42007 -3.31322,5.61545 -8.97317,16.61483 -11.84708,23.02329 -3.30102,7.36085 -4.41174,8.76649 -6.92715,8.76649 -0.97182,0 -1.99132,-0.32409 -2.65044,-0.84256 z"
         id="path2" /></g></g></svg>
