<?xml version="1.0" encoding="UTF-8" standalone="no"?>
<!-- Created with Inkscape (http://www.inkscape.org/) -->

<svg
   width="512"
   height="512"
   viewBox="0 0 512 512"
   version="1.1"
   id="svg1"
   xml:space="preserve"
   inkscape:version="1.4.4 (dcaf3e7d9e, 2026-05-05)"
   sodipodi:docname="iconos-nosotros.svg"
   xmlns:inkscape="http://www.inkscape.org/namespaces/inkscape"
   xmlns:sodipodi="http://sodipodi.sourceforge.net/DTD/sodipodi-0.dtd"
   xmlns="http://www.w3.org/2000/svg"
   xmlns:svg="http://www.w3.org/2000/svg"><sodipodi:namedview
     id="namedview1"
     pagecolor="#ffffff"
     bordercolor="#999999"
     borderopacity="1"
     inkscape:showpageshadow="2"
     inkscape:pageopacity="0"
     inkscape:pagecheckerboard="0"
     inkscape:deskcolor="#d1d1d1"
     inkscape:document-units="px"
     inkscape:zoom="0.4716347"
     inkscape:cx="811.00903"
     inkscape:cy="963.66955"
     inkscape:window-width="1920"
     inkscape:window-height="915"
     inkscape:window-x="0"
     inkscape:window-y="40"
     inkscape:window-maximized="1"
     inkscape:current-layer="layer1"><inkscape:page
       x="0"
       y="0"
       width="512"
       height="512"
       id="page7"
       margin="0"
       bleed="0" /></sodipodi:namedview><defs
     id="defs1" /><g
     inkscape:label="Capa 1"
     inkscape:groupmode="layer"
     id="layer1"
     transform="translate(-529.92518,-1101.962)"><path
       style="fill:#000000"
       d="m 761.22915,1594.6381 c -5.97109,-1.4018 -14.71354,-6.5476 -18.97088,-11.1663 -2.16216,-2.3457 -5.30215,-7.1586 -6.97777,-10.6955 l -3.04658,-6.4306 -0.27771,-44.1574 c -0.2427,-38.5904 -0.0895,-44.4447 1.21559,-46.4364 0.82132,-1.2535 2.58969,-2.5542 3.92971,-2.8906 2.28612,-0.5737 2.39962,-0.8865 1.83998,-5.0696 -1.29549,-9.6832 -6.89377,-28.045 -8.55061,-28.045 -0.25705,0 -5.45612,3.2528 -11.55349,7.2284 -38.10965,24.8483 -70.50133,37.2143 -87.06882,33.2398 -7.00484,-1.6804 -12.99548,-5.8487 -16.15567,-11.2412 -2.34403,-3.9998 -2.75586,-5.8516 -3.07644,-13.833 -0.30573,-7.6117 0.0543,-10.8095 2.06929,-18.3801 4.60075,-17.2856 15.17063,-38.4904 31.86315,-63.9224 l 8.958,-13.648 -3.6658,-6.1734 c -4.64536,-7.8231 -10.69532,-22.247 -13.72444,-32.721 -4.32712,-14.9621 -5.8121,-26.1281 -5.81589,-43.7317 -0.004,-17.6372 1.3264,-27.6172 5.7912,-43.449 l 2.4791,-8.7907 -5.45422,-9.2675 c -7.49314,-12.7319 -15.22969,-29.1288 -18.90186,-40.0607 -2.3191,-6.9039 -3.18807,-11.4443 -3.54474,-18.5216 -0.30212,-5.9948 -0.0381,-10.9273 0.73224,-13.6786 1.61249,-5.7593 7.00642,-11.8426 12.95766,-14.6138 3.90382,-1.8178 6.48689,-2.2678 13.05038,-2.2734 13.6125,-0.012 31.01549,5.7056 51.75546,17.0026 l 7.95127,4.3311 6.97104,-4.4827 c 7.89634,-5.0778 19.31669,-10.7335 29.13884,-14.4306 8.16583,-3.0736 22.40472,-6.6899 32.70777,-8.3069 11.90162,-1.8679 35.49615,-1.4276 48.63863,0.9076 19.75167,3.5097 40.54416,11.5288 56.44779,21.7706 l 6.88802,4.4358 13.42666,-6.7475 c 7.38467,-3.7112 18.14836,-8.3674 23.91932,-10.3473 9.69696,-3.3268 11.33224,-3.6022 21.56405,-3.6315 9.62552,-0.027 11.59222,0.2469 15.05954,2.1013 5.3005,2.8348 10.42669,8.9824 11.91123,14.2847 0.77031,2.7513 1.03436,7.6838 0.73224,13.6786 -0.35714,7.0865 -1.22385,11.6087 -3.54977,18.5216 -3.81139,11.3278 -10.86853,26.2702 -18.53011,39.2347 l -5.83373,9.8715 2.58449,9.1099 c 3.46144,12.2011 5.10168,22.0507 5.87091,35.2546 1.53629,26.3703 -4.48476,53.9721 -17.26805,79.1604 l -5.89906,11.6236 8.92219,13.4321 c 16.44424,24.7563 27.51254,47.1353 32.01049,64.7221 1.18265,4.6242 1.9052,10.6093 1.89937,15.7332 -0.008,6.6286 -0.45493,9.2266 -2.25427,13.0905 -2.69109,5.7789 -7.48809,10.2173 -13.5412,12.529 -3.59224,1.3719 -6.27869,1.6007 -13.87787,1.182 -7.31888,-0.4033 -11.76094,-1.3015 -19.89072,-4.0219 -16.2486,-5.4371 -39.00751,-17.3968 -59.78164,-31.4151 -3.87651,-2.6158 -7.45703,-4.7561 -7.95673,-4.7561 -2.02092,0 -8.74331,22.9616 -8.789,30.0205 -0.0113,1.7508 0.60684,2.7805 1.9193,3.1971 1.06481,0.3379 2.58111,1.8619 3.36956,3.3866 1.2028,2.3259 1.43353,9.2802 1.43353,43.2072 0,26.2719 -0.37915,42.222 -1.08247,45.5368 -3.02153,14.2405 -13.63335,25.565 -27.28915,29.1219 -4.49406,1.1706 -10.92303,1.4713 -29.83509,1.3954 -13.25866,-0.053 -25.78855,-0.4916 -27.84422,-0.9741 z m 55.33044,-15.6529 c 1.90101,-0.6795 5.10958,-2.4964 7.13015,-4.0376 3.97565,-3.0324 8.16186,-10.7627 8.17727,-15.1004 l 0.009,-2.6475 h -42.36009 -42.36009 v 2.4378 c 0,3.1557 2.32728,8.6792 5.29788,12.5739 1.29256,1.6946 4.61343,4.209 7.37971,5.5875 5.02392,2.5035 5.05678,2.5063 29.14948,2.4641 17.09692,-0.03 25.12629,-0.402 27.57629,-1.2778 z m 15.31682,-46.8164 v -9.6273 h -42.36009 -42.36009 v 9.6273 9.6273 h 42.36009 42.36009 z m 0,-34.6583 v -9.6273 h -42.36009 -42.36009 v 9.6273 9.6273 h 42.36009 42.36009 z m -63.54014,-26.3169 c 0,-0.7072 -4.54889,-24.3688 -10.10866,-52.5812 -5.55976,-28.2125 -10.10865,-52.5444 -10.10865,-54.0711 0,-3.8155 3.06295,-6.6266 7.22047,-6.6266 3.32598,0 7.22047,2.6502 7.22047,4.9134 0,0.5844 1.53137,-0.2821 3.40305,-1.9254 4.20987,-3.6964 8.80557,-4.0191 11.70149,-0.8218 1.07909,1.1914 4.01693,5.9775 6.52855,10.6359 2.51161,4.6584 4.95211,8.3408 5.42332,8.1832 0.47122,-0.1576 3.34917,-4.6131 6.39544,-9.9011 6.08149,-10.5568 8.75226,-12.7906 13.24858,-11.0811 1.42591,0.5421 3.44326,1.9546 4.48299,3.1388 1.33132,1.5164 2.0399,1.7922 2.39588,0.9325 0.85775,-2.0713 3.24955,-4.0447 5.62489,-4.6408 3.17433,-0.7967 7.48853,1.5254 8.57533,4.6157 0.71291,2.0272 -1.35427,14.235 -9.37335,55.3547 -5.65838,29.0147 -10.28386,53.2956 -10.27884,53.9574 0.006,0.852 2.06135,1.2034 7.03674,1.2034 h 7.02761 l 1.19319,-8.2525 c 2.99093,-20.6863 12.4069,-40.2466 26.56814,-55.1915 3.21121,-3.3889 10.82069,-9.8502 16.90995,-14.3584 11.90554,-8.8142 25.67823,-21.6468 31.93227,-29.7525 l 3.8765,-5.0243 -6.49958,-8.4539 c -10.26388,-13.3501 -25.86715,-32.174 -38.87046,-46.8936 -12.59265,-14.2547 -52.78388,-54.8253 -63.84649,-64.449 l -6.49806,-5.6529 -5.53605,4.6773 c -10.01006,8.4573 -54.38391,53.4994 -67.70509,68.7246 -12.75023,14.5727 -28.60878,33.8474 -37.86307,46.0194 l -4.61203,6.0661 5.7231,6.9307 c 6.87946,8.3311 17.58575,17.781 29.76713,26.274 10.57717,7.3744 20.27501,16.6859 26.53453,25.4774 6.85938,9.634 12.96776,23.1341 15.6594,34.6087 1.30364,5.5575 2.62244,12.1623 2.93067,14.6775 l 0.56041,4.5729 h 6.68012 c 4.9308,0 6.68011,-0.3367 6.68011,-1.2859 z m 11.07139,-130.9338 c -6.3714,-2.1112 -9.51984,-4.1151 -13.85462,-8.8178 -6.04517,-6.5582 -8.19314,-11.9853 -8.19314,-20.701 0,-8.8513 2.19706,-14.2677 8.53634,-21.0449 6.09882,-6.5202 12.41908,-9.2128 21.71486,-9.2512 6.2782,-0.026 8.09732,0.3918 13.68463,3.1425 10.05651,4.9508 15.95751,13.6543 16.86904,24.8806 0.61095,7.5243 -1.57973,14.7753 -6.3884,21.1451 -4.82586,6.3925 -13.80003,11.0255 -22.3685,11.5479 -3.56813,0.2176 -7.76571,-0.1607 -10.00021,-0.9012 z m 15.96044,-16.3042 c 4.98961,-3.3625 7.62643,-7.9314 7.62643,-13.2146 0,-7.7191 -5.89293,-14.2565 -13.63795,-15.1295 -5.59086,-0.6302 -10.42213,1.4696 -13.91361,6.0472 -2.3016,3.0175 -2.77441,4.5653 -2.77441,9.0823 0,4.5158 0.47297,6.065 2.77181,9.0789 1.5245,1.9988 4.12387,4.2225 5.77638,4.9417 4.66924,2.0322 10.42632,1.7043 14.15135,-0.806 z m 8.31093,103.652 c 8.32101,-42.0796 8.77416,-44.987 7.35043,-47.1599 -0.8345,-1.2736 -1.87547,-2.3156 -2.31327,-2.3156 -0.4378,0 -3.69035,5.1534 -7.22788,11.452 -6.36253,11.3286 -8.52089,13.5789 -13.02378,13.5789 -1.05816,0 -2.89301,-0.9747 -4.07746,-2.1661 -1.18444,-1.1914 -4.7101,-6.8423 -7.83478,-12.5576 l -5.68124,-10.3914 -2.30367,2.3036 -2.30366,2.3037 8.96827,44.9122 8.96828,44.9121 5.30553,-0.014 5.30553,-0.014 z m -147.50073,34.8207 c 9.05547,-3.0119 27.64477,-11.8385 38.42252,-18.2438 12.1306,-7.2094 27.50991,-17.3677 27.51749,-18.1759 0.0173,-1.8477 -14.87473,-15.3817 -23.57992,-21.4297 -5.72429,-3.9769 -14.46842,-11.5219 -21.56862,-18.6107 l -11.94133,-11.9221 -1.80209,2.2837 c -3.06914,3.8893 -16.66014,25.9246 -21.30069,34.5351 -2.42564,4.5007 -5.98262,11.8656 -7.9044,16.3664 -3.75459,8.7931 -7.18852,21.5811 -7.19946,26.8109 -0.009,4.1817 2.41835,9.2335 5.09818,10.6115 3.41505,1.756 15.66723,0.6321 24.25832,-2.2254 z m 292.63638,1.0262 c 6.30568,-6.3057 2.83413,-23.993 -9.54832,-48.6479 -5.33724,-10.6271 -12.63529,-23.1264 -19.58788,-33.5479 l -5.30021,-7.9447 -3.37612,4.0938 c -6.79547,8.24 -19.24069,19.707 -30.51023,28.1119 -11.01455,8.2147 -22.64115,19.1268 -22.60481,21.2155 0.009,0.5376 4.44995,3.8731 9.86798,7.4122 32.14368,20.9969 55.86502,31.4248 71.75009,31.5414 6.14723,0.045 7.30877,-0.2336 9.3095,-2.2343 z M 671.60085,1337.9381 c 8.21331,-10.6861 28.29591,-34.7174 38.41676,-45.9703 11.95453,-13.2918 38.84698,-40.5816 54.58258,-55.3891 l 13.11169,-12.3383 -3.48439,-3.3049 c -5.39598,-5.1179 -20.11217,-17.0676 -33.09822,-26.876 -15.89352,-12.0046 -39.20703,-27.7279 -41.11301,-27.7279 -2.14911,0 -18.13422,16.2415 -24.94482,25.3449 -11.21194,14.9866 -19.12736,31.7157 -23.59969,49.8776 -3.70302,15.0378 -4.76779,25.5569 -4.12852,40.7864 0.57944,13.8038 2.71423,26.278 6.47122,37.8133 2.3742,7.2897 10.5142,25.2455 11.44466,25.2455 0.33391,0 3.18769,-3.3576 6.34174,-7.4612 z m 247.16574,-1.9255 c 5.07809,-10.8678 8.56122,-21.497 11.00281,-33.5761 1.29152,-6.3895 1.72612,-13.0333 1.7239,-26.3538 -0.003,-15.0412 -0.34659,-19.3546 -2.21294,-27.7419 -1.21549,-5.4624 -3.30618,-13.2605 -4.646,-17.3292 -3.63448,-11.037 -12.03932,-27.4664 -19.05217,-37.2422 -6.96338,-9.7069 -24.04069,-27.4382 -26.42501,-27.4371 -1.89424,0 -26.14217,16.2866 -41.95144,28.1759 -6.37289,4.7927 -17.0736,13.2873 -23.77936,18.8768 l -12.19229,10.1628 24.70777,24.2052 c 32.86861,32.1999 55.68015,57.4181 79.24596,87.6065 4.31053,5.5218 8.14231,10.0398 8.51507,10.0398 0.37276,0 2.65143,-4.224 5.0637,-9.3867 z M 803.19445,1202.3141 c 15.56057,-13.0227 36.97968,-29.1513 51.60041,-38.8549 9.84202,-6.5321 10.69454,-7.3261 9.13151,-8.5042 -4.15742,-3.1337 -21.67087,-11.2293 -30.54505,-14.1195 -15.31099,-4.9866 -26.76992,-6.7499 -43.865,-6.7499 -17.09673,0 -28.55402,1.7633 -43.87048,6.7517 -8.71299,2.8377 -24.24825,9.9253 -29.96388,13.6703 -2.1196,1.3888 -1.79622,1.6885 12.48301,11.5697 17.27753,11.956 37.88367,27.6998 51.28049,39.1801 5.27422,4.5197 9.89607,8.1161 10.27078,7.9921 0.3747,-0.124 6.4399,-5.045 13.47821,-10.9354 z m -151.0505,-3.009 c 7.03601,-12.1594 15.98904,-24.0428 25.03063,-33.2232 4.66741,-4.7391 8.35107,-8.7378 8.1859,-8.8859 -0.16516,-0.1482 -4.35346,-2.2963 -9.30733,-4.7736 -4.95387,-2.4773 -13.48875,-6.0039 -18.96641,-7.8368 -7.44257,-2.4905 -11.68327,-3.3488 -16.7811,-3.3965 -8.38223,-0.078 -11.06355,1.4126 -12.56465,6.9873 -2.19428,8.1489 2.05552,23.1308 12.72825,44.8709 3.70421,7.5454 6.87496,13.7189 7.04613,13.7189 0.17117,0 2.25403,-3.3575 4.62858,-7.4611 z m 289.03534,-11.3121 c 8.64337,-18.0822 12.43881,-33.274 10.09062,-40.389 -1.6702,-5.0608 -4.46581,-6.4906 -12.54291,-6.4149 -5.09783,0.048 -9.33853,0.906 -16.7811,3.3965 -5.47766,1.8329 -14.01254,5.3595 -18.96641,7.8368 -4.95387,2.4773 -9.14217,4.6254 -9.30733,4.7736 -0.16517,0.1481 3.51848,4.1468 8.1859,8.8859 9.05865,9.1977 17.99615,21.0663 25.07063,33.2925 l 4.35736,7.5305 2.41559,-4.1609 c 1.32857,-2.2885 4.69351,-8.9265 7.47765,-14.751 z"
       id="path12" /></g></svg>
