<?xml version="1.0" encoding="UTF-8" standalone="no"?>
<!-- Created with Inkscape (http://www.inkscape.org/) -->

<svg
   width="512"
   height="512"
   viewBox="0 0 512 512"
   version="1.1"
   id="svg1"
   xml:space="preserve"
   inkscape:version="1.4.4 (dcaf3e7d9e, 2026-05-05)"
   sodipodi:docname="iconos-distribucion.svg"
   xmlns:inkscape="http://www.inkscape.org/namespaces/inkscape"
   xmlns:sodipodi="http://sodipodi.sourceforge.net/DTD/sodipodi-0.dtd"
   xmlns="http://www.w3.org/2000/svg"
   xmlns:svg="http://www.w3.org/2000/svg"><sodipodi:namedview
     id="namedview1"
     pagecolor="#ffffff"
     bordercolor="#999999"
     borderopacity="1"
     inkscape:showpageshadow="2"
     inkscape:pageopacity="0"
     inkscape:pagecheckerboard="0"
     inkscape:deskcolor="#d1d1d1"
     inkscape:document-units="px"
     inkscape:zoom="0.66699219"
     inkscape:cx="-35.232796"
     inkscape:cy="529.99121"
     inkscape:window-width="1920"
     inkscape:window-height="915"
     inkscape:window-x="0"
     inkscape:window-y="40"
     inkscape:window-maximized="1"
     inkscape:current-layer="layer1"><inkscape:page
       x="0"
       y="0"
       width="512"
       height="512"
       id="page5"
       margin="0"
       bleed="0" /></sodipodi:namedview><defs
     id="defs1" /><g
     inkscape:label="Capa 1"
     inkscape:groupmode="layer"
     id="layer1"
     transform="translate(554.47437,-551.73059)"><path
       style="fill:#f0cb4d"
       d="m -304.93643,1039.9989 c -3.41528,-1.1178 -6.33855,-4.0073 -16.07439,-15.8888 -21.58562,-26.3428 -50.00176,-64.23521 -67.09798,-89.47398 -6.90176,-10.18891 -20.99191,-32.37426 -28.60889,-45.04552 -24.38967,-40.57354 -40.84616,-77.75532 -49.23609,-111.24395 -2.73364,-10.91142 -3.51286,-15.78575 -3.95107,-24.71535 -1.76017,-35.86836 10.42367,-74.76088 33.22744,-106.06662 9.25392,-12.70407 18.64349,-22.44871 31.62831,-32.82435 26.76128,-21.38386 58.22294,-34.02598 90.44803,-36.34441 7.41226,-0.53327 22.51954,-0.53242 28.59054,0.002 19.05942,1.67655 35.85854,6.21397 53.9387,14.56876 18.30788,8.46002 32.56021,18.19795 46.35864,31.67463 30.61682,29.90289 47.69559,64.27908 52.59902,105.8714 l 0.71289,6.04694 0.0142,12.75261 0.0142,12.75261 -1.3624,6.37631 c -3.71188,17.37237 -8.12937,31.62503 -15.49152,49.98201 -8.88013,22.14196 -21.77188,47.57519 -36.80379,72.60762 -8.62402,14.36145 -23.49765,37.61125 -31.44872,49.15926 -5.51221,8.00583 -33.30849,46.10408 -38.16886,52.31516 -10.53285,13.45997 -32.44786,40.47567 -34.68183,42.75397 -1.35754,1.3844 -3.4864,3.0375 -4.73081,3.6734 l -2.26256,1.1563 -3.291,0.1239 c -1.81005,0.068 -3.75499,-0.028 -4.3221,-0.2135 z m 11.67737,-214.79494 c 15.15019,-1.25516 31.2011,-7.82114 43.24381,-17.68984 5.85393,-4.79715 12.28183,-12.00275 16.42478,-18.412 11.55457,-17.87519 15.28896,-42.01884 9.84499,-63.64998 -3.44117,-13.67317 -10.79635,-26.54676 -20.59427,-36.04568 -11.65904,-11.30322 -26.80276,-19.20481 -42.08216,-21.95733 -5.21137,-0.93881 -18.65246,-1.29033 -24.30818,-0.63572 -8.88861,1.02878 -18.88048,4.19198 -27.55548,8.72341 -14.94342,7.80578 -26.39767,19.72887 -34.12063,35.51721 -3.80215,7.77289 -5.60011,13.3119 -7.27751,22.41992 l -0.71974,3.90806 0.002,9.25592 0.002,9.25593 0.75279,4.11375 c 4.01833,21.9587 15.04291,38.9255 33.6078,51.72232 10.18182,7.01834 22.8191,11.78443 35.59227,13.42345 3.95953,0.50807 11.402,0.52997 17.1885,0.0506 z"
       id="path6" /></g></svg>
