<?xml version="1.0" encoding="UTF-8" standalone="no"?>
<!-- Created with Inkscape (http://www.inkscape.org/) -->

<svg
   width="512"
   height="512"
   viewBox="0 0 512 512"
   version="1.1"
   id="svg1"
   xml:space="preserve"
   inkscape:export-filename="camioncito.svg"
   inkscape:export-xdpi="200"
   inkscape:export-ydpi="200"
   xmlns:inkscape="http://www.inkscape.org/namespaces/inkscape"
   xmlns:sodipodi="http://sodipodi.sourceforge.net/DTD/sodipodi-0.dtd"
   xmlns="http://www.w3.org/2000/svg"
   xmlns:svg="http://www.w3.org/2000/svg"><sodipodi:namedview
     id="namedview1"
     pagecolor="#ffffff"
     bordercolor="#999999"
     borderopacity="1"
     inkscape:showpageshadow="2"
     inkscape:pageopacity="0"
     inkscape:pagecheckerboard="0"
     inkscape:deskcolor="#d1d1d1"
     inkscape:document-units="px"><inkscape:page
       x="0"
       y="0"
       width="512"
       height="512"
       id="page2"
       margin="0"
       bleed="0" /></sodipodi:namedview><defs
     id="defs1" /><g
     inkscape:label="Capa 1"
     inkscape:groupmode="layer"
     id="layer1"><path
       style="fill:#000000"
       d="m 242.61944,498.96036 c -6.83967,-6.83967 -2.92993,-14.06311 9.65001,-17.82885 10.18786,-3.04969 10.18358,-0.82513 0.0426,-22.11602 l -8.35519,-17.54162 -9.42169,-2.69159 c -5.18192,-1.48038 -12.07284,-3.92347 -15.31314,-5.4291 l -5.89147,-2.73751 -0.58929,3.96633 c -0.32411,2.18148 -1.32032,9.09751 -2.2138,15.36896 l -1.62452,11.40263 2.62407,8.85207 c 3.34793,11.29389 2.74353,10.62367 9.60412,10.6501 15.0282,0.0579 22.29404,7.2607 15.73531,15.59878 -3.20828,4.07866 -5.45322,4.45879 -19.64155,3.32584 -17.48543,-1.39622 -17.54797,-1.4416 -21.65992,-15.71584 -3.10599,-10.78218 -2.38773,-10.36975 -12.25234,-7.0353 -10.74981,3.63366 -12.28234,3.59811 -16.25757,-0.37711 -7.48893,-7.48893 -3.59407,-13.50035 11.86304,-18.30972 10.20503,-3.17523 11.39469,-3.7756 11.81221,-5.96114 0.25535,-1.33667 1.44379,-9.5533 2.64096,-18.25918 l 2.17667,-15.82886 -5.30796,-5.73324 c -2.91939,-3.15328 -6.65915,-8.09485 -8.31059,-10.98126 -2.60961,-4.56113 -3.46239,-5.31944 -6.51541,-5.79362 -16.91967,-2.62789 -25.63375,-5.6951 -36.56144,-12.86902 -19.48635,-12.79259 -31.75961,-30.85246 -38.08262,-56.03783 l -3.215738,-12.80871 -5.53749,-4.7511 c -18.20706,-15.62142 -25.114799,-27.29637 -25.114799,-42.44718 0,-5.28256 -0.201453,-5.74124 -4.706341,-10.7157 C 52.124849,245.03514 48.968536,233.06242 50.951923,213.5055 l 1.043895,-10.29319 -5.750635,-11.08675 c -11.245261,-21.67995 -11.6164,-34.6158 -1.321101,-46.04633 11.379287,-12.63405 24.294975,-10.60083 63.507838,9.99756 37.0508,19.46266 51.3769,25.09884 71.65727,28.19144 13.57342,2.06984 16.04258,3.71284 16.04258,10.67484 0,10.27955 -11.32906,11.76731 -36.3459,4.77301 -3.52769,-0.98628 -6.41398,-1.6134 -6.41398,-1.39359 0,5.20535 32.09552,41.52784 48.14073,54.48085 68.4704,55.27492 163.19663,39.09601 153.30138,-26.18334 -3.34526,-22.06883 -33.25485,-42.79082 -53.64729,-37.16796 -18.49664,5.10012 -29.17825,7.43103 -31.44558,6.86197 -6.56464,-1.64762 -9.31514,-9.7942 -5.1112,-15.13864 2.02633,-2.57606 2.96385,-2.90811 21.88156,-7.74994 l 10.06616,-2.57636 1.67886,-7.25799 c 13.1099,-56.67634 45.80764,-100.581948 82.95053,-111.383638 l 4.03844,-1.17444 v -6.33186 c 0,-22.258267 23.89737,-36.9990017 42.39367,-26.149899 29.28205,17.175538 37.04615,28.672939 31.9141,47.259699 -1.03524,3.74932 -0.0874,4.48569 5.8107,4.5143 9.83225,0.0477 12.60472,14.2962 3.5144,18.06153 -2.01753,0.83569 -5.09638,1.01569 -9.91083,0.57942 l -6.98408,-0.63288 -0.6615,3.59286 c -2.69571,14.641618 -14.34456,24.548298 -31.86864,27.102458 -6.22287,0.90699 -7.62535,1.40784 -7.24085,2.58582 0.26228,0.80352 2.84586,8.30253 5.74129,16.66447 42.77273,123.52652 12.48391,217.08677 -80.63189,249.06687 -9.05069,3.10841 -65.89501,39.82053 -73.96758,47.77094 -0.52596,0.518 16.47613,38.61322 17.70083,39.66083 0.0777,0.0665 7.19671,0.61386 15.81995,1.21639 28.76876,2.01012 31.27886,2.74384 32.78079,9.58209 2.2611,10.29472 -2.67392,11.90223 -30.52483,9.94298 l -23.6359,-1.66274 -12.23635,3.94083 c -14.72363,4.74187 -16.91697,4.8656 -20.61932,1.16325 z m 11.18884,-81.65015 c 16.56187,-13.84669 31.48543,-36.17657 39.13696,-58.55998 3.27711,-9.58669 5.3442,-11.84486 10.872,-11.87697 9.95083,-0.0578 11.48312,8.42707 4.60459,25.49745 -2.18076,5.41198 -3.96502,10.03425 -3.96502,10.27173 0,0.23747 3.10015,-1.71137 6.88923,-4.33075 4.87511,-3.37016 10.22285,-5.90816 18.29173,-8.68112 70.76067,-24.31766 99.19178,-82.1379 84.0896,-171.01271 -3.99227,-23.49407 -15.10557,-61.706 -21.80726,-74.98199 -3.9189,-7.76328 -4.99759,-12.96302 -3.45483,-16.6537 2.17684,-5.20755 3.51002,-5.68286 17.67426,-6.30131 20.04396,-0.875176 27.20529,-5.515016 26.39551,-17.101718 -1.75671,-25.13597 -49.95299,-20.67191 -77.17942,7.14856 -15.51857,15.857158 -34.6436,54.060888 -38.1024,76.112488 l -0.58759,3.7462 7.8756,2.33727 c 68.84009,20.42994 67.23919,108.55521 -2.33832,128.71798 C 255.68695,320.91721 174.9784,276.38171 128.2642,194.625 l -5.0482,-8.8351 -20.79285,-11.1446 c -39.075825,-20.94395 -49.019342,-22.04964 -45.098019,-5.01475 4.28543,18.61662 16.574735,29.66294 37.019754,33.27545 9.868615,1.74372 13.884465,6.68221 11.004175,13.5324 -3.19225,7.59212 -15.475844,7.51136 -33.933614,-0.2231 -2.262843,-0.94821 -2.375638,12.27967 -0.160153,18.78176 3.979224,11.67838 8.869824,13.87372 32.230067,14.46772 l 14.25329,0.36243 2.61311,2.91691 c 3.58555,4.00241 3.52595,8.48972 -0.16752,12.61168 l -2.78061,3.10321 -15.78811,-0.0734 -15.7881,-0.0734 0.631626,2.92402 c 3.933552,18.20985 27.118904,28.62356 51.126204,22.96334 8.26818,-1.94939 12.54431,-0.40047 14.687,5.32001 3.41672,9.12185 -4.06736,13.95726 -22.89341,14.79126 -7.27377,0.32223 -11.16276,0.86313 -11.15842,1.55196 0.14302,22.7148 24.10494,52.32096 47.36268,58.51898 5.56489,1.483 5.59,1.37368 2.01819,-8.78737 -4.3654,-12.41866 -2.14556,-18.74235 6.57925,-18.74235 6.42291,0 7.97505,2.24166 14.47462,20.90483 11.31595,32.49314 20.671,42.64728 47.38584,51.43348 10.73931,3.53203 11.37408,3.46486 17.76728,-1.88023 z M 439.94266,50.846772 c -0.81192,-1.23914 -4.58275,-4.2587 -8.37964,-6.71013 -3.79689,-2.45144 -8.09191,-5.452503 -9.5445,-6.669043 -7.5671,-6.337422 -17.78865,-2.218902 -17.78865,7.167493 0,2.3667 0.39188,2.90094 2.13799,2.91473 13.78429,0.10884 27.80224,4.22401 32.61416,9.57435 l 1.83131,2.03622 0.30277,-3.03032 c 0.16653,-1.66667 -0.36152,-4.04416 -1.17344,-5.2833 z M 223.97449,201.68495 c -9.14376,-7.18545 -0.14177,-21.22544 10.18509,-15.88522 3.45182,1.78501 4.73207,4.09894 4.73207,8.55277 0,7.21934 -9.26546,11.77373 -14.91716,7.33245 z"
       id="path1" /></g></svg>
